<?xml version="1.0" encoding="UTF-8"?>
<svg version="1.1" xmlns="http://www.w3.org/2000/svg" width="512" height="512">
<path d="M0 0 C8.48818975 5.07864799 13.33886483 11.64159448 16.4375 20.9375 C17.27520813 31.49811566 16.11155464 39.31835761 10.3125 48.1875 C6.04476193 52.26968424 0.55204755 56.9375 -5.5625 56.9375 C-5.5625 69.8075 -5.5625 82.6775 -5.5625 95.9375 C-3.5825 95.4425 -3.5825 95.4425 -1.5625 94.9375 C0.18636981 94.87125493 1.93752748 94.85197405 3.6875 94.875 C5.02554688 94.88853516 5.02554688 94.88853516 6.390625 94.90234375 C7.06609375 94.91394531 7.7415625 94.92554687 8.4375 94.9375 C8.39109375 94.38964844 8.3446875 93.84179688 8.296875 93.27734375 C7.55105209 76.89587619 14.87959044 61.49411147 25.30078125 49.20703125 C31.1883078 42.95355241 37.72098751 38.53452058 45.3125 34.625 C45.93576172 34.29935059 46.55902344 33.97370117 47.20117188 33.63818359 C57.43159654 28.62464979 67.92552148 27.47294641 79.1875 27.25 C80.96640625 27.19875977 80.96640625 27.19875977 82.78125 27.14648438 C85.66657185 27.06504384 88.5516295 26.99556387 91.4375 26.9375 C91.70522217 26.25260498 91.97294434 25.56770996 92.2487793 24.86206055 C92.60367432 23.96269775 92.95856934 23.06333496 93.32421875 22.13671875 C93.849552 20.80000122 93.849552 20.80000122 94.38549805 19.4362793 C98.31530189 10.10196917 105.14636152 4.14367925 114.10546875 -0.1171875 C117.78151459 -1.60730993 120.98816886 -2.18795074 124.95132446 -2.20967102 C126.30098801 -2.22040398 126.30098801 -2.22040398 127.67791748 -2.23135376 C129.14759979 -2.23538712 129.14759979 -2.23538712 130.64697266 -2.23950195 C132.20383286 -2.24935875 132.20383286 -2.24935875 133.79214478 -2.25941467 C137.22861811 -2.27913173 140.66504773 -2.29080779 144.1015625 -2.30078125 C145.8646129 -2.30689454 145.8646129 -2.30689454 147.66328049 -2.31313133 C153.88635838 -2.3339869 160.10941426 -2.34828995 166.33251953 -2.35766602 C172.74819677 -2.36871949 179.16352614 -2.4031091 185.57908058 -2.44283772 C190.52233508 -2.46903258 195.46550712 -2.47736051 200.40882492 -2.48094749 C202.7730074 -2.48580725 205.13718636 -2.49740369 207.50130081 -2.51598549 C210.81836432 -2.54043347 214.13453341 -2.53940097 217.45166016 -2.5324707 C218.41930298 -2.54528076 219.3869458 -2.55809082 220.38391113 -2.57128906 C231.51240556 -2.48699247 240.19413246 1.9253683 248.125 9.5625 C252.955351 14.77927908 256.4375 20.73616454 256.4375 27.9375 C257.17685791 27.91655273 257.91621582 27.89560547 258.67797852 27.87402344 C282.08247086 27.29869714 301.54566539 28.87145957 319.32739258 45.75048828 C329.06265497 55.34679226 335.40581442 65.9241581 338.8125 79.1875 C338.98031982 79.83662354 339.14813965 80.48574707 339.32104492 81.15454102 C340.42866025 85.86414769 340.57613799 90.13849253 340.4375 94.9375 C341.11296875 94.92589844 341.7884375 94.91429688 342.484375 94.90234375 C343.37640625 94.89332031 344.2684375 94.88429688 345.1875 94.875 C346.06921875 94.86339844 346.9509375 94.85179688 347.859375 94.83984375 C350.4375 94.9375 350.4375 94.9375 354.4375 95.9375 C354.1075 83.3975 353.7775 70.8575 353.4375 57.9375 C350.1375 56.2875 346.8375 54.6375 343.4375 52.9375 C335.82745836 45.57294357 332.08378064 38.8330498 331.8125 28.125 C331.86865401 19.54346473 334.46542289 12.60941927 340.078125 6.0078125 C341.77763012 4.41154834 343.46330324 3.17444486 345.4375 1.9375 C346.05882812 1.52757812 346.68015625 1.11765625 347.3203125 0.6953125 C354.91271211 -3.49061124 364.89415724 -3.39321722 373.1875 -1.40234375 C381.88338293 2.08506763 387.58889524 8.15029125 391.52734375 16.5078125 C394.75730971 25.13029674 393.96776918 33.57142814 390.4375 41.9375 C386.00167302 49.73128946 379.67679583 54.64178167 371.4375 57.9375 C371.1075 72.1275 370.7775 86.3175 370.4375 100.9375 C372.0875 101.5975 373.7375 102.2575 375.4375 102.9375 C388.02565467 110.90999796 395.98692474 121.64695359 399.74609375 136.0859375 C402.36490152 150.67432428 400.48517501 165.28830784 392.4375 177.9375 C389.63917841 181.48800202 386.62697008 184.73691678 383.4375 187.9375 C382.88320313 188.515 382.32890625 189.0925 381.7578125 189.6875 C371.13870186 199.83112807 356.7621222 202.25839544 342.67578125 202.0078125 C341.93714844 201.98460937 341.19851563 201.96140625 340.4375 201.9375 C340.46972656 203.10023438 340.50195312 204.26296875 340.53515625 205.4609375 C340.5095564 222.10083899 332.57294954 237.81740187 321.04296875 249.390625 C320.18316406 250.23109375 319.32335937 251.0715625 318.4375 251.9375 C317.59638672 252.82695312 317.59638672 252.82695312 316.73828125 253.734375 C312.95008592 257.4330854 308.35675704 259.72593606 303.6875 262.125 C302.72227417 262.62531738 302.72227417 262.62531738 301.73754883 263.13574219 C291.13058004 268.3518967 281.07727155 269.36829189 269.36328125 269.23046875 C267.94411167 269.22485889 266.52493619 269.22059538 265.10575867 269.21760559 C261.40841027 269.20626595 257.71142729 269.1768958 254.01422119 269.14349365 C250.22632792 269.11255499 246.43837439 269.09904993 242.65039062 269.08398438 C235.24590952 269.05201283 227.84180295 268.9993373 220.4375 268.9375 C220.7675 274.8775 221.0975 280.8175 221.4375 286.9375 C223.7475 286.2775 226.0575 285.6175 228.4375 284.9375 C252.91632052 283.41973529 279.52572329 299.47411708 297.16040039 314.9934082 C315.80528781 331.8617404 328.77608907 351.4783103 335.8125 375.625 C336.05129883 376.44307129 336.29009766 377.26114258 336.53613281 378.10400391 C340.44632386 392.41779298 340.77474892 406.5723933 340.80859375 421.296875 C340.81758179 423.33799293 340.82670395 425.37911028 340.83595276 427.42022705 C340.8523357 431.67290843 340.86012451 435.92551202 340.86303711 440.17822266 C340.86844261 445.60728795 340.90625824 451.03561701 340.95178127 456.46447372 C340.98160431 460.66998952 340.98876164 464.87532792 340.98976326 469.08094025 C340.99394679 471.08229229 341.0063053 473.08364578 341.02728081 475.08489227 C341.22799845 495.86803441 341.22799845 495.86803441 335.4375 502.9375 C329.47755982 508.42490722 324.90030983 510.09280703 316.8125 510.140625 C316.06919434 510.14632507 315.32588867 510.15202515 314.56005859 510.15789795 C312.98992329 510.16733425 311.4197683 510.17387649 309.84960938 510.17773438 C307.44626577 510.18746451 305.04376886 510.21850917 302.640625 510.25 C301.11458841 510.25652803 299.58854571 510.26177929 298.0625 510.265625 C297.34368652 510.2779718 296.62487305 510.2903186 295.88427734 510.30303955 C290.91937948 510.28082691 290.91937948 510.28082691 288.51171875 508.56542969 C287.02427797 506.3112808 286.63005759 504.63330632 286.4375 501.9375 C287.3736625 498.84096249 288.14173322 497.23326678 290.4375 494.9375 C293.0637207 494.63452148 293.0637207 494.63452148 296.36328125 494.55859375 C297.55244141 494.52443359 298.74160156 494.49027344 299.96679688 494.45507812 C301.21525391 494.42865234 302.46371094 494.40222656 303.75 494.375 C306.20452013 494.31488408 308.65895647 494.25121696 311.11328125 494.18359375 C312.20552002 494.15966553 313.29775879 494.1357373 314.4230957 494.11108398 C317.19338951 493.95155706 319.73769524 493.55913467 322.4375 492.9375 C323.68520842 489.19437473 323.59307131 485.70395512 323.59863281 481.80444336 C323.60359772 480.97460434 323.60856262 480.14476532 323.61367798 479.28977966 C323.62831355 476.53562591 323.63510951 473.78153006 323.640625 471.02734375 C323.64638224 469.10177104 323.6521399 467.17619832 323.65789795 465.25062561 C323.66841663 461.20117934 323.67425134 457.15175294 323.67773438 453.10229492 C323.6831731 447.96199624 323.70709688 442.82196865 323.73570633 437.68175411 C323.75453078 433.69465938 323.75954905 429.70762679 323.76107025 425.72049141 C323.76406093 423.82904161 323.77196493 421.93759192 323.78525543 420.04618645 C324.02161887 383.7717751 312.99982392 355.00505893 287.43359375 328.890625 C273.16051864 315.34880801 252.1021413 304.35742814 232.4375 301.9375 C228.59889497 302.85593924 225.42612783 304.39484556 222 306.3125 C197.10674188 318.87025968 162.32460751 317.51132761 136.015625 310.234375 C132.78905222 309.06491849 130.12036878 307.71221702 127.17700195 306.00146484 C121.41090103 302.68180927 117.62090888 301.42620901 111 302.625 C108.42066857 303.32796805 105.95338191 304.06266365 103.4375 304.9375 C102.80666504 305.15164551 102.17583008 305.36579102 101.52587891 305.58642578 C71.70246555 315.99454579 49.38176993 336.06128367 35.22265625 364.12109375 C26.55491967 382.12260921 24.97273305 400.66103936 25.07421875 420.30078125 C25.0747387 422.31096903 25.0742158 424.32115732 25.07270813 426.3313446 C25.07279709 430.50735232 25.08308007 434.68316388 25.10131836 438.85913086 C25.12419537 444.21460919 25.12450706 449.56980666 25.11780071 454.92532063 C25.11446666 459.0593466 25.121077 463.19330822 25.13092995 467.32732201 C25.13477765 469.3037196 25.13593194 471.28012434 25.1343441 473.25652504 C25.13397441 476.00359538 25.14656022 478.75029909 25.1628418 481.49731445 C25.16036438 482.31230911 25.15788696 483.12730377 25.15533447 483.96699524 C25.19184691 487.81515141 25.25234154 489.65976231 27.4375 492.9375 C31.52256725 494.40879968 35.86230175 494.11296584 40.15332031 494.14282227 C41.03172577 494.15272186 41.91013123 494.16262146 42.81515503 494.17282104 C45.71528438 494.20437961 48.61543009 494.2291712 51.515625 494.25390625 C53.52773461 494.27448065 55.53983994 494.29547725 57.55194092 494.31687927 C62.84550512 494.37204976 68.13910801 494.42148121 73.43273926 494.46972656 C78.83540282 494.51997824 84.23801028 494.57564517 89.640625 494.63085938 C100.23953539 494.73837952 110.83849451 494.83983816 121.4375 494.9375 C121.4375 489.9875 121.4375 485.0375 121.4375 479.9375 C119.1275 480.02 116.8175 480.1025 114.4375 480.1875 C106.76603249 480.26315388 101.96286941 479.2347956 96.32421875 473.9609375 C94.95326422 472.58246402 93.60788185 471.17779417 92.296875 469.7421875 C89.42559915 466.95536094 87.45085348 465.9375 83.4375 465.9375 C82.4959143 467.34987856 81.56084981 468.76727541 80.66796875 470.2109375 C77.34704972 474.87076674 72.87597792 478.21716515 67.4375 479.9375 C60.69824663 480.58696497 54.17126748 480.95113723 48.4375 476.9375 C47.1690625 476.1640625 47.1690625 476.1640625 45.875 475.375 C40.80601399 470.30601399 38.14523156 464.4315767 37.9375 457.25 C38.31572595 450.17319346 40.84430687 444.73539241 45.5703125 439.515625 C50.0117441 435.76177905 55.31225499 434.198495 61 433.5 C68.75017816 434.48638631 75.27855864 436.82591322 80.4375 442.9375 C81.875 446.3125 81.875 446.3125 82.4375 448.9375 C83.0665625 448.96328125 83.695625 448.9890625 84.34375 449.015625 C93.45008447 449.6190568 98.61249877 451.76472034 104.6875 458.625 C108.32058677 462.50623105 110.69324234 463.58843008 116 464 C118.6915625 463.9690625 118.6915625 463.9690625 121.4375 463.9375 C121.4375 457.0075 121.4375 450.0775 121.4375 442.9375 C116.06752131 443.05557776 116.06752131 443.05557776 110.69848633 443.20776367 C106.16245875 443.25790638 103.03373613 443.02496629 99.4375 439.9375 C98.58984375 438.0703125 98.58984375 438.0703125 98.375 436.0625 C98.28089844 435.40507812 98.18679687 434.74765625 98.08984375 434.0703125 C98.6674079 430.52705379 99.66870805 429.25751525 102.4375 426.9375 C106.20256623 426.31351107 109.88448902 426.46814993 113.6875 426.625 C114.71875 426.64755859 115.75 426.67011719 116.8125 426.69335938 C119.35564065 426.75222837 121.89583113 426.83439935 124.4375 426.9375 C124.84935547 425.82375 124.84935547 425.82375 125.26953125 424.6875 C126.35250166 422.13762988 127.48983835 420.15952789 129.125 417.9375 C129.58261719 417.298125 130.04023438 416.65875 130.51171875 416 C132.32027649 414.06304566 133.75532108 413.13960184 135.99536133 411.80444336 C139.08423896 409.6142597 139.37952581 409.16539594 140.375 405.25219727 C140.43426261 403.83718748 140.45300911 402.42007157 140.4375 401.00390625 C140.44894043 400.24834946 140.46038086 399.49279266 140.47216797 398.71434021 C140.48565103 397.12170511 140.48122716 395.52882948 140.45996094 393.9362793 C140.43756552 391.50710664 140.50036937 389.0901705 140.5703125 386.66210938 C140.85664197 378.58563428 140.85664197 378.58563428 137.44897461 371.59570312 C135.16517192 370.09450406 132.93347905 369.03101662 130.4375 367.9375 C125.73966147 362.87828928 124.71767207 356.67011977 124.4375 349.9375 C125.28737258 343.05060154 128.05845669 337.37491647 133.4375 332.9375 C139.69137407 328.82920456 146.0856834 327.90845785 153.4375 328.9375 C160.19592119 330.73055052 164.57672542 334.15947002 168.4375 339.9375 C171.77100976 346.12830385 172.02347442 353.00438873 170.2890625 359.69921875 C168.77007011 363.69179966 166.53446988 367.00385916 163.4375 369.9375 C162.23351562 370.35902344 161.02953125 370.78054688 159.7890625 371.21484375 C157.83880468 372.13971798 157.83880468 372.13971798 156.4375 373.9375 C155.36981701 379.00988495 155.4610848 384.02021459 155.5 389.1875 C155.479375 394.055 155.45875 398.9225 155.4375 403.9375 C167.6475 403.9375 179.8575 403.9375 192.4375 403.9375 C192.3503974 396.48120788 192.3503974 396.48120788 189.73046875 394.2734375 C189.03566406 393.95632813 188.34085938 393.63921875 187.625 393.3125 C182.57703294 390.6124246 180.50161671 387.3317626 178.1875 382.125 C176.48567761 374.89225486 177.04538346 368.57614868 180.4375 361.9375 C184.44648914 355.85489578 189.12216718 352.98553152 196.1875 351.5 C203.0932683 350.55013596 208.52955125 351.51472179 214.47265625 355.19921875 C219.78854884 359.31875335 222.92947722 364.09852377 223.81640625 370.80078125 C224.11773575 378.45066246 223.02169248 384.99571987 217.75390625 390.7890625 C214.75161823 393.51371959 212.46659136 395.15995605 208.4375 395.9375 C207.96205235 404.29199957 207.96205235 404.29199957 211.5546875 411.5234375 C213.32306328 413.01894818 215.13360076 414.46586086 216.98046875 415.86328125 C219.53583158 418.02051124 220.27967471 419.40012649 221.5 422.4375 C222.47427028 424.5328907 222.47427028 424.5328907 224.4375 425.9375 C228.03948299 426.51396415 231.39423289 426.76498005 235.03149414 426.7265625 C242.05019626 426.66366386 247.35256527 428.48114918 252.5625 433.375 C253.23023438 433.9834375 253.89796875 434.591875 254.5859375 435.21875 C255.19695312 435.7859375 255.80796875 436.353125 256.4375 436.9375 C260.28224769 440.5227018 260.28224769 440.5227018 265.4375 440.9375 C266.88543959 439.11398376 266.88543959 439.11398376 268.0625 436.75 C271.50176748 431.29876105 275.26276878 428.74135407 281.4375 426.9375 C287.87752603 426.00801171 293.92001668 426.18268728 299.62109375 429.5390625 C304.80975509 433.53377381 309.22989084 438.36273901 310.4375 444.9375 C311.23223997 452.81131262 309.68039555 458.69776198 305.1875 465.1875 C300.04102209 470.33397791 294.91443236 472.70570451 287.6875 473.1875 C279.89788047 473.02882257 274.81442924 469.84086129 269.1015625 464.75390625 C267.4375 462.9375 267.4375 462.9375 266.5703125 460.80859375 C265.54343849 458.66327718 265.54343849 458.66327718 262.828125 458.03125 C261.27351562 457.73734375 261.27351562 457.73734375 259.6875 457.4375 C251.81945011 455.67445664 247.41158227 452.16699644 241.953125 446.42578125 C239.1464155 443.66970826 236.62425104 443.68525881 232.8125 443.375 C231.03875 443.230625 229.265 443.08625 227.4375 442.9375 C227.4375 449.8675 227.4375 456.7975 227.4375 463.9375 C232.47840964 463.81947405 232.47840964 463.81947405 237.51831055 463.66723633 C242.05367113 463.61390613 244.8427321 464.15138499 248.4375 466.9375 C250.38413632 469.5035206 250.44520736 470.74866974 250.3125 474 C249.4375 476.9375 249.4375 476.9375 247.9609375 478.609375 C244.11356679 480.63430695 240.46105648 480.25520992 236.1875 480.125 C235.34703125 480.11146484 234.5065625 480.09792969 233.640625 480.08398438 C231.57264062 480.04873464 229.50498729 479.9949302 227.4375 479.9375 C227.4375 484.8875 227.4375 489.8375 227.4375 494.9375 C228.54262939 494.92178955 229.64775879 494.9060791 230.78637695 494.88989258 C234.88444741 494.83561443 238.98248607 494.80115776 243.08081055 494.77270508 C244.85495343 494.75761359 246.62905898 494.73713809 248.40307617 494.71118164 C250.95240487 494.67481359 253.50124059 494.65777762 256.05078125 494.64453125 C256.84462723 494.62904739 257.63847321 494.61356354 258.45637512 494.59761047 C263.90035826 494.59594471 263.90035826 494.59594471 266.43823242 496.2097168 C268.17207184 499.20761115 268.08697183 502.62009979 267.4375 505.9375 C266.50123882 508.03295135 266.50123882 508.03295135 264.4375 509.9375 C261.31065682 510.56571568 258.19896998 510.47628643 255.01924133 510.44543457 C254.04227002 510.45167453 253.0652987 510.4579145 252.0587222 510.46434355 C248.76978163 510.48035732 245.48157362 510.4676361 242.19262695 510.45507812 C239.84065822 510.46049568 237.48869288 510.46761626 235.13673401 510.47631836 C228.73566808 510.4946031 222.33485914 510.48746151 215.93378854 510.47480202 C209.91838886 510.46411566 203.90299381 510.47264278 197.8875927 510.4785108 C185.24104341 510.48992536 172.59460996 510.47679152 159.94807967 510.45530933 C149.10375601 510.43745814 138.25960373 510.44052434 127.4152832 510.45898438 C114.82219549 510.48041128 102.22920959 510.48880491 89.63610619 510.47653532 C88.29186548 510.47526115 86.94762476 510.47400366 85.60338402 510.47276306 C84.94200821 510.47214596 84.28063241 510.47152886 83.59921492 510.47089306 C78.94566101 510.46744405 74.29220727 510.47345509 69.63866615 510.48268127 C63.36693406 510.49424586 57.09552499 510.4862023 50.82382774 510.46310425 C48.52284659 510.45781936 46.22183821 510.45932713 43.92086792 510.46815491 C40.77710515 510.47910284 37.63437411 510.46535448 34.49067688 510.44543457 C33.58219838 510.45435746 32.67371988 510.46328034 31.73771173 510.47247362 C24.90528288 510.38863694 19.63520106 508.69690612 14.4140625 504.19140625 C13.96804687 503.63324219 13.52203125 503.07507813 13.0625 502.5 C12.60101563 501.94441406 12.13953125 501.38882812 11.6640625 500.81640625 C8.23912966 495.56993269 8.14055044 490.85976234 8.14697266 484.78295898 C8.14025543 483.86825836 8.13353821 482.95355774 8.12661743 482.01113892 C8.10761875 478.98523512 8.10371028 475.95955352 8.1015625 472.93359375 C8.09512878 470.81388765 8.08839999 468.69418242 8.08139038 466.57447815 C8.06940788 462.12165272 8.06570985 457.66890486 8.06689453 453.21606445 C8.06709615 447.56475068 8.03996257 441.91394875 8.00535011 436.26275539 C7.98287114 431.87581702 7.97906358 427.48899692 7.98011398 423.10200691 C7.97778296 421.02241337 7.96910394 418.94281527 7.95344925 416.86327934 C7.69887658 379.5043725 19.83817624 346.74754413 46.0625 319.8125 C63.37883622 302.59015215 89.47878823 286.84738403 114.4375 284.9375 C118.96689418 285.06784228 123.13257991 285.50252664 127.4375 286.9375 C127.7675 280.9975 128.0975 275.0575 128.4375 268.9375 C126.5615918 268.95321045 124.68568359 268.9689209 122.75292969 268.98510742 C116.51050235 269.03375228 110.26812031 269.06807564 104.02555466 269.09293652 C100.24576854 269.10850124 96.46619009 269.12956809 92.68652344 269.16381836 C89.02955372 269.19674421 85.37278202 269.21442187 81.71567535 269.22213173 C80.3300185 269.22761635 78.94437079 269.23832379 77.55879974 269.25469017 C57.73793323 269.47920954 41.10054767 263.33913452 26.89208984 249.47167969 C16.06127905 238.04824648 8.29480881 222.07222152 8.25 206.1875 C8.29679673 204.7702277 8.35294451 203.35302148 8.4375 201.9375 C7.73367187 201.97230469 7.02984375 202.00710937 6.3046875 202.04296875 C-9.07987516 202.46473874 -22.98242018 198.7770771 -34.875 188.75 C-39.79675219 184.06563135 -43.24650392 178.83260413 -46.5625 172.9375 C-47.201875 171.885625 -47.84125 170.83375 -48.5 169.75 C-49.99740796 165.78627305 -50.04098444 163.17550505 -49.5625 158.9375 C-48 156.4375 -48 156.4375 -45.5625 154.9375 C-41.37528106 154.25231872 -39.41754135 154.32675618 -35.9375 156.8125 C-33.34673619 160.22139975 -31.64315161 163.66903128 -29.79296875 167.51171875 C-25.31219996 176.34523437 -17.43331252 180.38917499 -8.5625 183.9375 C-2.9525 184.5975 2.6575 185.2575 8.4375 185.9375 C8.4375 161.1875 8.4375 136.4375 8.4375 110.9375 C-12.25913742 113.31667319 -12.25913742 113.31667319 -27.73046875 125.69921875 C-29.1151585 127.62870447 -30.47410804 129.57704784 -31.80078125 131.546875 C-33.5625 133.9375 -33.5625 133.9375 -36.5625 135.9375 C-39.89716685 135.75885713 -42.5485269 135.49354977 -45.5 133.875 C-47.34706571 130.50682136 -47.38326771 127.58003114 -46.5625 123.9375 C-41.76847614 113.66245821 -33.68496978 105.89544438 -23.5625 100.9375 C-22.9025 100.9375 -22.2425 100.9375 -21.5625 100.9375 C-21.8925 86.7475 -22.2225 72.5575 -22.5625 57.9375 C-25.8625 56.2875 -29.1625 54.6375 -32.5625 52.9375 C-39.44479763 47.05424558 -43.97943521 40.45635557 -44.80078125 31.2734375 C-45.06358598 20.78891189 -42.60992784 13.2970932 -35.35546875 5.625 C-26.24507049 -2.94949248 -11.46683228 -5.35471123 0 0 Z M111.625 22 C109.31574492 24.78111837 109.31574492 24.78111837 108.4375 27.9375 C151.6675 27.9375 194.8975 27.9375 239.4375 27.9375 C238.16083684 22.83084734 235.9144099 19.55309761 231.5390625 16.69921875 C224.74795346 13.12152721 218.17933059 12.78799503 210.63745117 12.79223633 C209.7732103 12.78887772 208.90896942 12.7855191 208.01853943 12.78205872 C205.17250109 12.77259023 202.32652185 12.77060763 199.48046875 12.76953125 C197.49278235 12.76631569 195.50509619 12.7629514 193.51741028 12.75944519 C189.35396781 12.75346409 185.19054607 12.75160423 181.02709961 12.75219727 C175.70782393 12.7522988 170.38868199 12.73865097 165.06943798 12.72142506 C160.96433407 12.71027355 156.85926217 12.70827903 152.75414467 12.70880699 C150.79386243 12.70763146 148.83357924 12.70323378 146.873312 12.69547462 C144.12402517 12.68561152 141.37502445 12.68857764 138.62573242 12.69458008 C137.42605835 12.68615082 137.42605835 12.68615082 136.20214844 12.67755127 C126.44321847 12.73134243 118.29003298 14.34755473 111.625 22 Z M-25.5 18.5625 C-28.06074765 22.75281434 -28.85255207 26.05056208 -28.5625 30.9375 C-26.87394423 36.10249412 -24.06964471 38.96108368 -19.5625 41.9375 C-15.15465794 43.50716632 -11.59622025 43.27679253 -7.3125 41.4375 C-3.25031774 39.10254484 -1.00964428 36.39651333 0.4375 31.9375 C1.22890938 27.67543072 0.77476382 24.58704514 -1.25 20.6875 C-4.32171471 17.03465008 -6.79314804 14.52728399 -11.375 13 C-17.23213721 12.88515417 -21.15775239 14.68219362 -25.5 18.5625 Z M349.5625 20.0625 C347.8690867 24.39011177 347.79755791 28.35492616 348.4375 32.9375 C350.6020209 37.80767203 353.52169053 40.19570139 358.2890625 42.3046875 C361.92161619 43.37463968 364.87890731 43.19737443 368.4375 41.9375 C373.420173 38.74106827 375.7726271 35.61765461 377.4375 29.9375 C377.34185321 24.48563306 375.8769334 21.14125193 372.4375 16.9375 C368.60036804 13.55179533 364.80348538 13.42458828 359.875 13.5859375 C355.21223854 14.25845117 352.58559708 16.63632331 349.5625 20.0625 Z M34.4375 63.9375 C26.51911121 74.52481001 23.82254972 86.47433888 23.91992188 99.49804688 C23.9129126 100.67875259 23.90590332 101.85945831 23.89868164 103.07594299 C23.88123437 106.93629242 23.89267787 110.79589455 23.90625 114.65625 C23.9053561 117.36422304 23.89967045 120.07218328 23.89465332 122.78015137 C23.88741043 128.4386386 23.89687553 134.09691586 23.91601562 139.75537109 C23.93777811 146.26355747 23.93072433 152.77124231 23.90871 159.27941656 C23.89045936 164.90365765 23.88804446 170.52774925 23.89846468 176.15201044 C23.90464708 179.49522857 23.90407277 182.8380261 23.89231873 186.18125916 C23.88207428 189.91349404 23.89776582 193.6447877 23.91992188 197.37695312 C23.91182495 198.45993179 23.90372803 199.54291046 23.89538574 200.65870667 C24.04364318 214.25014064 28.74706497 227.20609533 37.8515625 237.44140625 C54.39645106 253.0490228 73.35705494 254.24746366 94.8828125 254.19628906 C96.81435274 254.19900431 98.74589193 254.20256823 100.6774292 254.20690918 C105.88813603 254.21597191 111.09876303 254.21251431 116.30947113 254.20615101 C121.78330182 254.20105918 127.25712605 254.20579126 132.73095703 254.20892334 C141.92025977 254.21255375 151.10953028 254.20778822 160.29882812 254.19824219 C170.89673763 254.18735944 181.49457016 254.19088567 192.0924778 254.201895 C201.21983813 254.21099429 210.3471754 254.21224026 219.4745388 254.20701766 C224.91356034 254.20391246 230.35254578 254.20344852 235.79156494 254.21009064 C240.90688906 254.21590201 246.02211471 254.21179831 251.13742828 254.20030212 C253.00576871 254.19767572 254.87411754 254.19838573 256.74245453 254.20282745 C277.27623011 254.24711318 294.26771473 252.38294708 309.78125 237.72265625 C321.28991541 225.88791199 324.74952735 212.19437063 324.7121582 196.18237305 C324.71726913 195.03965942 324.72238007 193.8969458 324.72764587 192.71960449 C324.74148302 188.96275514 324.74058936 185.20609047 324.73828125 181.44921875 C324.74217165 178.82281934 324.74650702 176.19642056 324.75126648 173.57002258 C324.75945823 168.07181172 324.75858604 162.57365229 324.75317383 157.07543945 C324.74714048 150.7480368 324.7594365 144.42085688 324.7807439 138.09349221 C324.80058249 131.97404988 324.80352192 125.85471058 324.80000877 119.73523903 C324.80052005 117.14665009 324.80572125 114.55805744 324.81582069 111.96948814 C324.82824422 108.33975764 324.82135735 104.71053377 324.80981445 101.08081055 C324.81745819 100.02535538 324.82510193 98.96990021 324.83297729 97.88246155 C324.72391918 82.26029726 319.60463932 69.5550548 308.8515625 58.2265625 C298.6364065 48.54034661 286.91375111 43.78715223 272.91969299 43.79032898 C271.61750467 43.78481395 271.61750467 43.78481395 270.28900951 43.7791875 C267.37438904 43.76815761 264.45980423 43.76430794 261.54516602 43.76049805 C259.45732002 43.7542327 257.36947513 43.74758584 255.28163147 43.74058533 C248.41823096 43.71954499 241.55483023 43.70918062 234.69140625 43.69921875 C232.32668483 43.69517071 229.96196353 43.69105377 227.59724236 43.68686867 C216.48335407 43.66781438 205.36947243 43.65358576 194.25557095 43.6452567 C181.44003811 43.6354933 168.62467841 43.60919808 155.80920655 43.56875581 C145.89647674 43.53855128 135.98379642 43.52378357 126.0710215 43.52047569 C120.15448859 43.5181295 114.23814059 43.50922546 108.32165718 43.48401451 C102.74922679 43.46065405 97.17710199 43.45653266 91.60463524 43.46677589 C89.5669719 43.46726948 87.52929312 43.4610017 85.49167633 43.44721985 C64.767894 43.31497228 48.43648766 47.34104393 34.4375 63.9375 Z M340.4375 110.9375 C340.4375 135.6875 340.4375 160.4375 340.4375 185.9375 C352.92546621 185.9375 363.16057386 184.74341223 372.4375 175.9375 C373.05238281 175.36257812 373.66726563 174.78765625 374.30078125 174.1953125 C381.18730988 167.08758916 384.675295 158.75685553 385 148.875 C384.54649122 137.75790652 380.53434676 129.12041989 372.77734375 121.25390625 C363.1825926 112.48968026 353.15983058 110.9375 340.4375 110.9375 Z M144.4375 268.9375 C144.4375 277.8475 144.4375 286.7575 144.4375 295.9375 C165.0908544 299.22015236 183.842961 300.0564078 204.4375 295.9375 C204.4375 287.0275 204.4375 278.1175 204.4375 268.9375 C184.6375 268.9375 164.8375 268.9375 144.4375 268.9375 Z M141.4375 348.9375 C140.81956835 352.64508991 140.93552751 354.2310202 143.125 357.3125 C145.32325314 359.08942257 145.32325314 359.08942257 147.9375 359.4375 C151.30763879 358.76347224 152.45427007 357.7287125 154.4375 354.9375 C155.05543165 351.22991009 154.93947249 349.6439798 152.75 346.5625 C150.55174686 344.78557743 150.55174686 344.78557743 147.9375 344.4375 C144.56736121 345.11152776 143.42072993 346.1462875 141.4375 348.9375 Z M195.4375 368.9375 C193.62569481 371.32578866 193.40586743 372.50518821 193.625 375.5 C194.54361408 378.25584223 194.977864 379.37973053 197.4375 380.9375 C200.9375 381.52083333 200.9375 381.52083333 204.4375 380.9375 C206.62297684 379.49601025 206.62297684 379.49601025 207.4375 376.9375 C207.60335191 373.34844915 207.60335191 373.34844915 206.4375 369.9375 C202.00392487 366.50147928 200.37143687 366.53070153 195.4375 368.9375 Z M142.4375 427.9375 C138.77035804 433.03075273 137.31042429 436.35559982 137.32397461 442.60229492 C137.32409546 443.77949097 137.32421631 444.95668701 137.32434082 446.16955566 C137.32945679 447.40653198 137.33457275 448.6435083 137.33984375 449.91796875 C137.34085083 451.05512329 137.34185791 452.19227783 137.34289551 453.3638916 C137.3481332 457.61760464 137.36209444 461.87130332 137.375 466.125 C137.395625 475.633125 137.41625 485.14125 137.4375 494.9375 C161.8575 494.9375 186.2775 494.9375 211.4375 494.9375 C211.499375 485.6975 211.56125 476.4575 211.625 466.9375 C211.65231201 464.03453125 211.67962402 461.1315625 211.70776367 458.140625 C211.71653089 455.82292089 211.72417427 453.50521214 211.73046875 451.1875 C211.74581665 449.99769531 211.76116455 448.80789063 211.77697754 447.58203125 C211.77937439 439.9376877 211.47283128 433.57989754 206.38671875 427.4765625 C205.26716797 426.52910156 205.26716797 426.52910156 204.125 425.5625 C203.38636719 424.91539062 202.64773438 424.26828125 201.88671875 423.6015625 C196.4651998 419.91804245 191.15006308 419.62927624 184.8203125 419.63671875 C183.59633255 419.63029106 183.59633255 419.63029106 182.34762573 419.62373352 C180.6280815 419.61801273 178.90851308 419.61747329 177.18896484 419.62182617 C174.57737322 419.62498203 171.96692029 419.60151383 169.35546875 419.57617188 C167.67708475 419.57389802 165.99869773 419.57319579 164.3203125 419.57421875 C163.5492215 419.565009 162.77813049 419.55579926 161.9836731 419.54631042 C154.00445718 419.61339958 147.72244089 421.62493171 142.4375 427.9375 Z M282.0625 444.5625 C280.23862622 446.88594013 280.23862622 446.88594013 279.875 449.9375 C280.20253002 453.08377033 280.20253002 453.08377033 282.5625 455.375 C285.34975693 457.18620485 285.34975693 457.18620485 288.5625 456.9375 C291.45939293 456.1300204 291.45939293 456.1300204 293.375 454.25 C294.83859489 451.06452876 294.42678968 449.25868677 293.4375 445.9375 C292.37404948 443.95720318 292.37404948 443.95720318 290.4375 442.9375 C286.80718224 442.39681438 285.11535921 442.47370159 282.0625 444.5625 Z M56.6875 452 C54.06378609 454.80870594 54.06378609 454.80870594 54.4375 458.625 C55.13133331 462.19289113 55.13133331 462.19289113 58.4375 463.9375 C61.39496492 464.52095476 61.39496492 464.52095476 64.4375 463.9375 C67.02871904 461.9276643 67.02871904 461.9276643 68.4375 458.9375 C68.69079784 455.79039698 68.69079784 455.79039698 67.4375 452.9375 C63.42644637 449.77087871 60.97191263 448.78669053 56.6875 452 Z " fill="#000000" transform="translate(80.5625,2.0625)"/>
<path d="M0 0 C2.42505549 -0.00270166 4.85010992 -0.00658965 7.27516174 -0.01159668 C12.33401907 -0.01746109 17.39259201 -0.00902851 22.45141602 0.00976562 C28.89079435 0.03254045 35.32950504 0.01942097 41.76885891 -0.00452423 C46.76989137 -0.0190756 51.77076924 -0.01433342 56.77180672 -0.00401306 C59.14413599 -0.00137088 61.51647994 -0.00452567 63.88879204 -0.01393127 C80.63984261 -0.06578608 97.06806096 0.31380837 111.94140625 8.96875 C112.62525391 9.33806641 113.30910156 9.70738281 114.01367188 10.08789062 C124.4147555 15.8529485 124.4147555 15.8529485 126.75390625 20.53125 C127.10910528 24.36739957 127.30115219 26.67754634 125.19140625 29.96875 C121.82848079 32.12447145 119.70645659 31.87890888 115.75390625 31.53125 C112.68359375 29.95703125 112.68359375 29.95703125 109.62890625 27.84375 C100.80913336 22.00401481 90.87930411 17.43198869 80.13328552 17.39080811 C79.23502548 17.38509796 78.33676544 17.37938782 77.4112854 17.37350464 C76.43823456 17.37238678 75.46518372 17.37126892 74.46264648 17.37011719 C73.42780624 17.36515228 72.392966 17.36018738 71.32676697 17.35507202 C67.90533784 17.34047624 64.48395514 17.33365145 61.0625 17.328125 C58.67700703 17.32236992 56.29151407 17.31661223 53.90602112 17.31085205 C48.90178207 17.30034836 43.89755906 17.29450205 38.89331055 17.29101562 C32.50370532 17.28554273 26.11431446 17.2615376 19.72477627 17.23304367 C14.79431048 17.21434868 9.86389552 17.20920796 4.93339729 17.20767975 C2.57925308 17.20466644 0.22510949 17.19668298 -2.12899971 17.18349457 C-23.09239611 17.07446752 -39.09913516 18.81957662 -55.24609375 33.53125 C-55.90609375 33.53125 -56.56609375 33.53125 -57.24609375 33.53125 C-57.519375 34.12035156 -57.79265625 34.70945313 -58.07421875 35.31640625 C-59.20965326 37.46237748 -60.45182026 39.1048285 -61.99609375 40.96875 C-72.48336638 54.74614738 -75.07751646 70.69584872 -72.8515625 87.51171875 C-68.80779894 104.75641368 -58.95865093 118.0375539 -44.24609375 127.53125 C-34.13493101 132.6866947 -24.69716613 134.83218913 -13.4465332 134.82177734 C-12.39335403 134.82849457 -11.34017487 134.83521179 -10.25508118 134.84213257 C-6.78979714 134.86105545 -3.32470743 134.86503414 0.140625 134.8671875 C2.5642759 134.87362016 4.98792602 134.88034887 7.41157532 134.88735962 C12.48786213 134.8993187 17.56408096 134.90304192 22.64038086 134.90185547 C29.1184481 134.90165254 35.59607536 134.92893415 42.07403851 134.96339989 C47.0800422 134.98573102 52.08594113 134.98969107 57.09198952 134.98863602 C59.47880377 134.9909834 61.86562129 134.99975783 64.25238609 135.01530075 C81.90660377 135.24244121 81.90660377 135.24244121 98.75390625 130.53125 C100.09511787 129.99520645 100.09511787 129.99520645 101.46342468 129.44833374 C114.73332171 123.92386404 124.89839857 111.35798415 130.56640625 98.53125 C135.67345328 85.34364499 135.87753337 73.16280412 132.44140625 59.484375 C131.51864371 55.52069045 131.16608535 52.57251871 131.75390625 48.53125 C134.32763009 45.50333959 135.90637219 44.66962291 139.81640625 44.03125 C143.51231609 44.66034104 144.38665693 45.66687832 146.75390625 48.53125 C147.984375 51.51953125 147.984375 51.51953125 148.94140625 54.84375 C149.26496094 55.93300781 149.58851563 57.02226562 149.921875 58.14453125 C154.83488421 78.14255467 150.99433032 97.88934625 141.00390625 115.65625 C129.74293524 133.62772291 112.92758287 144.99606889 92.75390625 150.53125 C87.15496174 151.73957663 81.63749039 151.69310007 75.93774414 151.70825195 C74.8588089 151.71482315 73.77987366 151.72139435 72.66824341 151.72816467 C69.10434897 151.74784168 65.54049665 151.7595502 61.9765625 151.76953125 C60.14288022 151.77564454 60.14288022 151.77564454 58.27215385 151.78188133 C51.79691616 151.802722 45.3216995 151.81703029 38.84643555 151.82641602 C32.18919173 151.83644619 25.53225295 151.87182873 18.87511539 151.91158772 C13.7300712 151.93785479 8.58510587 151.94611699 3.44000053 151.94969749 C0.9878456 151.95454031 -1.46430637 151.96608766 -3.91639519 151.98473549 C-20.09565226 152.1000925 -34.71917042 151.60763215 -49.37109375 143.96875 C-50.02795166 143.63069336 -50.68480957 143.29263672 -51.36157227 142.94433594 C-68.6116599 133.65149975 -81.01575416 117.89537256 -87.30859375 99.41015625 C-93.14082229 78.74500032 -91.2471462 57.55462845 -81.109375 38.625 C-78.48794863 34.27244301 -75.5357912 30.39201962 -72.24609375 26.53125 C-71.52421875 25.54125 -70.80234375 24.55125 -70.05859375 23.53125 C-52.10995117 2.4940423 -25.60530754 -0.10141788 0 0 Z " fill="#000000" transform="translate(224.24609375,74.46875)"/>
<path d="M0 0 C2.81513401 1.06349507 4.50668269 2.14581289 6.03027344 4.78393555 C7.1585931 7.34632583 8.15053199 9.93759343 9.125 12.5625 C9.52388428 13.59576416 9.92276855 14.62902832 10.33374023 15.69360352 C11.29872528 18.20471636 12.25587924 20.71776286 13.20361328 23.23535156 C15.39900549 29.06689665 17.62107835 34.88825489 19.83984375 40.7109375 C22.45399136 47.574431 25.06477803 54.4391453 27.66259766 61.30883789 C28.07256485 62.39238556 28.48253204 63.47593323 28.90492249 64.59231567 C29.68597514 66.6575433 30.46615001 68.72310316 31.24534607 70.78903198 C31.76790733 72.17047897 31.76790733 72.17047897 32.30102539 73.57983398 C32.60617569 74.38823227 32.91132599 75.19663055 33.22572327 76.02952576 C33.97849313 78.03125661 33.97849313 78.03125661 35 80 C35.53507099 84.0130324 35.33051628 85.53928033 32.9375 88.875 C30 91 30 91 26.4375 91.625 C23 91 23 91 20.8125 89.125 C17.95087333 84.19116092 15 78.790629 15 73 C3.12 73 -8.76 73 -21 73 C-21.99 76.3 -22.98 79.6 -24 83 C-26.4 88.6 -26.4 88.6 -30 91 C-33.83693587 91.41857482 -36.11203064 91.54644269 -39.4375 89.5 C-41.61366074 86.01814281 -41.48548661 82.95833757 -41 79 C-39.98964582 75.36431462 -38.61047605 71.90918606 -37.1953125 68.4140625 C-36.80029541 67.40682632 -36.40527832 66.39959015 -35.99829102 65.36183167 C-34.72010265 62.11095112 -33.42316107 58.86795048 -32.125 55.625 C-31.24474237 53.40191885 -30.36567488 51.17836608 -29.48779297 48.9543457 C-28.18680239 45.65917808 -26.88477842 42.36446593 -25.57717896 39.07191467 C-23.21360662 33.1143542 -20.89987185 27.14423561 -18.6875 21.12890625 C-18.24003418 19.92089355 -17.79256836 18.71288086 -17.33154297 17.46826172 C-16.55360253 15.35293116 -15.7861797 13.23368833 -15.03173828 11.10986328 C-12.13277298 3.31154984 -9.07030687 -1.13378836 0 0 Z M-4 28 C-5.67482275 32.26767998 -7.33845499 36.53963493 -9 40.8125 C-9.47695312 42.02744141 -9.95390625 43.24238281 -10.4453125 44.49414062 C-10.89648438 45.65751953 -11.34765625 46.82089844 -11.8125 48.01953125 C-12.23144531 49.09307861 -12.65039062 50.16662598 -13.08203125 51.27270508 C-14.15950035 53.9942708 -14.15950035 53.9942708 -14 57 C-6.74 57 0.52 57 8 57 C6.00194445 50.33981482 3.95012382 43.89467305 1.4375 37.4375 C1.13392578 36.63248047 0.83035156 35.82746094 0.51757812 34.99804688 C0.22173828 34.23427734 -0.07410156 33.47050781 -0.37890625 32.68359375 C-0.6426001 31.99837646 -0.90629395 31.31315918 -1.17797852 30.60717773 C-1.90060099 28.80275422 -1.90060099 28.80275422 -4 28 Z " fill="#000000" transform="translate(243,105)"/>
<path d="M0 0 C4.09263201 0.85263167 5.41084448 2.37067019 8 5.625 C8.49046231 8.46905952 8.67643841 10.7122342 8.63110352 13.54882812 C8.63825882 14.33156601 8.64541412 15.11430389 8.65278625 15.92076111 C8.66965083 18.49985696 8.65028534 21.07720896 8.62890625 23.65625 C8.62973516 25.45316715 8.63219539 27.25008422 8.63621521 29.04699707 C8.63907166 32.8097216 8.62438721 36.57185037 8.59692383 40.33447266 C8.56284108 45.1533659 8.56886057 49.97119401 8.5875864 54.79013824 C8.59816383 58.49970347 8.58921186 62.20902159 8.57420158 65.91856384 C8.56902475 67.69513719 8.56949552 69.47173639 8.57574654 71.24830627 C8.58120785 73.73315762 8.56079604 76.21649333 8.53344727 78.70117188 C8.53997314 79.43275009 8.54649902 80.16432831 8.55322266 80.91807556 C8.4631108 85.74214434 7.44940897 88.25045291 4 91.625 C2 92.2890625 2 92.2890625 0 92.25 C-0.66 92.26289063 -1.32 92.27578125 -2 92.2890625 C-5.17634632 91.23441626 -6.20465943 89.40383378 -8 86.625 C-8.39213301 83.84955072 -8.5581638 81.47199857 -8.53344727 78.70117188 C-8.54637062 77.52706505 -8.54637062 77.52706505 -8.55955505 76.32923889 C-8.58219678 73.75040307 -8.57548035 71.17265543 -8.56640625 68.59375 C-8.57164237 66.79683103 -8.5779188 64.99991482 -8.58518982 63.20300293 C-8.59559046 59.44037932 -8.59103705 55.67813399 -8.57641602 51.91552734 C-8.55922166 47.09653064 -8.58273272 42.27872552 -8.61790562 37.45986176 C-8.63987694 33.75030637 -8.63843895 30.04103629 -8.6301403 26.33143616 C-8.62932077 24.55484204 -8.63618467 22.77822699 -8.65091133 21.00169373 C-8.66835474 18.51666203 -8.65381935 16.03377399 -8.63110352 13.54882812 C-8.64279572 12.81724991 -8.65448792 12.08567169 -8.66653442 11.33192444 C-8.59417533 7.43665565 -8.10360636 5.75522365 -5.64805603 2.66882324 C-3 0.625 -3 0.625 0 0 Z " fill="#000000" transform="translate(300,104.375)"/>
</svg>
