<?xml version="1.0" encoding="UTF-8"?>
<svg version="1.1" xmlns="http://www.w3.org/2000/svg" width="512" height="512">
<path d="M0 0 C1.35398047 -0.00512655 1.35398047 -0.00512655 2.73531407 -0.01035666 C5.76040431 -0.01694608 8.78460757 0.0050583 11.80961609 0.0269165 C13.97781351 0.02804475 16.14601246 0.02741157 18.31420898 0.02514648 C24.20228845 0.02399753 30.09004283 0.04753657 35.97804666 0.07544231 C42.13064192 0.10042551 48.28324441 0.10279554 54.43588257 0.10754395 C66.08764127 0.11998275 77.73925009 0.15281674 89.39094275 0.1929419 C102.65559777 0.23763134 115.92025991 0.25963956 129.18497145 0.27972364 C156.47228965 0.32154847 183.75947475 0.39191824 211.04667664 0.48101807 C211.04667664 5.76101807 211.04667664 11.04101807 211.04667664 16.48101807 C209.95685077 16.48340642 208.8670249 16.48579477 207.744174 16.4882555 C181.25538876 16.546988 154.76669493 16.62283189 128.27801037 16.71673298 C115.46840422 16.76174413 102.65882621 16.80114646 89.84916687 16.82745361 C78.68736782 16.85039067 67.52565742 16.8837404 56.36392862 16.92971963 C50.45107306 16.95370986 44.53830561 16.97240056 38.62540245 16.97863197 C33.06453389 16.98465665 27.50389093 17.0045612 21.9431057 17.03529358 C19.8980465 17.04411595 17.85295787 17.04778777 15.8078804 17.04602623 C13.0235829 17.04438462 10.2399823 17.06097703 7.45578003 17.08229065 C6.63963751 17.07744307 5.823495 17.0725955 4.98262089 17.06760103 C0.93389843 17.04279336 0.93389843 17.04279336 -2.65927744 18.6657424 C-4.43852661 21.16165669 -4.33218644 22.85631919 -4.33808422 25.91018963 C-4.34754076 27.04478294 -4.3569973 28.17937625 -4.36674041 29.34835118 C-4.36189283 30.6002799 -4.35704525 31.85220863 -4.35205078 33.14207458 C-4.35748715 34.48110487 -4.36423742 35.82013035 -4.37219268 37.15914804 C-4.39027878 40.84653549 -4.38965356 44.5337222 -4.38606322 48.2211436 C-4.38544106 52.1945765 -4.40204347 56.16794104 -4.4165802 60.14134216 C-4.43940579 67.02812895 -4.45125812 73.91486502 -4.45570946 80.80168724 C-4.46216116 90.75892728 -4.48508123 100.7160755 -4.51205275 110.67327861 C-4.55536092 126.82719644 -4.58530463 142.98111041 -4.60688782 159.1350708 C-4.62788545 174.82942603 -4.6551499 190.52374969 -4.69087219 206.21807861 C-4.69307102 207.18507701 -4.69526984 208.15207541 -4.6975353 209.14837679 C-4.70860465 213.99940421 -4.71979751 218.85043134 -4.7310518 223.70145833 C-4.82429394 263.96128385 -4.89586545 304.2211266 -4.95332336 344.48101807 C-4.11179844 344.47733089 -3.27027351 344.47364372 -2.40324783 344.46984482 C18.06054967 344.38155774 38.5243144 344.31533962 58.98826218 344.27376938 C68.88443078 344.25313265 78.78047237 344.22499086 88.67655945 344.17926025 C97.30067982 344.13942646 105.9247082 344.11359334 114.54891801 344.10466409 C119.11660283 344.09944346 123.68402448 344.08715016 128.25162506 344.05809784 C132.54931797 344.03098329 136.84663886 344.02256499 141.14440918 344.02858734 C142.72305573 344.02748532 144.30171449 344.01950769 145.88028717 344.00419617 C148.0338454 343.98432909 150.18599434 343.98906537 152.33958435 344 C153.54528957 343.99631283 154.7509948 343.99262566 155.99323654 343.98882675 C159.04667664 344.48101807 159.04667664 344.48101807 163.04667664 348.48101807 C163.04667664 355.08101807 163.04667664 361.68101807 163.04667664 368.48101807 C200.00667664 368.48101807 236.96667664 368.48101807 275.04667664 368.48101807 C275.04667664 361.88101807 275.04667664 355.28101807 275.04667664 348.48101807 C279.04667664 344.48101807 279.04667664 344.48101807 282.10011673 343.98882675 C283.30582195 343.99251392 284.51152718 343.9962011 285.75376892 344 C286.42526978 343.99657593 287.09677063 343.99315186 287.78862 343.98962402 C290.04466785 343.98300566 292.29952651 344.00508906 294.5554657 344.0269165 C296.19797096 344.02814186 297.84047833 344.02760784 299.48298264 344.02545547 C303.88357395 344.02455203 308.28373064 344.04774313 312.68421936 344.07589722 C316.81270221 344.0986689 320.94107908 344.09974921 325.06962585 344.1026001 C337.14536707 344.12359349 349.22102733 344.17943809 361.29667664 344.23101807 C388.27417664 344.31351807 415.25167664 344.39601807 443.04667664 344.48101807 C443.04667664 278.48101807 443.04667664 212.48101807 443.04667664 144.48101807 C448.32667664 144.48101807 453.60667664 144.48101807 459.04667664 144.48101807 C459.04667664 210.48101807 459.04667664 276.48101807 459.04667664 344.48101807 C463.00667664 344.48101807 466.96667664 344.48101807 471.04667664 344.48101807 C475.54871553 348.98305696 475.54871553 348.98305696 475.61186218 353.9487915 C475.6341539 355.04382996 475.65644562 356.13886841 475.67941284 357.26708984 C475.68072708 358.44627991 475.68204132 359.62546997 475.68339539 360.84039307 C475.69433731 362.0587384 475.70527924 363.27708374 475.71655273 364.53234863 C475.73242347 367.11122405 475.73761276 369.69018396 475.73295593 372.269104 C475.73416805 376.2031593 475.79386771 380.13347255 475.85722351 384.06695557 C475.86536781 386.57475898 475.8700378 389.08257657 475.87089539 391.59039307 C475.90626656 393.34703278 475.90626656 393.34703278 475.94235229 395.13916016 C475.86555711 402.00894069 474.97757698 405.89100138 470.03723145 410.7935791 C469.38034836 411.35043396 468.72346527 411.90728882 468.04667664 412.48101807 C467.35003869 413.16526676 466.65340074 413.84951546 465.93565255 414.55449897 C462.21992219 417.03234084 459.1480248 417.0405967 454.83250713 416.99276257 C454.00520833 416.99947512 453.17790952 417.00618767 452.32554105 417.01310363 C449.54104468 417.03077137 446.75739128 417.01985457 443.97286987 417.00914001 C441.96134719 417.01589448 439.94982971 417.02438383 437.93832093 417.03446323 C432.40102201 417.05704299 426.86397257 417.05451776 421.32664192 417.04789388 C415.35852579 417.04502603 409.39048034 417.06505555 403.4223938 417.08204651 C391.72620539 417.11144327 380.03008344 417.11872666 368.33386513 417.117471 C358.82889225 417.11655792 349.32394602 417.12242959 339.81897926 417.13309669 C338.45393982 417.13459496 337.08890037 417.13608899 335.72386092 417.13757882 C335.04627055 417.13831864 334.36868017 417.13905847 333.67055675 417.13982072 C332.99173288 417.14056113 332.31290901 417.14130154 331.61351472 417.14206439 C330.93356293 417.14280943 330.25361114 417.14355447 329.55305475 417.14432209 C310.42491043 417.1650634 291.29677578 417.17728705 272.16862011 417.17222881 C271.44731613 417.17204128 270.72601215 417.17185375 269.98285048 417.17166053 C266.32691224 417.17068852 262.67097404 417.16964466 259.01503583 417.16857781 C258.28894255 417.16836683 257.56284927 417.16815586 256.81475317 417.16793848 C255.3464153 417.16751096 253.87807743 417.16707883 252.40973956 417.16664212 C229.56362209 417.16005962 206.7176983 417.18300178 183.87162781 417.2288208 C158.20910048 417.28025132 132.54669721 417.30819742 106.88411504 417.30231887 C104.14801714 417.30177426 101.41191923 417.3013153 98.6758213 417.30091286 C98.00211576 417.30079882 97.32841021 417.30068478 96.63428934 417.30056728 C86.46123453 417.29934325 76.28831766 417.3166358 66.11530113 417.34338951 C54.54553527 417.37380808 42.97604732 417.37931227 31.40626355 417.3535805 C25.50138035 417.34113405 19.59706668 417.34003346 13.69223022 417.3692894 C8.28780267 417.39577635 2.88440924 417.39002735 -2.51998218 417.35845945 C-4.47622286 417.35271715 -6.43254125 417.35882907 -8.38869724 417.37791546 C-24.83944284 417.52759723 -24.83944284 417.52759723 -30.01507092 413.06110859 C-31.03012413 411.89790524 -32.01608703 410.70778745 -32.95332336 409.48101807 C-34.17438782 408.41669556 -34.17438782 408.41669556 -35.42012024 407.33087158 C-38.0353811 402.46973463 -37.5215865 397.30751231 -37.48457336 391.88336182 C-37.48840027 390.65694473 -37.49222717 389.43052765 -37.49617004 388.16694641 C-37.49888939 385.57721128 -37.49152678 382.9874487 -37.47480774 380.39776611 C-37.4533824 376.4294531 -37.47462051 372.46294698 -37.50019836 368.49468994 C-37.49755545 365.9784099 -37.49243124 363.46213098 -37.48457336 360.94586182 C-37.49267029 359.75726059 -37.50076721 358.56865936 -37.5091095 357.34403992 C-37.49650085 356.23931839 -37.48389221 355.13459686 -37.47090149 353.99639893 C-37.46771912 353.02552841 -37.46453674 352.0546579 -37.46125793 351.05436707 C-36.78975159 347.65231438 -35.66412266 346.61252422 -32.95332336 344.48101807 C-29.93769836 344.09039307 -29.93769836 344.09039307 -26.70332336 344.23101807 C-25.62566711 344.26711182 -24.54801086 344.30320557 -23.43769836 344.34039307 C-22.61785461 344.38679932 -21.79801086 344.43320557 -20.95332336 344.48101807 C-20.95598141 343.7815539 -20.95863945 343.08208974 -20.96137804 342.36142969 C-21.11801031 300.9093628 -21.23812195 259.45733025 -21.31078067 218.00502697 C-21.31953566 213.0282735 -21.32859591 208.05152064 -21.33784485 203.07476807 C-21.33968102 202.08398245 -21.34151719 201.09319682 -21.34340901 200.0723874 C-21.37387172 184.02778005 -21.42906564 167.9833482 -21.49339294 151.93884498 C-21.55884404 135.47679665 -21.5977328 119.01484025 -21.61194283 102.55266714 C-21.62154974 92.39378301 -21.65189609 82.23539489 -21.70873863 72.07666343 C-21.74572868 65.11127326 -21.75692677 58.14613967 -21.74783301 51.1806584 C-21.74334743 47.16119816 -21.75024222 43.14260488 -21.78776169 39.12329865 C-21.82188112 35.44131182 -21.82351513 31.76077298 -21.79961563 28.07871884 C-21.79526716 26.12010521 -21.82541353 24.16150812 -21.85689253 22.20314264 C-21.78765386 16.37875216 -21.56508789 12.4295367 -17.71321201 7.88314056 C-16.48683719 6.72003919 -15.23562684 5.58215285 -13.95332336 4.48101807 C-13.16861066 3.66593906 -12.38389795 2.85086006 -11.57540607 2.0110817 C-7.73271182 -0.23124525 -4.37518927 -0.06058265 0 0 Z M-20.95332336 360.48101807 C-20.95332336 372.36101807 -20.95332336 384.24101807 -20.95332336 396.48101807 C-16.75841856 400.70629598 -16.75841856 400.70629598 -11.36029911 401.0127604 C-10.2418997 400.9987134 -10.2418997 400.9987134 -9.10090637 400.98438263 C-8.300577 400.99019639 -7.50024763 400.99601016 -6.67566586 401.00200009 C-3.97690105 401.01667142 -1.27903561 401.00268194 1.41972351 400.98895264 C3.36723549 400.99355874 5.31474399 400.99990969 7.26224518 401.00786161 C12.62712214 401.02461802 17.99171587 401.01627994 23.35659409 401.00391674 C29.13717861 400.99489433 34.91771324 401.00882198 40.69828796 401.01983643 C52.0276618 401.03765632 63.35692986 401.03376622 74.68630791 401.02218586 C83.89099371 401.01316545 93.09564979 401.0119215 102.30033875 401.01628113 C103.6086124 401.01689406 104.91688605 401.01750699 106.26480436 401.0181385 C108.92223931 401.01941735 111.57967425 401.0207142 114.23710918 401.02202886 C138.46540312 401.03352134 162.6936435 401.02160306 186.92192829 401.00065847 C209.04947953 400.98167539 231.1769387 400.98337387 253.30448914 401.00250244 C278.15282372 401.02391113 303.00110663 401.0323461 327.84944916 401.02005339 C330.49730427 401.01877914 333.1451594 401.01752166 335.79301453 401.01628113 C337.09593177 401.01566403 338.39884902 401.01504692 339.74124861 401.01441112 C348.93869224 401.01095223 358.13610328 401.01679815 367.33354187 401.02619934 C378.53669139 401.03739855 389.73972876 401.03442308 400.94286537 401.01307636 C406.66280416 401.00253797 412.38255573 400.99849155 418.10249329 401.01167297 C423.33320331 401.023545 428.5635516 401.01712037 433.79422855 400.99576277 C435.69187593 400.9912746 437.58955353 400.99361218 439.48718166 401.00326592 C442.05664894 401.0153402 444.62485925 401.0030473 447.19425964 400.98438263 C447.93985925 400.99374729 448.68545885 401.00311196 449.45365238 401.0127604 C454.65172295 400.93671798 455.05182072 400.47587399 459.04667664 396.48101807 C459.04667664 384.60101807 459.04667664 372.72101807 459.04667664 360.48101807 C403.60667664 360.48101807 348.16667664 360.48101807 291.04667664 360.48101807 C290.71667664 365.10101807 290.38667664 369.72101807 290.04667664 374.48101807 C287.83500209 379.1413323 285.57394938 381.15781868 281.04667664 383.48101807 C278.51164341 383.8613348 278.51164341 383.8613348 275.77825928 383.86869812 C274.73670181 383.87860275 273.69514435 383.88850739 272.62202454 383.89871216 C271.48993561 383.89421051 270.35784668 383.88970886 269.19145203 383.8850708 C267.9909169 383.89193405 266.79038177 383.8987973 265.5534668 383.90586853 C262.26822878 383.92101802 258.98334703 383.92263479 255.69808888 383.91692615 C252.95209635 383.91383175 250.20615498 383.91992954 247.46016973 383.92596489 C240.98025424 383.94000317 234.5004706 383.93845481 228.02055359 383.92706299 C221.34313944 383.91558313 214.66612699 383.92965641 207.98876578 383.95645946 C202.24846259 383.97863553 196.50828533 383.98524956 190.76794237 383.97938305 C187.34270541 383.97601668 183.9177259 383.97840679 180.4925251 383.99563408 C176.67181083 384.01050107 172.85198222 383.99989691 169.03129578 383.98272705 C167.90123108 383.99239502 166.77116638 384.00206299 165.6068573 384.01202393 C159.62768627 383.95572245 155.62183229 383.76100609 151.04667664 379.48101807 C148.04667664 374.48101807 148.04667664 374.48101807 147.04667664 360.48101807 C91.60667664 360.48101807 36.16667664 360.48101807 -20.95332336 360.48101807 Z " fill="#000000" transform="translate(36.95332336425781,63.51898193359375)"/>
<path d="M0 0 C0.74833308 -0.0034177 1.49666616 -0.0068354 2.267676 -0.01035666 C4.76458987 -0.01692311 7.26041855 0.00501892 9.75723267 0.0269165 C11.55119807 0.02804525 13.34516531 0.02741058 15.13912964 0.02514648 C20.0024179 0.02399948 24.86531103 0.04750662 29.72850752 0.07544231 C34.81338971 0.10045822 39.8982811 0.10279812 44.98321533 0.10754395 C54.60916273 0.11997315 64.23492827 0.15279408 73.86079562 0.1929419 C84.82079729 0.23766128 95.78080767 0.25964709 106.74087787 0.27972364 C129.28370582 0.3215267 151.82635958 0.39268409 174.36904907 0.48101807 C174.36904907 5.76101807 174.36904907 11.04101807 174.36904907 16.48101807 C116.28904907 16.48101807 58.20904907 16.48101807 -1.63095093 16.48101807 C-1.63095093 103.60101807 -1.63095093 190.72101807 -1.63095093 280.48101807 C125.08904907 280.48101807 251.80904907 280.48101807 382.36904907 280.48101807 C382.36904907 251.44101807 382.36904907 222.40101807 382.36904907 192.48101807 C387.64904907 192.48101807 392.92904907 192.48101807 398.36904907 192.48101807 C398.46175842 204.63340598 398.53281907 216.78570966 398.57629776 228.93837929 C398.59716613 234.58146284 398.62547055 240.22430431 398.67080688 245.86724854 C398.71429068 251.31373853 398.73819182 256.75999577 398.74855804 262.20664597 C398.75594481 264.2838749 398.77036945 266.36109121 398.7919693 268.43822098 C398.82103656 271.34941312 398.82500363 274.25964539 398.82315063 277.17095947 C398.84472229 278.45705612 398.84472229 278.45705612 398.86672974 279.76913452 C398.8297233 285.1476739 398.05225563 288.29318721 394.36904907 292.48101807 C389.9407925 295.96371085 387.07432308 296.98133941 381.46304321 296.98438263 C380.78932175 296.99019639 380.11560028 296.99601016 379.42146301 297.00200009 C377.16534457 297.01659078 374.91031571 297.00272038 372.65420532 296.98895264 C371.01987655 296.99356195 369.38555192 296.99991507 367.75123596 297.00786161 C363.26123975 297.02457399 358.7715832 297.01629994 354.28158569 297.00391674 C349.43897184 296.99487638 344.5964169 297.00883094 339.7538147 297.01983643 C330.26756624 297.03763706 320.78144426 297.03377478 311.29519081 297.02218586 C303.58656398 297.0131579 295.87797264 297.01192478 288.16934204 297.01628113 C286.52459538 297.01720053 286.52459538 297.01720053 284.84662151 297.0181385 C282.61921309 297.01941738 280.39180468 297.02071423 278.16439629 297.02202886 C257.27052446 297.03343919 236.37672279 297.02031385 215.48286247 296.9988274 C197.5490562 296.98095602 179.61535348 296.98406 161.68154907 297.00250244 C140.86321812 297.02390115 120.04494869 297.03234051 99.22660828 297.02005339 C97.00732423 297.01877917 94.78804017 297.01752169 92.5687561 297.01628113 C91.47678264 297.01566403 90.38480917 297.01504692 89.2597456 297.01441112 C81.55902316 297.01095523 73.85833969 297.01679173 66.15762329 297.02619934 C56.77494605 297.03740959 47.3924027 297.03439977 38.00974083 297.01307636 C33.22115077 297.00255286 28.43278404 296.99846628 23.64419556 297.01167297 C19.26216292 297.02357576 14.88056104 297.01706936 10.49856758 296.99576277 C8.91184478 296.99128772 7.32508572 296.9935832 5.73838615 297.00326592 C3.58342316 297.01540954 1.4299404 297.00297784 -0.72494507 296.98438263 C-1.92236832 296.98373322 -3.11979156 296.98308381 -4.35350037 296.98241472 C-9.46391041 296.20060506 -12.53968368 293.66975624 -15.97420502 289.9284668 C-18.33307909 285.01999086 -18.18451411 280.70310689 -18.1388855 275.32183838 C-18.14512546 274.19388477 -18.15136542 273.06593117 -18.15779448 271.90379715 C-18.17375653 268.12203352 -18.16110692 264.34091155 -18.14852905 260.55914307 C-18.15174818 257.84880238 -18.16092574 255.138489 -18.16976929 252.42816162 C-18.18755094 245.82951151 -18.18371617 239.23104344 -18.17211872 232.63238621 C-18.16308326 227.2692929 -18.16186088 221.90625059 -18.16621399 216.54315186 C-18.16682692 215.77969743 -18.16743985 215.016243 -18.16807136 214.2296536 C-18.16935027 212.67868517 -18.17064712 211.12771676 -18.17196172 209.57674837 C-18.18336648 195.03507944 -18.17025548 180.49351139 -18.14876026 165.951859 C-18.13088935 153.47585108 -18.13399349 140.99999204 -18.1524353 128.52398682 C-18.17384388 114.03417383 -18.18226786 99.54444925 -18.16998625 85.05462265 C-18.16871206 83.50937654 -18.16745458 81.96413042 -18.16621399 80.41888428 C-18.16559689 79.65860404 -18.16497979 78.89832381 -18.16434398 78.11500478 C-18.16089104 72.75867544 -18.16671822 67.4024022 -18.1761322 62.04608154 C-18.18735344 55.51801115 -18.18430965 48.99013314 -18.16300923 42.46208477 C-18.15250007 39.13157912 -18.15052871 35.80165962 -18.16160583 32.47111511 C-18.17250872 28.86048773 -18.15885956 25.2507671 -18.1388855 21.64019775 C-18.14780838 20.58786579 -18.15673127 19.53553383 -18.16592455 18.45131302 C-18.10344016 12.64277282 -17.73036072 8.94658317 -13.63095093 4.48101807 C-9.1982776 0.73269814 -5.65570948 -0.09540911 0 0 Z " fill="#000000" transform="translate(65.63095092773438,95.51898193359375)"/>
<path d="M0 0 C1.67836406 0.87469601 3.34762424 1.76706019 5.0078125 2.67578125 C6.28785156 3.32836914 6.28785156 3.32836914 7.59375 3.99414062 C13.78005056 7.29774259 13.78005056 7.29774259 15.33398438 10.33959961 C16.11438679 12.92718697 16.62198534 15.36635362 16.984375 18.04296875 C17.11328125 18.98785156 17.2421875 19.93273437 17.375 20.90625 C17.50132812 21.88207031 17.62765625 22.85789062 17.7578125 23.86328125 C17.95890625 25.31541016 17.95890625 25.31541016 18.1640625 26.796875 C18.84557242 31.90819936 19.29078581 36.8326067 19.1328125 41.98828125 C19.9371875 42.07078125 20.7415625 42.15328125 21.5703125 42.23828125 C25.41495388 43.04767943 28.41663188 44.45228771 31.88671875 46.24609375 C34.75545111 47.1940227 36.23657278 46.80237693 39.1328125 45.98828125 C41.31151158 44.66120373 41.31151158 44.66120373 43.34765625 42.93359375 C44.50104492 42.01126953 44.50104492 42.01126953 45.67773438 41.0703125 C46.46728516 40.42449219 47.25683594 39.77867188 48.0703125 39.11328125 C60.49282854 29.02444541 60.49282854 29.02444541 65.4140625 28.95703125 C84.46002963 33.51733324 84.46002963 33.51733324 88.83984375 37.56640625 C90.85376415 41.33870429 92.10437716 45.29214736 93.3828125 49.36328125 C93.66382813 50.20117188 93.94484375 51.0390625 94.234375 51.90234375 C95.72015838 56.58035478 96.86633912 60.21949556 95.1328125 64.98828125 C93.22299458 68.00512082 91.05660839 70.77058713 88.8203125 73.55078125 C88.23830078 74.29263672 87.65628906 75.03449219 87.05664062 75.79882812 C84.65296946 78.85581874 82.22609504 81.87796974 79.71484375 84.84765625 C77.86659332 86.90486801 77.86659332 86.90486801 78.1328125 89.67578125 C79.27950038 93.47418485 80.72126042 97.07753248 82.29296875 100.71875 C83.1328125 102.98828125 83.1328125 102.98828125 83.1328125 105.98828125 C84.38771484 106.06175781 84.38771484 106.06175781 85.66796875 106.13671875 C92.17916765 106.55493529 98.654322 107.09279675 105.1328125 107.86328125 C106.9271875 108.07597656 106.9271875 108.07597656 108.7578125 108.29296875 C113.4116799 109.25175162 116.73698902 110.00355811 119.58642578 114.05517578 C121.08756493 116.69181175 122.40400625 119.36807381 123.6953125 122.11328125 C124.17033203 123.0259375 124.64535156 123.93859375 125.13476562 124.87890625 C127.32562783 129.44944196 128.72693929 132.70571999 127.15234375 137.671875 C126.51904602 139.12867039 125.84569188 140.56873139 125.1328125 141.98828125 C124.82448486 142.67277344 124.51615723 143.35726562 124.19848633 144.0625 C123.27711399 146.05330084 122.28362677 147.98703189 121.2578125 149.92578125 C120.93167969 150.58384766 120.60554687 151.24191406 120.26953125 151.91992188 C118.06736515 156.10575122 116.57919196 157.57829663 112.1328125 158.98828125 C110.37361314 159.33038012 108.60184093 159.61208641 106.82421875 159.83984375 C105.82970703 159.96875 104.83519531 160.09765625 103.81054688 160.23046875 C102.78251953 160.35679687 101.75449219 160.483125 100.6953125 160.61328125 C99.67115234 160.74734375 98.64699219 160.88140625 97.59179688 161.01953125 C92.74604947 161.63426684 88.02872296 162.17303259 83.1328125 161.98828125 C83.0503125 162.79265625 82.9678125 163.59703125 82.8828125 164.42578125 C82.07341432 168.27042263 80.66880604 171.27210063 78.875 174.7421875 C77.92707105 177.61091986 78.31871682 179.09204153 79.1328125 181.98828125 C80.45989002 184.16698033 80.45989002 184.16698033 82.1875 186.203125 C82.80238281 186.97205078 83.41726563 187.74097656 84.05078125 188.53320312 C84.69660156 189.32275391 85.34242188 190.11230469 86.0078125 190.92578125 C96.09664834 203.34829729 96.09664834 203.34829729 96.1640625 208.26953125 C91.60376051 227.31549838 91.60376051 227.31549838 87.5546875 231.6953125 C83.78238946 233.7092329 79.82894639 234.95984591 75.7578125 236.23828125 C74.91992188 236.51929688 74.08203125 236.8003125 73.21875 237.08984375 C68.54203961 238.57521403 64.93278479 239.63974025 60.1328125 237.98828125 C57.87562232 236.50992081 55.88621108 235.06664312 53.8203125 233.36328125 C52.97327759 232.69365356 52.97327759 232.69365356 52.10913086 232.01049805 C49.52902179 229.96554443 47.001204 227.87561344 44.5 225.734375 C40.36136691 222.07802288 40.36136691 222.07802288 35.1953125 220.80078125 C31.57727439 222.20369399 27.96535446 223.61048664 24.40234375 225.1484375 C22.1328125 225.98828125 22.1328125 225.98828125 19.1328125 225.98828125 C19.05933594 227.24318359 19.05933594 227.24318359 18.984375 228.5234375 C18.55935159 235.14061238 18.01133644 241.72068993 17.1953125 248.30078125 C17.04191406 249.55503906 16.88851562 250.80929687 16.73046875 252.1015625 C16.53324219 253.05417969 16.33601562 254.00679688 16.1328125 254.98828125 C12.99476128 256.55730686 9.86662662 255.54964571 6.5078125 255.05078125 C5.80140625 254.95087891 5.095 254.85097656 4.3671875 254.74804688 C2.62159643 254.50036166 0.87709166 254.24504254 -0.8671875 253.98828125 C-0.49289705 244.8633381 0.28353792 235.85124495 1.5078125 226.80078125 C1.62165283 225.90464111 1.73549316 225.00850098 1.8527832 224.08520508 C3.10106376 215.29394569 3.10106376 215.29394569 6.1328125 211.98828125 C8.72734247 210.66112014 11.41001964 209.82600401 14.1953125 208.98828125 C20.07592204 207.09434718 25.4372004 205.07184391 30.76171875 201.87109375 C34.29290328 200.55635289 37.46752994 200.25817212 41.1328125 200.98828125 C44.0970003 202.51403485 46.56918934 204.4952879 49.1328125 206.61328125 C50.1228125 207.39638672 50.1228125 207.39638672 51.1328125 208.1953125 C53.85207147 210.34628884 56.5582179 212.5089597 59.22070312 214.72998047 C63.21672015 218.02036864 63.21672015 218.02036864 68.1015625 219.35546875 C68.936875 219.19304687 69.7721875 219.030625 70.6328125 218.86328125 C72.1328125 218.57161458 73.6328125 218.27994792 75.1328125 217.98828125 C76.11907291 213.71208245 76.95486572 209.78409871 75.07714844 205.68212891 C73.49276276 203.44039172 71.8108818 201.37047462 70.0078125 199.30078125 C68.83772288 197.88088267 67.6684418 196.46031738 66.5 195.0390625 C64.87363624 193.07976056 63.24839132 191.12251477 61.58691406 189.19287109 C58.62556787 185.50320511 57.42612601 182.75886672 57.75146484 177.98339844 C58.4006581 174.58697891 59.84466135 171.63958117 61.4453125 168.61328125 C63.64762992 164.22452982 65.56175224 160.07341146 66.8203125 155.30078125 C67.88415542 151.50493937 68.6601315 149.18155346 72.1328125 146.98828125 C79.41427466 145.10296893 86.73085086 144.20750196 94.1953125 143.36328125 C95.34708984 143.22921875 96.49886719 143.09515625 97.68554688 142.95703125 C100.50084788 142.62994234 103.31656791 142.3071255 106.1328125 141.98828125 C108.34761143 135.89546274 107.6725915 132.12107623 106.1328125 125.98828125 C105.39232666 125.90787598 104.65184082 125.8274707 103.88891602 125.74462891 C100.49046311 125.37265366 97.09290599 124.99302303 93.6953125 124.61328125 C91.94831055 124.42378906 91.94831055 124.42378906 90.16601562 124.23046875 C72.5678199 122.24757346 72.5678199 122.24757346 69.21875 119.30859375 C67.77563229 116.22509764 66.75404264 113.11941602 65.7578125 109.86328125 C64.0345565 104.3524591 62.03176659 99.41022608 59.05078125 94.4296875 C57.68250538 90.79065593 57.24768526 87.75078222 58.1328125 83.98828125 C60.20285598 80.27241082 62.77693977 77.04128074 65.4453125 73.73828125 C66.13560547 72.85398437 66.82589844 71.9696875 67.53710938 71.05859375 C68.82114434 69.41602149 70.11300547 67.77951402 71.4152832 66.15136719 C71.98206787 65.43754883 72.54885254 64.72373047 73.1328125 63.98828125 C73.7 63.28896484 74.2671875 62.58964844 74.8515625 61.86914062 C76.60280829 59.29833317 76.25889835 57.76851078 75.8203125 54.73828125 C75.59114583 53.15494792 75.36197917 51.57161458 75.1328125 49.98828125 C70.8566137 49.00202084 66.92862996 48.16622803 62.82666016 50.04394531 C60.58492297 51.62833099 58.51500587 53.31021195 56.4453125 55.11328125 C55.02541392 56.28337087 53.60484863 57.45265195 52.18359375 58.62109375 C50.22429181 60.24745751 48.26704602 61.87270243 46.33740234 63.53417969 C42.64773636 66.49552588 39.90339797 67.69496774 35.12792969 67.36962891 C31.73151016 66.72043565 28.78411242 65.2764324 25.7578125 63.67578125 C21.36906107 61.47346383 17.21794271 59.55934151 12.4453125 58.30078125 C8.6615714 57.24660463 6.35629295 56.41614695 4.1328125 52.98828125 C2.0133472 45.93730415 1.29421352 38.7905764 0.5078125 31.48828125 C0.30671875 29.68230469 0.30671875 29.68230469 0.1015625 27.83984375 C-0.22621747 24.88982399 -0.5489977 21.93934817 -0.8671875 18.98828125 C-6.96000601 16.77348232 -10.73439252 17.44850225 -16.8671875 18.98828125 C-16.94759277 19.73400391 -17.02799805 20.47972656 -17.11083984 21.24804688 C-17.48223297 24.66210863 -17.86214111 28.07517236 -18.2421875 31.48828125 C-18.36851562 32.66132812 -18.49484375 33.834375 -18.625 35.04296875 C-20.41295093 50.95573199 -20.41295093 50.95573199 -23.546875 55.3359375 C-26.55989636 57.48157392 -29.44888813 58.37443267 -32.9921875 59.42578125 C-38.51967855 61.11683405 -43.4375962 63.08475055 -48.42578125 66.0703125 C-51.98487997 67.40853362 -55.16741055 67.73062167 -58.8671875 66.98828125 C-61.83108346 65.46194851 -64.30354602 63.48128973 -66.8671875 61.36328125 C-67.5271875 60.84121094 -68.1871875 60.31914063 -68.8671875 59.78125 C-71.58644647 57.63027366 -74.2925929 55.4676028 -76.95507812 53.24658203 C-80.95109515 49.95619386 -80.95109515 49.95619386 -85.8359375 48.62109375 C-87.08890625 48.86472656 -87.08890625 48.86472656 -88.3671875 49.11328125 C-89.223125 49.26023438 -90.0790625 49.4071875 -90.9609375 49.55859375 C-91.59 49.70039062 -92.2190625 49.8421875 -92.8671875 49.98828125 C-94.01233815 53.4629507 -94.36031057 56.35033556 -93.8671875 59.98828125 C-91.38572647 64.19157238 -88.40060255 67.7794351 -85.19628906 71.44726562 C-83.28629938 73.6617871 -81.51739459 75.97767074 -79.7421875 78.30078125 C-78.78422649 79.53023812 -77.82605625 80.75953222 -76.8671875 81.98828125 C-78.35903861 85.79798013 -80.46995261 87.44656917 -83.8046875 89.73828125 C-84.67996094 90.351875 -85.55523437 90.96546875 -86.45703125 91.59765625 C-88.8671875 92.98828125 -88.8671875 92.98828125 -91.8671875 92.98828125 C-93.16650391 91.70996094 -93.16650391 91.70996094 -94.46875 89.91015625 C-94.95496826 89.24935059 -95.44118652 88.58854492 -95.94213867 87.90771484 C-96.70941284 86.83384521 -96.70941284 86.83384521 -97.4921875 85.73828125 C-98.56333067 84.26658386 -99.63494994 82.79523287 -100.70703125 81.32421875 C-101.23796387 80.59041992 -101.76889648 79.85662109 -102.31591797 79.10058594 C-103.71743148 77.19219833 -105.15297963 75.32219385 -106.62109375 73.46484375 C-107.42417969 72.44132812 -108.22726562 71.4178125 -109.0546875 70.36328125 C-109.77011719 69.46351562 -110.48554688 68.56375 -111.22265625 67.63671875 C-113.52389475 63.9306862 -114.28082187 61.15955699 -113.45288086 56.81347656 C-112.80075626 54.31710587 -112.04267181 51.87845 -111.2421875 49.42578125 C-110.99339844 48.58853516 -110.74460937 47.75128906 -110.48828125 46.88867188 C-108.86200516 41.77925221 -107.31467988 38.26506329 -102.8671875 34.98828125 C-99.79411191 33.58098832 -96.66631556 32.57505063 -93.4296875 31.61328125 C-92.59630859 31.34128906 -91.76292969 31.06929687 -90.90429688 30.7890625 C-86.25216348 29.35480793 -82.59184017 28.28564711 -77.8671875 29.98828125 C-74.84991827 31.89738706 -72.08485152 34.06450958 -69.3046875 36.30078125 C-68.56283203 36.88279297 -67.82097656 37.46480469 -67.05664062 38.06445312 C-63.99965001 40.46812429 -60.97749901 42.89499871 -58.0078125 45.40625 C-55.95060074 47.25450043 -55.95060074 47.25450043 -53.1796875 46.98828125 C-49.3812839 45.84159337 -45.77793627 44.39983333 -42.13671875 42.828125 C-39.8671875 41.98828125 -39.8671875 41.98828125 -36.8671875 41.98828125 C-36.82980469 41.18648437 -36.79242188 40.3846875 -36.75390625 39.55859375 C-36.34207157 32.4362763 -35.6265761 25.4149154 -34.5546875 18.36328125 C-34.44922607 17.59387207 -34.34376465 16.82446289 -34.23510742 16.03173828 C-33.4854562 11.38585317 -32.69276379 8.78993482 -28.8671875 5.98828125 C-26.34725337 4.43079423 -23.76402286 3.0666187 -21.1171875 1.73828125 C-20.43914062 1.37476563 -19.76109375 1.01125 -19.0625 0.63671875 C-12.24232558 -2.81226679 -6.94932709 -3.18170172 0 0 Z " fill="#000000" transform="translate(368.8671875,34.01171875)"/>
<path d="M0 0 C8.83754 6.37294551 13.69277446 13.99401777 16.5546875 24.45703125 C17.0531019 28.37701515 17.06409356 32.22335403 17.00878906 36.1706543 C17.00937317 37.28416763 17.00995728 38.39768097 17.01055908 39.54493713 C17.00779604 43.18653708 16.97678748 46.82729493 16.9453125 50.46875 C16.93784381 53.00893202 16.93215385 55.54911983 16.92816162 58.08930969 C16.91450501 64.06732446 16.88305416 70.04498367 16.84276366 76.02285653 C16.797856 82.83551542 16.7760115 89.64818944 16.75598192 96.46095979 C16.71431487 110.4598189 16.64326452 124.45839738 16.5546875 138.45703125 C11.2746875 138.45703125 5.9946875 138.45703125 0.5546875 138.45703125 C0.5546875 125.25703125 0.5546875 112.05703125 0.5546875 98.45703125 C-15.2853125 98.45703125 -31.1253125 98.45703125 -47.4453125 98.45703125 C-47.4453125 111.65703125 -47.4453125 124.85703125 -47.4453125 138.45703125 C-52.7253125 138.45703125 -58.0053125 138.45703125 -63.4453125 138.45703125 C-63.53816115 123.78331224 -63.6094197 109.10965631 -63.65256119 94.43570232 C-63.67313068 87.62133938 -63.70114273 80.80716304 -63.74707031 73.99291992 C-63.79140554 67.41176097 -63.81447811 60.83074431 -63.82482147 54.2494297 C-63.8321888 51.74372121 -63.84657531 49.23802281 -63.86823273 46.73239708 C-63.89744329 43.21158687 -63.901261 39.69156698 -63.89941406 36.1706543 C-63.91379517 35.14421814 -63.92817627 34.11778198 -63.94299316 33.0602417 C-63.87939929 21.79172219 -60.23348214 12.62822562 -52.4453125 4.45703125 C-38.85057138 -8.44645185 -15.69472685 -9.90322222 0 0 Z M-39.4453125 16.45703125 C-47.55896142 24.81791047 -47.59707237 32.84040182 -47.54296875 43.98046875 C-47.5415538 45.08178131 -47.54013885 46.18309387 -47.53868103 47.31777954 C-47.53310002 50.82255817 -47.52055096 54.32727205 -47.5078125 57.83203125 C-47.50279505 60.21354074 -47.49823257 62.59505124 -47.49414062 64.9765625 C-47.48398929 70.80343021 -47.46441004 76.63015856 -47.4453125 82.45703125 C-31.6053125 82.45703125 -15.7653125 82.45703125 0.5546875 82.45703125 C0.5959375 74.55765625 0.6371875 66.65828125 0.6796875 58.51953125 C0.69789551 56.04332275 0.71610352 53.56711426 0.73486328 51.01586914 C0.74071059 49.02881079 0.74580558 47.04175003 0.75 45.0546875 C0.7653479 43.53675598 0.7653479 43.53675598 0.78100586 41.98815918 C0.78313082 33.25136796 0.26758918 25.43946664 -5.4453125 18.45703125 C-15.29961561 8.92060888 -28.47029983 7.67702112 -39.4453125 16.45703125 Z " fill="#000000" transform="translate(143.4453125,189.54296875)"/>
<path d="M0 0 C0.87158249 -0.01260864 1.74316498 -0.02521729 2.64115906 -0.03820801 C3.57660049 -0.03011108 4.51204193 -0.02201416 5.47583008 -0.01367188 C6.93355583 -0.01941223 6.93355583 -0.01941223 8.42073059 -0.02526855 C10.47760045 -0.02798935 12.53450481 -0.02061648 14.59130859 -0.00390625 C17.71702828 0.01738513 20.84041899 -0.00364246 23.96606445 -0.02929688 C25.96932469 -0.02665137 27.97258348 -0.02152179 29.97583008 -0.01367188 C31.3638105 -0.02581726 31.3638105 -0.02581726 32.77983093 -0.03820801 C42.16725472 0.09518194 49.0188533 3.36900503 55.83520508 9.72460938 C64.24133976 18.47385159 64.08600051 27.96613382 63.87036133 39.35742188 C63.61229386 45.33490953 62.4545857 50.25654913 59.55786133 55.51757812 C58.92170898 56.69126953 58.92170898 56.69126953 58.27270508 57.88867188 C50.23775726 71.16088372 37.49757272 77.25214988 22.89770508 81.07226562 C17.82714283 81.74834059 12.67329668 81.51757812 7.55786133 81.51757812 C7.55786133 102.30757813 7.55786133 123.09757813 7.55786133 144.51757812 C2.27786133 144.51757812 -3.00213867 144.51757812 -8.44213867 144.51757812 C-8.53469994 126.33296234 -8.60609924 108.14842729 -8.64938736 89.96362686 C-8.67002026 81.52026606 -8.69815462 73.07705424 -8.74389648 64.63378906 C-8.78374214 57.27537365 -8.8095662 49.91706612 -8.81849265 42.55854583 C-8.82371131 38.66153724 -8.83599174 34.7648373 -8.8650589 30.86792755 C-8.89219239 27.20057362 -8.90058803 23.53365572 -8.8945694 19.86621094 C-8.89619597 17.87736453 -8.91772962 15.8885657 -8.93981934 13.89984131 C-8.93432068 12.71636108 -8.92882202 11.53288086 -8.92315674 10.3135376 C-8.92684391 9.28481663 -8.93053108 8.25609566 -8.93432999 7.19620132 C-8.014464 2.19006997 -4.92524168 0.02053199 0 0 Z M7.55786133 16.51757812 C7.55786133 32.35757813 7.55786133 48.19757813 7.55786133 64.51757812 C19.48709969 64.51757812 30.43493785 62.79442402 39.55786133 54.51757812 C45.62024181 47.59287629 47.96588747 40.4598593 47.43286133 31.33007812 C46.83648164 26.86416511 45.57919971 23.95854683 42.55786133 20.51757812 C37.60508844 16.92681778 33.49890671 16.39041614 27.47973633 16.41992188 C25.9111084 16.42366821 25.9111084 16.42366821 24.31079102 16.42749023 C22.32934082 16.44114624 22.32934082 16.44114624 20.30786133 16.45507812 C16.10036133 16.47570312 11.89286133 16.49632812 7.55786133 16.51757812 Z " fill="#000000" transform="translate(272.442138671875,183.482421875)"/>
<path d="M0 0 C0.87158249 -0.01260864 1.74316498 -0.02521729 2.64115906 -0.03820801 C3.57660049 -0.03011108 4.51204193 -0.02201416 5.47583008 -0.01367188 C6.93355583 -0.01941223 6.93355583 -0.01941223 8.42073059 -0.02526855 C10.47760045 -0.02798935 12.53450481 -0.02061648 14.59130859 -0.00390625 C17.71702828 0.01738513 20.84041899 -0.00364246 23.96606445 -0.02929688 C25.96932469 -0.02665137 27.97258348 -0.02152179 29.97583008 -0.01367188 C31.3638105 -0.02581726 31.3638105 -0.02581726 32.77983093 -0.03820801 C42.16725472 0.09518194 49.0188533 3.36900503 55.83520508 9.72460938 C64.24133976 18.47385159 64.08600051 27.96613382 63.87036133 39.35742188 C63.61229386 45.33490953 62.4545857 50.25654913 59.55786133 55.51757812 C58.92170898 56.69126953 58.92170898 56.69126953 58.27270508 57.88867188 C50.23775726 71.16088372 37.49757272 77.25214988 22.89770508 81.07226562 C17.82714283 81.74834059 12.67329668 81.51757812 7.55786133 81.51757812 C7.55786133 102.30757813 7.55786133 123.09757813 7.55786133 144.51757812 C2.27786133 144.51757812 -3.00213867 144.51757812 -8.44213867 144.51757812 C-8.53469994 126.33296234 -8.60609924 108.14842729 -8.64938736 89.96362686 C-8.67002026 81.52026606 -8.69815462 73.07705424 -8.74389648 64.63378906 C-8.78374214 57.27537365 -8.8095662 49.91706612 -8.81849265 42.55854583 C-8.82371131 38.66153724 -8.83599174 34.7648373 -8.8650589 30.86792755 C-8.89219239 27.20057362 -8.90058803 23.53365572 -8.8945694 19.86621094 C-8.89619597 17.87736453 -8.91772962 15.8885657 -8.93981934 13.89984131 C-8.93432068 12.71636108 -8.92882202 11.53288086 -8.92315674 10.3135376 C-8.92684391 9.28481663 -8.93053108 8.25609566 -8.93432999 7.19620132 C-8.014464 2.19006997 -4.92524168 0.02053199 0 0 Z M7.55786133 16.51757812 C7.55786133 32.35757813 7.55786133 48.19757813 7.55786133 64.51757812 C19.48709969 64.51757812 30.43493785 62.79442402 39.55786133 54.51757812 C45.62024181 47.59287629 47.96588747 40.4598593 47.43286133 31.33007812 C46.83648164 26.86416511 45.57919971 23.95854683 42.55786133 20.51757812 C37.60508844 16.92681778 33.49890671 16.39041614 27.47973633 16.41992188 C25.9111084 16.42366821 25.9111084 16.42366821 24.31079102 16.42749023 C22.32934082 16.44114624 22.32934082 16.44114624 20.30786133 16.45507812 C16.10036133 16.47570312 11.89286133 16.49632812 7.55786133 16.51757812 Z " fill="#000000" transform="translate(184.442138671875,183.482421875)"/>
<path d="M0 0 C1.43520996 0.00858032 1.43520996 0.00858032 2.89941406 0.01733398 C15.88158962 0.34090785 26.15177541 4.27556443 36.3125 12.5 C37.364375 13.263125 38.41625 14.02625 39.5 14.8125 C49.12730526 24.01192503 56.03084421 37.37119953 56.78125 50.76171875 C56.8153658 52.57002071 56.82519799 54.37892083 56.8125 56.1875 C56.80677979 57.14430664 56.80105957 58.10111328 56.79516602 59.08691406 C56.47159215 72.06908962 52.53693557 82.33927541 44.3125 92.5 C43.549375 93.551875 42.78625 94.60375 42 95.6875 C33.50754081 104.57495729 20.70081344 111.94074685 8.23046875 112.68359375 C5.59043861 112.68698275 2.9505818 112.60146468 0.3125 112.5 C0.3125 106.89 0.3125 101.28 0.3125 95.5 C2.91125 95.190625 2.91125 95.190625 5.5625 94.875 C15.51318687 93.19501391 25.28405353 88.88138604 31.3125 80.5 C37.86526222 69.16669989 40.38373315 58.24071363 37.62890625 45.28515625 C34.09576312 34.83233031 27.13065331 26.19431024 17.1875 21.25 C6.47714518 16.91485638 -4.07232386 16.48266606 -14.79296875 20.73046875 C-26.15013334 25.99285681 -32.22930242 32.74915974 -36.6875 44.5 C-37.64182043 48.52275742 -38.19737538 52.38295323 -38.6875 56.5 C-44.2975 56.5 -49.9075 56.5 -55.6875 56.5 C-56.63393621 42.68203131 -52.35590318 31.20921605 -43.6875 20.5 C-42.924375 19.448125 -42.16125 18.39625 -41.375 17.3125 C-30.45967046 5.88948072 -15.65216846 -0.10989347 0 0 Z " fill="#000000" transform="translate(359.6875,111.5)"/>
<path d="M0 0 C1.05026367 -0.0038269 2.10052734 -0.00765381 3.18261719 -0.01159668 C5.40170247 -0.01431696 7.62081974 -0.00694777 9.83984375 0.00976562 C13.23770595 0.03117255 16.63345361 0.00996675 20.03125 -0.015625 C22.18750467 -0.01298175 24.34375802 -0.00785682 26.5 0 C27.51674805 -0.00809692 28.53349609 -0.01619385 29.58105469 -0.02453613 C33.48440043 0.02739124 36.39212968 0.08866257 39.88867188 1.89257812 C42.11406275 6.2060689 41.81932893 10.49959728 41.78125 15.28125 C41.7850769 16.33151367 41.78890381 17.38177734 41.79284668 18.46386719 C41.79556696 20.68295247 41.78819777 22.90206974 41.77148438 25.12109375 C41.75007745 28.51895595 41.77128325 31.91470361 41.796875 35.3125 C41.79423175 37.46875467 41.78910682 39.62500802 41.78125 41.78125 C41.78934692 42.79799805 41.79744385 43.81474609 41.80578613 44.86230469 C41.75385876 48.76565043 41.69258743 51.67337968 39.88867188 55.16992188 C35.5751811 57.39531275 31.28165272 57.10057893 26.5 57.0625 C24.92460449 57.06824036 24.92460449 57.06824036 23.31738281 57.07409668 C21.09829753 57.07681696 18.87918026 57.06944777 16.66015625 57.05273438 C13.26229405 57.03132745 9.86654639 57.05253325 6.46875 57.078125 C4.31249533 57.07548175 2.15624198 57.07035682 0 57.0625 C-1.01674805 57.07059692 -2.03349609 57.07869385 -3.08105469 57.08703613 C-6.98440043 57.03510876 -9.89212968 56.97383743 -13.38867188 55.16992188 C-15.61406275 50.8564311 -15.31932893 46.56290272 -15.28125 41.78125 C-15.2850769 40.73098633 -15.28890381 39.68072266 -15.29284668 38.59863281 C-15.29556696 36.37954753 -15.28819777 34.16043026 -15.27148438 31.94140625 C-15.25007745 28.54354405 -15.27128325 25.14779639 -15.296875 21.75 C-15.29423175 19.59374533 -15.28910682 17.43749198 -15.28125 15.28125 C-15.28934692 14.26450195 -15.29744385 13.24775391 -15.30578613 12.20019531 C-15.25385876 8.29684957 -15.19258743 5.38912032 -13.38867188 1.89257812 C-9.0751811 -0.33281275 -4.78165272 -0.03807893 0 0 Z M1.25 16.53125 C1.25 24.45125 1.25 32.37125 1.25 40.53125 C9.17 40.53125 17.09 40.53125 25.25 40.53125 C25.25 32.61125 25.25 24.69125 25.25 16.53125 C17.33 16.53125 9.41 16.53125 1.25 16.53125 Z " fill="#000000" transform="translate(390.75,303.46875)"/>
<path d="M0 0 C1.05026367 -0.0038269 2.10052734 -0.00765381 3.18261719 -0.01159668 C5.40170247 -0.01431696 7.62081974 -0.00694777 9.83984375 0.00976562 C13.23770595 0.03117255 16.63345361 0.00996675 20.03125 -0.015625 C22.18750467 -0.01298175 24.34375802 -0.00785682 26.5 0 C27.51674805 -0.00809692 28.53349609 -0.01619385 29.58105469 -0.02453613 C33.48440043 0.02739124 36.39212968 0.08866257 39.88867188 1.89257812 C42.11406275 6.2060689 41.81932893 10.49959728 41.78125 15.28125 C41.7850769 16.33151367 41.78890381 17.38177734 41.79284668 18.46386719 C41.79556696 20.68295247 41.78819777 22.90206974 41.77148438 25.12109375 C41.75007745 28.51895595 41.77128325 31.91470361 41.796875 35.3125 C41.79423175 37.46875467 41.78910682 39.62500802 41.78125 41.78125 C41.78934692 42.79799805 41.79744385 43.81474609 41.80578613 44.86230469 C41.75385876 48.76565043 41.69258743 51.67337968 39.88867188 55.16992188 C35.5751811 57.39531275 31.28165272 57.10057893 26.5 57.0625 C24.92460449 57.06824036 24.92460449 57.06824036 23.31738281 57.07409668 C21.09829753 57.07681696 18.87918026 57.06944777 16.66015625 57.05273438 C13.26229405 57.03132745 9.86654639 57.05253325 6.46875 57.078125 C4.31249533 57.07548175 2.15624198 57.07035682 0 57.0625 C-1.01674805 57.07059692 -2.03349609 57.07869385 -3.08105469 57.08703613 C-6.98440043 57.03510876 -9.89212968 56.97383743 -13.38867188 55.16992188 C-15.61406275 50.8564311 -15.31932893 46.56290272 -15.28125 41.78125 C-15.2850769 40.73098633 -15.28890381 39.68072266 -15.29284668 38.59863281 C-15.29556696 36.37954753 -15.28819777 34.16043026 -15.27148438 31.94140625 C-15.25007745 28.54354405 -15.27128325 25.14779639 -15.296875 21.75 C-15.29423175 19.59374533 -15.28910682 17.43749198 -15.28125 15.28125 C-15.28934692 14.26450195 -15.29744385 13.24775391 -15.30578613 12.20019531 C-15.25385876 8.29684957 -15.19258743 5.38912032 -13.38867188 1.89257812 C-9.0751811 -0.33281275 -4.78165272 -0.03807893 0 0 Z M1.25 16.53125 C1.25 24.45125 1.25 32.37125 1.25 40.53125 C9.17 40.53125 17.09 40.53125 25.25 40.53125 C25.25 32.61125 25.25 24.69125 25.25 16.53125 C17.33 16.53125 9.41 16.53125 1.25 16.53125 Z " fill="#000000" transform="translate(318.75,303.46875)"/>
</svg>
