<?xml version="1.0" encoding="UTF-8"?>
<svg version="1.1" xmlns="http://www.w3.org/2000/svg" width="512" height="512">
<path d="M0 0 C1.65000207 -0.00417748 3.30000126 -0.00965727 4.94999516 -0.01631981 C9.46492152 -0.03073879 13.97966478 -0.02654081 18.49460101 -0.019153 C23.37133659 -0.01441483 28.24803293 -0.02693692 33.12475586 -0.03717041 C42.67126891 -0.05435107 52.21771611 -0.05519993 61.76424061 -0.04995751 C69.52515731 -0.04591318 77.28605459 -0.04736249 85.04697037 -0.05270576 C86.70495775 -0.0538284 86.70495775 -0.0538284 88.39643983 -0.05497371 C90.64203572 -0.05650522 92.8876316 -0.05804356 95.13322748 -0.05958868 C116.18370515 -0.07331109 137.23414563 -0.06787786 158.28462245 -0.05640347 C177.53323269 -0.04647154 196.78174679 -0.05941154 216.03034221 -0.08333766 C235.80594375 -0.10773322 255.58150053 -0.11733539 275.35711682 -0.11068493 C286.45516641 -0.10719371 297.55314207 -0.10941841 308.65118027 -0.12693596 C318.09872613 -0.14166362 327.546146 -0.14228594 336.9936894 -0.12486505 C341.81140836 -0.11635736 346.62890232 -0.11419993 351.4466095 -0.1295166 C355.86209465 -0.14338043 360.2771624 -0.13857881 364.69262351 -0.11927737 C366.28472017 -0.11552225 367.87685041 -0.11842519 369.46891712 -0.12888902 C385.44844548 -0.22639537 398.4542495 3.62808146 410.44265747 14.57518005 C421.94334122 26.90524003 424.14708837 40.53408626 424.08033752 56.69502258 C424.08451501 58.34502465 424.08999479 59.99502384 424.09665734 61.64501774 C424.11107632 66.1599441 424.10687833 70.67468736 424.09949052 75.18962359 C424.09475236 80.06635918 424.10727445 84.94305552 424.11750793 89.81977844 C424.13468859 99.36629149 424.13553745 108.9127387 424.13029503 118.45926319 C424.12625071 126.2201799 424.12770001 133.98107717 424.13304329 141.74199295 C424.13379171 142.84731787 424.13454013 143.95264279 424.13531123 145.09146241 C424.13684274 147.3370583 424.13838109 149.58265419 424.1399262 151.82825007 C424.15364861 172.87872773 424.14821538 193.92916821 424.13674099 214.97964503 C424.12680907 234.22825527 424.13974906 253.47676938 424.16367518 272.72536479 C424.18807074 292.50096633 424.19767291 312.27652311 424.19102246 332.0521394 C424.18753124 343.15018899 424.18975593 354.24816465 424.20727348 365.34620285 C424.22200114 374.79374871 424.22262347 384.24116858 424.20520257 393.68871199 C424.19669488 398.50643095 424.19453746 403.3239249 424.20985413 408.14163208 C424.22371795 412.55711724 424.21891633 416.97218498 424.19961489 421.38764609 C424.19585977 422.97974276 424.19876272 424.57187299 424.20922654 426.1639397 C424.3067329 442.14346806 420.45225607 455.14927208 409.50515747 467.13768005 C397.17509749 478.6383638 383.54625126 480.84211095 367.38531494 480.77536011 C365.73531288 480.77953759 364.08531368 480.78501738 362.43531978 480.79167992 C357.92039342 480.8060989 353.40565016 480.80190092 348.89071393 480.79451311 C344.01397835 480.78977494 339.13728201 480.80229703 334.26055908 480.81253052 C324.71404603 480.82971118 315.16759883 480.83056003 305.62107433 480.82531761 C297.86015763 480.82127329 290.09926035 480.82272259 282.33834457 480.82806587 C280.68035719 480.82918851 280.68035719 480.82918851 278.98887511 480.83033382 C276.74327922 480.83186532 274.49768334 480.83340367 272.25208746 480.83494879 C251.20160979 480.8486712 230.15116931 480.84323797 209.1006925 480.83176357 C189.85208226 480.82183165 170.60356815 480.83477164 151.35497274 480.85869776 C131.57937119 480.88309332 111.80381441 480.89269549 92.02819812 480.88604504 C80.93014853 480.88255382 69.83217287 480.88477851 58.73413467 480.90229607 C49.28658882 480.91702373 39.83916894 480.91764605 30.39162554 480.90022516 C25.57390658 480.89171746 20.75641262 480.88956004 15.93870544 480.90487671 C11.52322029 480.91874053 7.10815255 480.91393891 2.69269143 480.89463747 C1.10059477 480.89088235 -0.49153547 480.8937853 -2.08360218 480.90424912 C-18.06313053 481.00175548 -31.06893455 477.14727865 -43.05734253 466.20018005 C-54.55802628 453.87012007 -56.76177343 440.24127384 -56.69502258 424.08033752 C-56.69920006 422.43033546 -56.70467985 420.78033627 -56.71134239 419.13034236 C-56.72576138 414.615416 -56.72156339 410.10067274 -56.71417558 405.58573651 C-56.70943742 400.70900093 -56.7219595 395.83230459 -56.73219299 390.95558167 C-56.74937365 381.40906862 -56.75022251 371.86262141 -56.74498009 362.31609692 C-56.74093577 354.55518021 -56.74238507 346.79428294 -56.74772835 339.03336716 C-56.74847677 337.92804224 -56.74922519 336.82271731 -56.74999629 335.6838977 C-56.7515278 333.43830181 -56.75306615 331.19270592 -56.75461126 328.94711004 C-56.76833367 307.89663238 -56.76290044 286.84619189 -56.75142605 265.79571508 C-56.74149413 246.54710484 -56.75443412 227.29859073 -56.77836024 208.04999532 C-56.8027558 188.27439377 -56.81235797 168.49883699 -56.80570751 148.72322071 C-56.80221629 137.62517112 -56.80444099 126.52719545 -56.82195854 115.42915726 C-56.8366862 105.9816114 -56.83730853 96.53419152 -56.81988763 87.08664812 C-56.81137994 82.26892916 -56.80922252 77.45143521 -56.82453918 72.63372803 C-56.83840301 68.21824287 -56.83360139 63.80317513 -56.81429995 59.38771401 C-56.81054483 57.79561735 -56.81344777 56.20348711 -56.8239116 54.61142041 C-56.92141796 38.63189205 -53.06694113 25.62608803 -42.11984253 13.63768005 C-29.78978255 2.13699631 -16.16093632 -0.06675084 0 0 Z M-30.30734253 26.38768005 C-39.89800104 38.96318637 -40.45827388 50.47989433 -40.4410553 65.70196533 C-40.44292498 67.26845485 -40.44522631 68.8349439 -40.44792062 70.40143222 C-40.45402556 74.69472407 -40.45390657 78.98799641 -40.45272624 83.2812916 C-40.45252191 87.91603623 -40.45804411 92.55077464 -40.46278381 97.18551636 C-40.47108361 106.26137637 -40.47383835 115.33722988 -40.47439619 124.41309337 C-40.47487164 131.79124213 -40.47692783 139.16938876 -40.48009682 146.54753685 C-40.48890132 167.47281125 -40.49351648 188.39808052 -40.49276634 209.32335678 C-40.49272639 210.45100192 -40.49268643 211.57864706 -40.49264526 212.74046326 C-40.49260438 213.86948744 -40.4925635 214.99851163 -40.49252138 216.16174867 C-40.4921149 234.46055409 -40.50168551 252.75933894 -40.51578363 271.05813841 C-40.53015024 289.85394252 -40.53705367 308.64973659 -40.53618985 327.44554633 C-40.535858 337.99528001 -40.53860014 348.54499211 -40.5493679 359.09472084 C-40.55847661 368.07642052 -40.56064507 377.05808884 -40.55385848 386.03979114 C-40.55059525 390.62035916 -40.55052953 395.20086701 -40.55921173 399.78142929 C-40.56708622 403.97909846 -40.56563561 408.17665986 -40.5569276 412.37432643 C-40.55539471 413.88840538 -40.55720076 415.4024924 -40.56278767 416.91656182 C-40.60957404 430.50148526 -40.20880896 442.62353032 -30.80734253 453.20018005 C-29.98234253 453.92205505 -29.15734253 454.64393005 -28.30734253 455.38768005 C-27.56484253 456.06830505 -26.82234253 456.74893005 -26.05734253 457.45018005 C-15.24593613 465.06730729 -3.69929453 464.5357656 9.00694275 464.52139282 C10.57343227 464.5232625 12.13992132 464.52556383 13.70640963 464.52825814 C17.99970148 464.53436308 22.29297382 464.53424409 26.58626902 464.53306377 C31.22101365 464.53285943 35.85575206 464.53838163 40.49049377 464.54312134 C49.56635378 464.55142113 58.6422073 464.55417587 67.71807078 464.55473372 C75.09621955 464.55520916 82.47436618 464.55726536 89.85251427 464.56043434 C110.77778867 464.56923884 131.70305794 464.573854 152.6283342 464.57310387 C154.31980191 464.57304393 154.31980191 464.57304393 156.04544067 464.57298279 C157.17446486 464.57294191 158.30348905 464.57290103 159.46672609 464.57285891 C177.76553151 464.57245243 196.06431635 464.58202304 214.36311582 464.59612115 C233.15891993 464.61048777 251.95471401 464.61739119 270.75052375 464.61652738 C281.30025742 464.61619552 291.84996953 464.61893767 302.39969826 464.62970543 C311.38139794 464.63881414 320.36306626 464.64098259 329.34476856 464.63419601 C333.92533657 464.63093278 338.50584443 464.63086705 343.08640671 464.63954926 C347.28407587 464.64742375 351.48163728 464.64597313 355.67930385 464.63726512 C357.19338279 464.63573224 358.70746982 464.63753829 360.22153924 464.6431252 C373.75718966 464.68974187 385.88823696 464.3052346 396.44265747 454.95018005 C397.18515747 454.10455505 397.92765747 453.25893005 398.69265747 452.38768005 C399.55890747 451.45955505 400.42515747 450.53143005 401.31765747 449.57518005 C408.85817895 439.45500648 407.83999858 427.12151738 407.82637024 415.07339478 C407.82823992 413.50690526 407.83054125 411.94041621 407.83323556 410.37392789 C407.8393405 406.08063604 407.83922151 401.7873637 407.83804119 397.4940685 C407.83783685 392.85932388 407.84335905 388.22458547 407.84809875 383.58984375 C407.85639855 374.51398374 407.85915329 365.43813023 407.85971113 356.36226674 C407.86018658 348.98411797 407.86224277 341.60597135 407.86541176 334.22782326 C407.87421626 313.30254886 407.87883142 292.37727959 407.87808128 271.45200332 C407.87804133 270.32435819 407.87800137 269.19671305 407.87796021 268.03489685 C407.87791932 266.90587266 407.87787844 265.77684848 407.87783632 264.61361144 C407.87742984 246.31480602 407.88700045 228.01602117 407.90109857 209.7172217 C407.91546519 190.92141759 407.92236861 172.12562352 407.9215048 153.32981378 C407.92117294 142.7800801 407.92391508 132.230368 407.93468285 121.68063927 C407.94379156 112.69893959 407.94596001 103.71727126 407.93917342 94.73556896 C407.93591019 90.15500095 407.93584447 85.57449309 407.94452667 80.99393082 C407.95240116 76.79626165 407.95095055 72.59870024 407.94224254 68.40103368 C407.94070966 66.88695473 407.94251571 65.3728677 407.94810262 63.85879829 C407.99521446 50.17937034 407.59125714 36.83620193 397.69265747 26.38768005 C385.88363991 16.05478968 373.39269306 16.2369837 358.37837219 16.25396729 C356.81188268 16.25209761 355.24539362 16.24979628 353.67890531 16.24710196 C349.38561346 16.24099703 345.09234112 16.24111602 340.79904592 16.24229634 C336.1643013 16.24250067 331.52956288 16.23697847 326.89482117 16.23223877 C317.81896116 16.22393898 308.74310765 16.22118424 299.66724416 16.22062639 C292.28909539 16.22015094 284.91094876 16.21809475 277.53280067 16.21492577 C256.60752628 16.20612126 235.682257 16.20150611 214.75698074 16.20225624 C213.06551304 16.20231617 213.06551304 16.20231617 211.33987427 16.20237732 C210.21085008 16.2024182 209.08182589 16.20245908 207.91858885 16.2025012 C189.61978343 16.20290768 171.32099859 16.19333707 153.02219912 16.17923895 C134.22639501 16.16487234 115.43060093 16.15796892 96.6347912 16.15883273 C86.08505752 16.15916458 75.53534541 16.15642244 64.98561668 16.14565468 C56.003917 16.13654597 47.02224868 16.13437751 38.04054638 16.1411641 C33.45997837 16.14442733 28.87947051 16.14449306 24.29890823 16.13581085 C20.10123907 16.12793636 15.90367766 16.12938698 11.70601109 16.13809498 C10.19193215 16.13962787 8.67784512 16.13782182 7.1637757 16.13223491 C-6.37007727 16.08562443 -20.0520721 16.40228516 -30.30734253 26.38768005 Z " fill="#000000" transform="translate(72.30734252929688,15.612319946289063)"/>
<path d="M0 0 C3.65460763 5.64459067 6.41662087 11.8151766 9.3125 17.875 C9.83247559 18.96014893 10.35245117 20.04529785 10.88818359 21.16333008 C15.40323746 30.6404135 19.74292591 40.1933205 24.0609436 49.76141357 C29.24355443 61.23765941 34.58425056 72.63209307 40 84 C46.34938266 97.33129219 52.57870108 110.70844178 58.63500977 124.17553711 C61.62540975 130.81848875 64.66318642 137.43050945 67.8203125 143.99609375 C68.4353782 145.28422873 69.05021008 146.57247537 69.66479492 147.86083984 C70.80781768 150.25662428 71.96859217 152.64050832 73.1418457 155.02197266 C75.97219553 160.95517471 77.93907631 165.39617304 77 172 C74.76576942 175.0002525 73.0648816 176.5516288 69.625 178 C65.97631519 178 63.0566986 176.91385896 60 175 C58.0234375 172.19140625 58.0234375 172.19140625 56.375 168.5625 C55.90465332 167.56053589 55.90465332 167.56053589 55.42480469 166.53833008 C54.25773399 164.03656583 53.12899008 161.51918386 52 159 C50.05058169 154.69467853 48.09046978 150.39451615 46.12042236 146.09860229 C45.25893941 144.20712741 44.4127346 142.30934615 43.56787109 140.41040039 C42.76857178 138.65070923 42.76857178 138.65070923 41.953125 136.85546875 C41.48036133 135.79996826 41.00759766 134.74446777 40.52050781 133.65698242 C38.84146639 130.72297346 37.92907705 129.65135423 35 128 C32.2521054 127.71988837 29.73539853 127.61006971 26.99023438 127.64355469 C25.78467644 127.64048813 25.78467644 127.64048813 24.55476379 127.63735962 C21.90086028 127.63435412 19.24757958 127.65282249 16.59375 127.671875 C14.74817051 127.67493333 12.90258871 127.67680889 11.05700684 127.67755127 C7.1900956 127.68215299 3.32339277 127.69657341 -0.54345703 127.71875 C-5.50005325 127.74703213 -10.45648536 127.75796184 -15.4131546 127.7624321 C-19.22383261 127.7665894 -23.03447747 127.7764095 -26.84513855 127.78830719 C-28.67278275 127.79400422 -30.50043012 127.79876479 -32.32807922 127.80257416 C-34.88218779 127.80945037 -37.4361672 127.82308939 -39.99023438 127.83886719 C-41.1234034 127.84054398 -41.1234034 127.84054398 -42.27946472 127.84225464 C-47.24756861 127.790933 -47.24756861 127.790933 -52 129 C-53.09944316 131.64292301 -53.09944316 131.64292301 -54 135 C-55.24651894 137.95796364 -56.62499588 140.85394577 -57.9921875 143.7578125 C-58.37939972 144.58328583 -58.76661194 145.40875916 -59.16555786 146.25924683 C-59.98236507 147.99646442 -60.80107653 149.7327878 -61.62158203 151.46826172 C-62.87234317 154.11936859 -64.1101341 156.77628637 -65.34765625 159.43359375 C-66.14504208 161.12537317 -66.94319341 162.81679204 -67.7421875 164.5078125 C-68.10899628 165.29954865 -68.47580505 166.09128479 -68.85372925 166.90701294 C-70.76021791 170.90269566 -72.45969416 174.18632683 -76 177 C-80.33887083 178.29242961 -83.01661869 178.15317909 -87 176 C-89.64639952 174.2042289 -89.98209442 173.06882731 -90.80078125 169.921875 C-91.05766669 164.8647577 -89.63543429 161.90349578 -87.4375 157.4375 C-87.03692383 156.58671875 -86.63634766 155.7359375 -86.22363281 154.859375 C-85.32454157 152.95225251 -84.41801107 151.04862529 -83.50537109 149.14794922 C-81.60190907 145.16753415 -79.74318771 141.16695978 -77.88424683 137.16560364 C-75.80104757 132.68256969 -73.70952126 128.20351274 -71.61328125 123.7265625 C-68.20706158 116.44931858 -64.81906423 109.16373893 -61.4375 101.875 C-60.90543945 100.72837891 -60.37337891 99.58175781 -59.82519531 98.40039062 C-58.75300562 96.08955851 -57.68090253 93.77868622 -56.60888672 91.46777344 C-53.36508529 84.47612618 -50.11855526 77.48574546 -46.87255859 70.49511719 C-43.63817842 63.52920805 -40.40490185 56.56278926 -37.17358398 49.59545898 C-36.10555735 47.29480759 -35.03607492 44.99483142 -33.96508789 42.69555664 C-31.34595735 37.07090545 -28.74046002 31.44134319 -26.17390442 25.7925415 C-24.90891413 23.01188403 -23.63561822 20.23507099 -22.36129761 17.4586792 C-21.75055999 16.12244477 -21.14365671 14.78445046 -20.540802 13.44464111 C-19.70233793 11.58215004 -18.85073674 9.72620445 -17.99609375 7.87109375 C-17.51325928 6.80818115 -17.0304248 5.74526855 -16.53295898 4.65014648 C-14.62439896 1.35066902 -12.63043924 -0.26911344 -9.1875 -1.8125 C-5.62611083 -2.11776193 -3.2798786 -1.40566226 0 0 Z M-14 46 C-15.53419768 48.66850578 -15.53419768 48.66850578 -16.84765625 51.671875 C-17.36561768 52.80036865 -17.8835791 53.9288623 -18.41723633 55.09155273 C-18.96601792 56.31087303 -19.51443114 57.53035918 -20.0625 58.75 C-20.63167716 60.00171495 -21.2015915 61.25309494 -21.7722168 62.50415039 C-22.64760842 64.42475546 -23.52187001 66.34582726 -24.39228821 68.26869202 C-26.32377147 72.53413085 -28.29715228 76.77768582 -30.296875 81.01171875 C-30.80597412 82.09678711 -31.31507324 83.18185547 -31.83959961 84.29980469 C-32.80277598 86.35164336 -33.7720961 88.40061212 -34.74829102 90.44628906 C-35.17811279 91.37022461 -35.60793457 92.29416016 -36.05078125 93.24609375 C-36.42887939 94.04716553 -36.80697754 94.8482373 -37.1965332 95.67358398 C-38.10361554 98.30001595 -38.28147331 100.24018155 -38 103 C-36.12972515 105.24432982 -34.61113596 106.69443202 -32 108 C-30.39292242 108.11036536 -28.78141775 108.15911485 -27.1706543 108.17700195 C-26.16588547 108.18983719 -25.16111664 108.20267242 -24.12590027 108.21589661 C-23.03634537 108.22328354 -21.94679047 108.23067047 -20.82421875 108.23828125 C-19.14825371 108.25038887 -19.14825371 108.25038887 -17.43843079 108.26274109 C-15.07037919 108.27658946 -12.70230757 108.28730823 -10.33422852 108.29516602 C-6.71266862 108.31238037 -3.092021 108.35626128 0.52929688 108.40039062 C2.82811828 108.41051715 5.12694745 108.41903338 7.42578125 108.42578125 C8.50926346 108.44328934 9.59274567 108.46079742 10.70906067 108.47883606 C15.19513238 108.46589583 18.17087338 108.44962524 22.16088867 106.28588867 C24.2597095 103.67719898 24.92455935 102.34252781 25 99 C24.26060646 96.41151425 24.26060646 96.41151425 22.9296875 93.80859375 C22.45136475 92.79418213 21.97304199 91.77977051 21.48022461 90.73461914 C20.95050049 89.64656982 20.42077637 88.55852051 19.875 87.4375 C18.76904027 85.11221262 17.66359019 82.78668279 16.55859375 80.4609375 C16.27003006 79.85897049 15.98146637 79.25700348 15.68415833 78.63679504 C13.54277372 74.16812092 11.46342455 69.67382936 9.41015625 65.1640625 C8.82385412 63.88088425 8.23742973 62.59776185 7.65087891 61.31469727 C6.79747551 59.44773021 5.94551147 57.5801942 5.09881592 55.71017456 C4.31045653 53.97188171 3.51283938 52.23779654 2.71484375 50.50390625 C2.26230225 49.51205322 1.80976074 48.5202002 1.34350586 47.49829102 C0.07929236 45.14744661 -0.89013375 43.61581952 -3 42 C-8.45390721 41.30586635 -10.50721327 41.84302121 -14 46 Z " fill="#000000" transform="translate(199,168)"/>
<path d="M0 0 C1.06145233 -0.00960754 2.12290466 -0.01921509 3.21652222 -0.02911377 C4.35823883 -0.03336365 5.49995544 -0.03761353 6.67626953 -0.04199219 C7.85496613 -0.04769226 9.03366272 -0.05339233 10.24807739 -0.05926514 C12.74122216 -0.06870895 15.23437938 -0.07524666 17.72753906 -0.07910156 C21.53749373 -0.08881216 25.34691007 -0.11984437 29.15673828 -0.15136719 C31.57991216 -0.15789698 34.0030899 -0.16314754 36.42626953 -0.16699219 C37.56393768 -0.17933899 38.70160583 -0.19168579 39.87374878 -0.20440674 C49.96177875 -0.17605274 49.96177875 -0.17605274 54.68408203 3.16113281 C57.14336947 6.85006398 57.37713782 9.87754703 56.68408203 14.16113281 C54.55959933 17.60425995 53.53555562 18.87730828 49.68408203 20.16113281 C46.1019229 20.39362872 42.52091041 20.54259169 38.93408203 20.68457031 C35.79018633 20.89351281 35.79018633 20.89351281 34.00476646 22.35643005 C32.19844656 24.82474908 32.30669424 26.46746514 32.3031311 29.51293945 C32.29467163 30.6233963 32.28621216 31.73385315 32.27749634 32.87796021 C32.28660538 34.70615799 32.28660538 34.70615799 32.29589844 36.57128906 C32.29064148 37.85437958 32.28538452 39.13747009 32.27996826 40.45944214 C32.26627925 43.98010105 32.27159968 47.50049654 32.28110552 51.02116013 C32.28869398 54.70332303 32.28165878 58.38546318 32.27694702 62.06762695 C32.27148708 68.25150609 32.27868727 74.43527779 32.29296875 80.61914062 C32.3092958 87.7713879 32.30400745 94.92337864 32.28748953 102.0756197 C32.2738814 108.21327824 32.27195169 114.3508595 32.27980554 120.48852825 C32.28448579 124.15565382 32.28509735 127.82265876 32.27519608 131.48977661 C32.26493163 135.57699816 32.27915275 139.66377652 32.29589844 143.75097656 C32.28982574 144.96977509 32.28375305 146.18857361 32.27749634 147.44430542 C32.29018555 149.10999069 32.29018555 149.10999069 32.3031311 150.80932617 C32.30426218 151.77607773 32.30539326 152.74282928 32.30655861 153.73887634 C32.500205 156.20079747 32.500205 156.20079747 34.009161 157.9702301 C36.6910565 159.87711201 39.3251254 159.5790874 42.55908203 159.66113281 C47.52719382 159.78770891 50.67419192 160.11419123 54.68408203 163.16113281 C57.13271453 166.83408156 57.51591641 169.89382246 56.68408203 174.16113281 C54.14954546 177.38067926 52.57110898 178.86545716 48.68408203 180.16113281 C46.95215665 180.26374462 45.2166056 180.30958993 43.48168945 180.32226562 C42.42016159 180.33187317 41.35863373 180.34148071 40.26493835 180.35137939 C39.11806046 180.35562927 37.97118256 180.35987915 36.78955078 180.36425781 C35.60943924 180.36995789 34.4293277 180.37565796 33.2134552 180.38153076 C30.71433408 180.39098318 28.21520048 180.3975157 25.71606445 180.40136719 C21.89723902 180.41106764 18.07895288 180.44208757 14.26025391 180.47363281 C11.83252273 180.48016341 9.4047877 180.48541366 6.97705078 180.48925781 C5.83624557 180.50160461 4.69544037 180.51395142 3.52006531 180.52667236 C-6.55319228 180.49844521 -6.55319228 180.49844521 -11.31591797 177.16113281 C-13.92386438 173.5752065 -14.42504905 171.95233314 -13.81591797 167.53613281 C-12.10129013 163.67822019 -10.84524829 162.41719307 -7.31591797 160.16113281 C-3.7060499 159.66493102 -0.23400048 159.66096703 3.40673828 159.62988281 C7.34851861 159.06610017 8.25018179 158.23535017 10.68408203 155.16113281 C11.28104323 152.60639382 11.28104323 152.60639382 11.1920166 149.77172852 C11.2032959 148.67817047 11.2145752 147.58461243 11.22619629 146.45791626 C11.21809937 145.26298553 11.21000244 144.06805481 11.20166016 142.83691406 C11.20866943 141.57479095 11.21567871 140.31266785 11.22290039 139.01229858 C11.24112926 135.5535431 11.23406846 132.09526509 11.22138405 128.63650131 C11.21125392 125.01619941 11.22064975 121.39593828 11.22692871 117.77563477 C11.23420512 111.69605167 11.22461774 105.61666296 11.20556641 99.53710938 C11.18379747 92.5091904 11.19084886 85.48173559 11.21287203 78.45382786 C11.23102637 72.41887471 11.23358425 66.38406126 11.22311735 60.34908962 C11.21688252 56.74506968 11.21604624 53.14126788 11.22926331 49.53726196 C11.24296802 45.51967904 11.22397183 41.50289578 11.20166016 37.48535156 C11.20975708 36.29042084 11.217854 35.09549011 11.22619629 33.86434937 C11.20927734 32.2240123 11.20927734 32.2240123 11.1920166 30.55053711 C11.18975445 29.12586372 11.18975445 29.12586372 11.18744659 27.67240906 C10.52986904 24.39176712 9.29501527 23.19401296 6.68408203 21.16113281 C3.38694336 20.64786743 3.38694336 20.64786743 -0.19091797 20.72363281 C-8.03385937 20.36453872 -8.03385937 20.36453872 -11.12841797 17.97363281 C-13.6170785 14.77392641 -14.39852621 13.20893679 -14.31591797 9.16113281 C-12.99098821 5.88035436 -11.81588197 3.66109682 -9.31591797 1.16113281 C-6.20869827 0.09533186 -3.26697363 0.02392612 0 0 Z " fill="#000000" transform="translate(332.31591796875,165.8388671875)"/>
</svg>
