<?xml version="1.0" encoding="UTF-8"?>
<svg version="1.1" xmlns="http://www.w3.org/2000/svg" width="512" height="512">
<path d="M0 0 C9.17932679 7.13663932 16.150497 15.93950898 21.99609375 25.93359375 C23.01316406 25.24523438 23.01316406 25.24523438 24.05078125 24.54296875 C39.10383639 14.61879389 53.95085248 11.54719656 71.8125 14.58203125 C79.38572661 16.71456438 85.6620489 20.32608693 91.99609375 24.93359375 C92.6303125 25.36027344 93.26453125 25.78695312 93.91796875 26.2265625 C103.54562586 33.40314176 109.86440884 46.40429794 111.99609375 57.93359375 C112.61728685 63.25408821 112.85868313 68.58145023 112.99609375 73.93359375 C114.13884766 74.17142578 114.13884766 74.17142578 115.3046875 74.4140625 C128.28694225 77.34763068 139.00622576 83.28963243 146.37109375 94.74609375 C152.34016648 105.63965149 154.09282963 118.16010569 150.80859375 130.24609375 C146.25379257 143.26897598 138.57307176 151.67473787 126.5703125 158.265625 C116.46577956 162.71287667 102.96891195 162.78829516 92.62109375 159.05859375 C91.06801554 158.37564405 89.52520439 157.66863992 87.99609375 156.93359375 C86.33298459 156.25810123 84.66720243 155.58904627 82.99609375 154.93359375 C82.50882812 155.49046875 82.0215625 156.04734375 81.51953125 156.62109375 C72.53214319 166.29479144 60.2144122 174.41745683 46.671875 175.04052734 C41.09994194 175.17223907 35.57635042 175.05232262 29.99609375 174.93359375 C29.66609375 182.52359375 29.33609375 190.11359375 28.99609375 197.93359375 C46.81609375 197.93359375 64.63609375 197.93359375 82.99609375 197.93359375 C83.32609375 195.29359375 83.65609375 192.65359375 83.99609375 189.93359375 C86.76092942 182.32732909 92.08380012 176.54279948 99.19664001 172.76475525 C107.99211124 169.17356406 116.67674628 169.36886554 126 169.4375 C127.73152222 169.43734467 129.46304479 169.43585013 131.19456482 169.43309021 C134.80621903 169.43171308 138.41747281 169.44414962 142.02905273 169.46704102 C146.63415676 169.49544496 151.23859769 169.49267326 155.84375095 169.4799509 C159.41364605 169.47296223 162.98339066 169.48081887 166.55326653 169.49320793 C168.25034951 169.49769001 169.94744884 169.49808795 171.64453316 169.49414253 C183.77718384 169.47913246 194.31845175 169.82785615 204.015625 177.89453125 C209.17405757 183.20558017 212.11256409 189.64222094 212.13653564 197.02397156 C212.14510086 198.60309074 212.14510086 198.60309074 212.15383911 200.21411133 C212.15495697 201.3689502 212.15607483 202.52378906 212.15722656 203.71362305 C212.16219147 204.93016068 212.16715637 206.1466983 212.17227173 207.40010071 C212.18438262 210.73921274 212.19183953 214.07826213 212.19628239 217.41738868 C212.19921547 219.50547858 212.20332081 221.59356302 212.20778656 223.68165016 C212.22146171 230.2202361 212.23112729 236.75880951 212.23498845 243.29740876 C212.23946413 250.83461528 212.25698902 258.37163999 212.28598905 265.90879124 C212.30764566 271.74077939 212.31769491 277.57271654 212.31902957 283.40474445 C212.32007511 286.88482169 212.32592851 290.36472805 212.34384918 293.8447628 C212.36347726 297.73209798 212.35902504 301.61920836 212.35253906 305.5065918 C212.36636124 307.22366837 212.36636124 307.22366837 212.38046265 308.97543335 C212.33131366 318.39057448 210.54882388 325.07589862 204.03125 332.10546875 C198.15724439 337.38192677 191.80340596 340.06694555 183.95214844 340.04711914 C182.95141296 340.04704361 181.95067749 340.04696808 180.9196167 340.04689026 C179.84657288 340.04172897 178.77352905 340.03656769 177.66796875 340.03125 C176.01175507 340.02912758 176.01175507 340.02912758 174.32208252 340.02696228 C170.79672533 340.02136633 167.27143173 340.00881454 163.74609375 339.99609375 C161.35546967 339.99107823 158.96484459 339.98651541 156.57421875 339.98242188 C150.71482207 339.97139822 144.85546245 339.95466408 138.99609375 339.93359375 C139.00053497 340.9099881 139.0049762 341.88638245 139.009552 342.8923645 C139.05012998 352.10278719 139.08009348 361.31319169 139.09971809 370.52368355 C139.11014652 375.25866553 139.12428859 379.99357524 139.14697266 384.72851562 C139.16873451 389.29966821 139.18066946 393.87075135 139.18584824 398.44195175 C139.18953798 400.18422412 139.19674314 401.92649277 139.20755386 403.6687355 C139.22211322 406.11273606 139.22406984 408.5564512 139.22314453 411.00048828 C139.23033508 411.71762497 139.23752563 412.43476166 139.24493408 413.17362976 C139.22739006 417.46796372 138.56826795 420.9399121 136.99609375 424.93359375 C137.56529541 424.9178833 138.13449707 424.90217285 138.72094727 424.88598633 C141.33339249 424.82310936 143.94567785 424.78443843 146.55859375 424.74609375 C147.90147461 424.70838867 147.90147461 424.70838867 149.27148438 424.66992188 C156.49928181 424.59049553 161.26658984 425.56011209 166.87109375 430.43359375 C170.63431901 434.86091758 170.18640992 439.33947902 170.234375 444.87890625 C170.24244675 445.76335419 170.25051849 446.64780212 170.25883484 447.55905151 C170.27266694 449.43355353 170.28339301 451.30808064 170.29125977 453.18261719 C170.30275147 455.08926837 170.32315851 456.9958881 170.3527832 458.90234375 C170.39571899 461.66558573 170.41166724 464.42787094 170.421875 467.19140625 C170.43938309 468.03236847 170.45689117 468.87333069 170.47492981 469.73977661 C170.4453243 477.941574 167.56489566 485.28924569 161.9095459 491.31021118 C152.27124675 499.48739337 142.28353612 499.80770188 130.33984375 499.66015625 C128.66263837 499.65911659 126.98543053 499.66016148 125.30822754 499.66317749 C121.81838924 499.66299933 118.32948751 499.64239339 114.83984375 499.60595703 C110.36963054 499.56030083 105.90076478 499.55955792 101.43038177 499.57299232 C97.97819035 499.57967107 94.52630613 499.56641856 91.07417297 499.54673386 C89.42517198 499.53904909 87.77613681 499.53672546 86.12712097 499.53990555 C83.82952409 499.54064743 81.53366379 499.51540905 79.23632812 499.48291016 C77.93127319 499.47369537 76.62621826 499.46448059 75.28161621 499.45498657 C71.99609375 498.93359375 71.99609375 498.93359375 69.57092285 497.11801147 C67.28426035 493.94622217 67.5193102 491.74786212 67.99609375 487.93359375 C69.28468241 485.48527529 70.04990998 484.26634718 72.681427 483.34089661 C75.73903298 482.80286164 78.67537253 482.80062969 81.78076172 482.79174805 C82.45445801 482.78827362 83.1281543 482.78479919 83.82226562 482.78121948 C85.28128108 482.77388404 86.74030754 482.76852691 88.19933701 482.76492882 C90.5117361 482.75773958 92.82392592 482.74205526 95.13626099 482.72358704 C101.70946403 482.67122982 108.28254987 482.62314652 114.85595703 482.60766602 C118.88083312 482.59756726 122.90517799 482.56819883 126.9298439 482.52634621 C128.45994163 482.51406154 129.99011445 482.50891032 131.52025986 482.51114464 C133.66495956 482.51350601 135.80814257 482.49127275 137.95263672 482.46362305 C139.17079071 482.45775681 140.3889447 482.45189056 141.64401245 482.44584656 C145.86659633 481.80056673 147.84426587 480.835423 150.99609375 477.93359375 C155.4191187 466.24565774 155.4191187 466.24565774 153.99609375 441.93359375 C82.22109375 441.43859375 82.22109375 441.43859375 8.99609375 440.93359375 C8.99609375 445.88359375 8.99609375 450.83359375 8.99609375 455.93359375 C7.0096097 461.45160501 5.14889519 464.88875653 -0.00390625 467.93359375 C-7.88161154 470.63419072 -15.99067891 470.2428334 -24.21875 470.234375 C-25.80001435 470.23826878 -27.38127767 470.24260484 -28.96253967 470.24736023 C-32.26664633 470.25479436 -35.57064607 470.25455144 -38.87475586 470.24926758 C-43.08878076 470.24347364 -47.30236604 470.2604156 -51.51631832 470.28361225 C-54.77904273 470.29841111 -58.04166272 470.29921302 -61.30441475 470.29610252 C-62.85720249 470.29661255 -64.40999657 470.30178977 -65.96275139 470.31191444 C-75.41806099 470.36601461 -83.56995434 470.24121665 -91.87890625 465.18359375 C-98.86158296 457.79017135 -97.00390625 451.64645255 -97.00390625 440.93359375 C-144.85390625 441.26359375 -192.70390625 441.59359375 -242.00390625 441.93359375 C-243.96755583 461.86275377 -243.96755583 461.86275377 -236.51190281 480.46491909 C-231.56753433 482.5349521 -227.1874047 482.48203752 -221.8759613 482.43238831 C-220.75138568 482.43777286 -219.62681007 482.44315741 -218.4681564 482.44870514 C-214.69786926 482.46198537 -210.92823205 482.44682395 -207.15795898 482.43188477 C-204.4558493 482.43347182 -201.75376522 482.44112736 -199.05166626 482.4486084 C-193.23222179 482.46169133 -187.41292101 482.46054029 -181.59347343 482.45001411 C-173.17413266 482.43506842 -164.75496031 482.44499345 -156.33562911 482.4615333 C-142.66816552 482.4879869 -129.00073975 482.49885346 -115.33325195 482.49780273 C-114.51553745 482.49774441 -113.69782295 482.49768609 -112.85532922 482.497626 C-109.54192131 482.49736014 -106.22851342 482.49704285 -102.91510552 482.49666274 C-93.79146632 482.49569622 -84.66782826 482.49702476 -75.54418945 482.49975586 C-74.72716903 482.49999575 -73.9101486 482.50023564 -73.06836998 482.50048281 C-59.45035783 482.50488784 -45.83238082 482.52111406 -32.21438938 482.54497665 C-23.8149238 482.55905453 -15.41559159 482.56192086 -7.01612139 482.55035376 C-1.26327014 482.54303655 4.48951385 482.54608273 10.24235863 482.5573122 C13.56250914 482.56339109 16.88243219 482.56281279 20.20257759 482.55243492 C23.8002639 482.54185969 27.39746225 482.54953054 30.99513245 482.56178284 C32.57216323 482.55041875 32.57216323 482.55041875 34.18105322 482.53882509 C43.09801921 482.60346733 43.09801921 482.60346733 46.99609375 485.93359375 C48.54196251 489.02533127 48.28968896 491.52788927 47.99609375 494.93359375 C46.66594696 497.1275692 46.66594696 497.1275692 43.99609375 498.93359375 C40.32540247 499.54655369 36.68001119 499.48123244 32.96594238 499.45498657 C31.82759681 499.46263767 30.68925124 499.47028876 29.51641035 499.47817171 C25.68718671 499.49887283 21.85856057 499.49083985 18.02929688 499.48291016 C15.28957375 499.48941217 12.54988424 499.50183711 9.81018066 499.5138855 C3.13038654 499.53940964 -3.5492469 499.54296273 -10.22908157 499.53828497 C-15.66177755 499.53471965 -21.09442473 499.53821571 -26.52711487 499.54673386 C-27.68675664 499.54851942 -27.68675664 499.54851942 -28.86982551 499.55034106 C-30.44043061 499.55276459 -32.0110357 499.55519286 -33.58164078 499.55762582 C-48.31995222 499.57939103 -63.05817221 499.57504667 -77.79648882 499.56285612 C-91.26448462 499.55253123 -104.73219051 499.57499023 -118.20012897 499.61305256 C-132.03621279 499.65185445 -145.87215965 499.66831256 -159.70829821 499.66080606 C-167.47314514 499.65698687 -175.23774575 499.66190821 -183.00254822 499.69023514 C-189.61765746 499.71412343 -196.23236904 499.71680651 -202.84748405 499.6926548 C-206.21946661 499.6809148 -209.59013056 499.68185208 -212.9621582 499.70265961 C-216.62806725 499.72364356 -220.29204469 499.70735751 -223.95788574 499.68203735 C-225.00966869 499.69678592 -226.06145164 499.71153449 -227.14510679 499.72672999 C-235.92371538 499.59979397 -243.6520367 496.79913113 -250.28302336 490.90917361 C-256.88748716 484.05585695 -258.46890258 476.56441678 -258.40234375 467.359375 C-258.40521393 466.47251511 -258.40808411 465.58565521 -258.41104126 464.67192078 C-258.4130704 462.81048946 -258.4076216 460.94903625 -258.39501953 459.08764648 C-258.37889151 456.2434942 -258.39493666 453.40075041 -258.4140625 450.55664062 C-258.41208098 448.7408823 -258.40823921 446.92512484 -258.40234375 445.109375 C-258.41145279 443.84049187 -258.41145279 443.84049187 -258.42074585 442.54597473 C-258.35458082 436.98596341 -257.47506548 433.5431379 -253.5390625 429.38671875 C-248.98556038 425.66661622 -246.00266039 424.79898635 -240.23828125 424.8359375 C-239.34882813 424.83916016 -238.459375 424.84238281 -237.54296875 424.84570312 C-236.62257812 424.85408203 -235.7021875 424.86246094 -234.75390625 424.87109375 C-233.35011719 424.87786133 -233.35011719 424.87786133 -231.91796875 424.88476562 C-229.61321584 424.89652457 -227.30859398 424.91295949 -225.00390625 424.93359375 C-225.32987793 424.10005371 -225.65584961 423.26651367 -225.99169922 422.40771484 C-227.11704234 418.54528537 -227.23136692 415.3661777 -227.19921875 411.34765625 C-227.19638885 410.6458725 -227.19355896 409.94408875 -227.19064331 409.22103882 C-227.17953137 407.00004347 -227.15444459 404.7794653 -227.12890625 402.55859375 C-227.11886479 401.0442767 -227.10974098 399.52995326 -227.1015625 398.015625 C-227.07962179 394.32148117 -227.045155 390.62757824 -227.00390625 386.93359375 C-227.76510269 386.93803497 -228.52629913 386.9424762 -229.31056213 386.947052 C-236.50456853 386.98722306 -243.69852008 387.01762593 -250.8926096 387.03721809 C-254.59064606 387.04762941 -258.28858939 387.06173978 -261.98657227 387.08447266 C-265.55921779 387.10629614 -269.13177405 387.1181823 -272.70448112 387.12334824 C-274.06355124 387.127027 -275.4226168 387.13421053 -276.78164864 387.14505386 C-293.53423569 387.27333152 -293.53423569 387.27333152 -298.15127563 382.89920044 C-300.65834304 378.88600114 -300.56060791 375.82360088 -300.50561523 371.18359375 C-300.51101822 370.31307373 -300.5164212 369.44255371 -300.52198792 368.5456543 C-300.53447205 365.67461919 -300.51798631 362.80458748 -300.5 359.93359375 C-300.500155 357.9348953 -300.50164406 355.93619654 -300.50440979 353.9375 C-300.50579364 349.75116672 -300.49323785 345.5651761 -300.47045898 341.37890625 C-300.44207455 336.01536789 -300.44481193 330.65239884 -300.4575491 325.28881836 C-300.46450723 321.16238552 -300.45671541 317.03608404 -300.44429207 312.90966797 C-300.43977889 310.93213403 -300.4394396 308.95458599 -300.44335747 306.97705078 C-300.44627098 304.21227152 -300.42975595 301.44827416 -300.40795898 298.68359375 C-300.41246063 297.86785889 -300.41696228 297.05212402 -300.42160034 296.21166992 C-300.36207041 291.66233643 -300.02700785 288.57608978 -297.00390625 284.93359375 C-293.68161084 282.51097516 -290.51288105 282.69119308 -286.49121094 282.70654297 C-285.84689117 282.70625092 -285.20257141 282.70595886 -284.53872681 282.70565796 C-282.41760604 282.70704681 -280.29684035 282.72258659 -278.17578125 282.73828125 C-276.70176383 282.74201297 -275.22774393 282.74485919 -273.75372314 282.74685669 C-269.88046378 282.75448064 -266.0073552 282.7741184 -262.13415527 282.79626465 C-258.17930135 282.81674981 -254.22442298 282.82586411 -250.26953125 282.8359375 C-242.51425429 282.85736554 -234.75910143 282.89148643 -227.00390625 282.93359375 C-227.0127887 282.17905914 -227.02167114 281.42452454 -227.03082275 280.64712524 C-227.11133544 273.49823034 -227.17205522 266.34955866 -227.21115494 259.20032692 C-227.23193312 255.52576813 -227.26006855 251.85158738 -227.30566406 248.17724609 C-227.34947532 244.6240104 -227.3731166 241.07113579 -227.38341522 237.5176506 C-227.39428409 235.51812568 -227.4254526 233.51874382 -227.45709229 231.5194397 C-227.45951721 221.56261784 -225.80531025 212.96172706 -218.84375 205.46875 C-211.27879539 199.15659042 -203.19213672 197.77583025 -193.63354492 197.82006836 C-192.80376129 197.81992233 -191.97397766 197.81977631 -191.11904907 197.81962585 C-188.38663078 197.82032042 -185.65428133 197.82809146 -182.921875 197.8359375 C-181.02330055 197.8378033 -179.12472562 197.83922644 -177.22615051 197.84022522 C-172.23669091 197.84403765 -167.24726057 197.85385705 -162.2578125 197.8649292 C-157.16341548 197.87517072 -152.06901373 197.87972871 -146.97460938 197.88476562 C-136.9843601 197.89548047 -126.99414019 197.91306695 -117.00390625 197.93359375 C-117.33390625 190.34359375 -117.66390625 182.75359375 -118.00390625 174.93359375 C-120.87078125 175.01609375 -123.73765625 175.09859375 -126.69140625 175.18359375 C-142.89622175 175.34856706 -155.1268683 170.05088454 -166.7421875 158.921875 C-169.57975525 156.3892665 -169.57975525 156.3892665 -173.00390625 154.93359375 C-175.52877012 155.74851876 -175.52877012 155.74851876 -178.00390625 157.24609375 C-187.48518257 162.52149902 -199.31983894 162.40822303 -209.79296875 160.09765625 C-222.07598456 155.72971029 -230.3802285 148.04714508 -236.21875 136.5390625 C-241.54919224 125.10042665 -241.44971609 112.86019266 -237.328125 100.97265625 C-232.93336536 90.88674769 -225.3501374 82.440245 -215.30078125 77.77734375 C-210.65331401 76.07011089 -205.83280855 74.99595226 -201.00390625 73.93359375 C-200.978125 72.92941406 -200.95234375 71.92523438 -200.92578125 70.890625 C-200.5120033 59.70349902 -199.47811303 47.85442119 -192.00390625 38.93359375 C-189.00390625 36.93359375 -189.00390625 36.93359375 -185.50390625 37.12109375 C-182.00390625 37.93359375 -182.00390625 37.93359375 -180.12890625 39.12109375 C-178.5146279 41.72187554 -178.26575267 43.89101207 -178.00390625 46.93359375 C-179 49.51953125 -179 49.51953125 -180.44140625 52.30859375 C-183.70605911 59.9854205 -183.30230679 67.29632398 -182.81811523 75.53076172 C-182.46226696 84.02312544 -182.46226696 84.02312544 -185.0234375 87.58984375 C-188.58447281 90.39013364 -191.3226405 90.8277863 -195.69140625 90.99609375 C-203.49878382 91.65574692 -210.07324888 93.01969824 -215.8359375 98.7578125 C-220.86187592 104.98214986 -223.59852326 111.59117328 -223.29296875 119.6328125 C-222.47617796 126.13402568 -220.33523416 131.0048413 -216.00390625 135.93359375 C-216.00390625 136.59359375 -216.00390625 137.25359375 -216.00390625 137.93359375 C-215.41222656 138.21976563 -214.82054687 138.5059375 -214.2109375 138.80078125 C-212.00390625 139.93359375 -212.00390625 139.93359375 -208.69140625 142.05859375 C-202.07849749 145.35884465 -193.47859816 145.22291176 -186.46875 143.203125 C-183.08118043 141.60398329 -180.85782612 139.79386493 -178.12890625 137.18359375 C-174.33618865 134.45283708 -171.98912497 134.07676584 -167.390625 134.32421875 C-163.10571141 135.41823924 -161.3989629 138.42394011 -159.00390625 141.93359375 C-152.73370184 150.08016855 -145.28476777 155.88208293 -135.00390625 157.93359375 C-131.85156986 158.1576209 -128.72454305 158.12475939 -125.56640625 158.05859375 C-124.73947266 158.04957031 -123.91253906 158.04054687 -123.06054688 158.03125 C-121.04153917 158.00790887 -119.02268269 157.97204663 -117.00390625 157.93359375 C-117.0127887 157.26596008 -117.02167114 156.59832642 -117.03082275 155.91046143 C-117.11925098 148.96773837 -117.17962201 142.02517504 -117.22363281 135.08203125 C-117.24376 132.49016829 -117.27106441 129.89835079 -117.30566406 127.30664062 C-117.35413126 123.58321926 -117.37686441 119.86039776 -117.39453125 116.13671875 C-117.41517639 114.97617981 -117.43582153 113.81564087 -117.45709229 112.61993408 C-117.45739441 111.5391156 -117.45769653 110.45829712 -117.45800781 109.34472656 C-117.46689026 108.39430481 -117.47577271 107.44388306 -117.48492432 106.46466064 C-116.85513342 103.15076662 -115.64602674 101.97111944 -113.00390625 99.93359375 C-109.25041163 99.46440692 -106.96542172 99.40222994 -103.62890625 101.24609375 C-101.06216707 103.91155366 -100.87470474 106.50366384 -100.79858398 110.0378418 C-100.77863876 110.85846603 -100.75869354 111.67909027 -100.73814392 112.52458191 C-100.71307518 113.84659355 -100.71307518 113.84659355 -100.6875 115.1953125 C-100.65632835 116.554002 -100.65632835 116.554002 -100.62452698 117.94013977 C-100.55914067 120.83371391 -100.50019721 123.72737882 -100.44140625 126.62109375 C-100.39821065 128.58269168 -100.35459602 130.54428043 -100.31054688 132.50585938 C-100.20347043 137.31501114 -100.10217211 142.12425421 -100.00390625 146.93359375 C-99.25882813 146.28648437 -98.51375 145.639375 -97.74609375 144.97265625 C-94.76182545 142.75358495 -92.78064452 142.22444859 -89.05859375 142.4140625 C-84.20920709 143.64023821 -81.03695216 147.57891912 -78.109375 151.41796875 C-70.82011004 160.12722039 -59.08549724 164.25009691 -48.078125 165.3125 C-34.63954142 165.92084426 -22.56001512 162.42958455 -12.00390625 153.93359375 C-9.46535821 151.36848392 -7.09446942 148.74182669 -4.78125 145.97265625 C-2.17025962 142.97719036 -1.27735889 142.9560079 2.80859375 142.62109375 C7.47784715 142.35918205 7.72766271 143.51884892 11.99609375 146.93359375 C11.99609375 132.41359375 11.99609375 117.89359375 11.99609375 102.93359375 C9.02609375 105.90359375 6.05609375 108.87359375 2.99609375 111.93359375 C-8.05705829 122.01146767 -8.05705829 122.01146767 -13.12890625 121.80859375 C-16.09546251 120.9057288 -17.28163582 120.47167649 -19.00390625 117.93359375 C-20.39001807 113.88188229 -19.84737245 111.72262581 -18.00390625 107.93359375 C-16.12109375 105.72265625 -16.12109375 105.72265625 -13.87890625 103.55859375 C-13.06550781 102.77097656 -12.25210937 101.98335938 -11.4140625 101.171875 C-8.79501834 98.73960222 -6.10221186 96.41601288 -3.3828125 94.09765625 C0.59814217 90.4762295 4.33276014 86.59988418 8.07299805 82.73168945 C8.65090088 82.14218506 9.22880371 81.55268066 9.82421875 80.9453125 C10.59620605 80.14806763 10.59620605 80.14806763 11.38378906 79.3347168 C14.36487765 76.74409484 16.34855014 75.92751353 20.32421875 75.96484375 C24.94186103 77.18311533 27.31610797 79.230029 30.74609375 82.43359375 C31.97563148 83.53489448 33.20611025 84.63514545 34.4375 85.734375 C35.03965332 86.27916504 35.64180664 86.82395508 36.26220703 87.38525391 C38.67528755 89.54010559 41.17069764 91.58409762 43.68359375 93.62109375 C44.55242187 94.32878906 45.42125 95.03648438 46.31640625 95.765625 C48.22426125 97.30915201 50.13615938 98.84768729 52.05078125 100.3828125 C53.04335938 101.18332031 54.0359375 101.98382813 55.05859375 102.80859375 C55.95707031 103.52789062 56.85554688 104.2471875 57.78125 104.98828125 C60.86432107 107.69616378 61.93342902 109.24428173 62.30859375 113.37109375 C61.99609375 116.93359375 61.99609375 116.93359375 60.93359375 119.30859375 C57.98717748 121.77978159 55.80241585 121.93359375 51.99609375 121.93359375 C46.89202466 118.98893851 42.59219575 115.12996458 38.18359375 111.24609375 C37.16362305 110.35567383 37.16362305 110.35567383 36.12304688 109.44726562 C31.24113343 105.17863343 31.24113343 105.17863343 29.99609375 103.93359375 C29.66609375 121.75359375 29.33609375 139.57359375 28.99609375 157.93359375 C49.72044903 158.11356417 49.72044903 158.11356417 65.99609375 147.93359375 C68.61798704 145.1812271 71.075196 142.33966246 73.16015625 139.15625 C74.7631194 136.83904137 76.22783913 135.175395 78.95703125 134.31640625 C85.18129504 133.7704182 88.8932717 136.44017624 93.63671875 140.20703125 C100.16593009 144.98503028 107.18859444 144.6354888 114.99609375 143.93359375 C123.63351704 141.65410258 128.37302681 136.26159629 132.98046875 128.8984375 C135.91938656 123.21276188 135.91964722 116.35676476 134.27734375 110.26953125 C131.20369572 102.064874 127.06361931 96.75206981 119.08984375 92.9453125 C114.68269479 91.50408576 110.24284333 91.09409598 105.61791992 90.91699219 C101.84873675 90.65925441 100.01057987 89.94494311 97.01953125 87.6015625 C93.72178535 83.01128094 94.62630864 77.56273518 94.93359375 72.18359375 C95.54779713 60.8596602 93.63938628 53.23420329 86.99609375 43.93359375 C86.66609375 43.19109375 86.33609375 42.44859375 85.99609375 41.68359375 C84.68587922 39.39071832 83.36824423 39.05680281 80.99609375 37.93359375 C78.79408863 36.6844563 76.60056567 35.42169762 74.41015625 34.15234375 C65.86222922 29.83688544 56.09702537 29.6788455 46.82421875 31.5859375 C38.20151363 34.42363565 31.35990618 39.63880884 25.99609375 46.93359375 C22.50100233 48.68113946 18.81013879 48.48414286 14.99609375 47.93359375 C10.13863272 44.73208535 8.5316373 39.95402869 6.31640625 34.78515625 C4.33180707 30.49889176 1.7523924 26.75359075 -1.00390625 22.93359375 C-1.87015625 21.63421875 -1.87015625 21.63421875 -2.75390625 20.30859375 C-11.84970342 10.70747451 -25.48345764 4.23249142 -38.703125 3.59765625 C-55.27052407 3.29783855 -70.75522864 6.60806654 -83.3828125 18.17578125 C-88.76576266 24.01271516 -92.70314337 30.75802227 -96.00390625 37.93359375 C-96.68315315 39.39578936 -97.37060135 40.85420456 -98.06640625 42.30859375 C-98.36675781 42.95570312 -98.66710937 43.6028125 -98.9765625 44.26953125 C-100.00390625 45.93359375 -100.00390625 45.93359375 -103.00390625 47.93359375 C-106.06914514 48.47890778 -108.93580617 48.46126344 -112.00390625 47.93359375 C-114.62890625 45.80859375 -114.62890625 45.80859375 -117.00390625 42.93359375 C-124.40994354 35.58526584 -133.11313209 30.82126601 -143.6394043 30.79589844 C-144.33718994 30.80008789 -145.03497559 30.80427734 -145.75390625 30.80859375 C-146.82862183 30.80714355 -146.82862183 30.80714355 -147.92504883 30.80566406 C-151.5933488 30.8240327 -155.08716206 31.00563611 -158.69140625 31.68359375 C-162.00390625 31.93359375 -162.00390625 31.93359375 -164.94140625 30.43359375 C-167.65538163 27.14392663 -168.15323171 25.18936946 -168.00390625 20.93359375 C-164.80936667 16.44127247 -161.25325056 14.94361157 -156.00390625 13.93359375 C-140.00082602 12.34904368 -126.44642775 14.85080895 -113.00390625 23.93359375 C-112.01390625 24.59359375 -111.02390625 25.25359375 -110.00390625 25.93359375 C-109.53082031 25.18335938 -109.05773437 24.433125 -108.5703125 23.66015625 C-96.7997271 5.44213518 -81.94111107 -7.11058861 -60.45703125 -12.37109375 C-39.11079086 -16.24592197 -17.92181698 -12.3285321 0 0 Z M-101.00390625 167.93359375 C-101.00390625 177.83359375 -101.00390625 187.73359375 -101.00390625 197.93359375 C-63.38390625 197.93359375 -25.76390625 197.93359375 12.99609375 197.93359375 C12.99609375 188.03359375 12.99609375 178.13359375 12.99609375 167.93359375 C10.02609375 165.95359375 7.05609375 163.97359375 3.99609375 161.93359375 C2.86171875 162.79984375 1.72734375 163.66609375 0.55859375 164.55859375 C-0.95890842 165.6880831 -2.47988565 166.81291528 -4.00390625 167.93359375 C-4.70128906 168.44792969 -5.39867187 168.96226562 -6.1171875 169.4921875 C-20.77091255 179.80605248 -37.57218774 182.98629365 -55.17333984 180.64501953 C-68.36573265 178.35135964 -79.72326517 172.73815187 -89.39453125 163.4375 C-93.72022368 159.39528742 -94.37133803 163.5118816 -101.00390625 167.93359375 Z M101.68359375 191.43359375 C99.10816055 195.24905034 98.86684225 198.11332188 98.83837891 202.61083984 C98.82298569 204.35812881 98.82298569 204.35812881 98.80728149 206.14071655 C98.79998016 207.4001004 98.79267883 208.65948425 98.78515625 209.95703125 C98.76427632 211.93327009 98.74337903 213.90950892 98.72145653 215.88573647 C98.66830603 220.76164578 98.62408108 225.63756024 98.59472656 230.51367188 C98.57781823 233.2489741 98.55311703 235.98399441 98.51986694 238.71914673 C98.48888099 241.29550767 98.46947549 243.87203926 98.46279907 246.44857788 C98.4462326 247.61974152 98.42966614 248.79090515 98.41259766 249.99755859 C98.4045108 251.02553558 98.39642395 252.05351257 98.38809204 253.11264038 C97.84013287 257.05594145 96.34429752 259.83538554 93.25024414 262.35571289 C92.62110107 262.72301514 91.99195801 263.09031738 91.34375 263.46875 C90.64958984 263.88576172 89.95542969 264.30277344 89.24023438 264.73242188 C88.52029297 265.14943359 87.80035156 265.56644531 87.05859375 265.99609375 C80.52907843 269.81091803 80.52907843 269.81091803 74.99609375 274.93359375 C76.87554687 275.29710937 76.87554687 275.29710937 78.79296875 275.66796875 C80.44417329 276.00571513 82.09520628 276.34430093 83.74609375 276.68359375 C84.57109375 276.84085937 85.39609375 276.998125 86.24609375 277.16015625 C90.93886169 278.14412372 93.99222108 278.91789028 96.99609375 282.93359375 C98.40055031 285.74250687 98.14173619 288.12294627 98.171875 291.26171875 C98.19572266 292.53660156 98.21957031 293.81148438 98.24414062 295.125 C98.27914461 297.15033532 98.3085371 299.17508367 98.32202148 301.20068359 C98.33759973 303.15874958 98.37948841 305.1165496 98.421875 307.07421875 C98.43645752 308.24500977 98.45104004 309.41580078 98.46606445 310.62207031 C99.30340249 315.85360101 101.57979453 318.79485635 105.66389465 322.0785675 C109.476073 324.2007969 112.4064037 324.4948531 116.65039062 324.43530273 C117.39265396 324.44070572 118.1349173 324.4461087 118.89967346 324.45167542 C121.33847679 324.46412094 123.77608983 324.44770069 126.21484375 324.4296875 C127.91825421 324.42984259 129.62166502 324.43133316 131.32507324 324.43409729 C134.88923812 324.43547941 138.45299967 324.42295487 142.01708984 324.40014648 C146.5767728 324.37176228 151.13578598 324.37450162 155.69551849 324.3872366 C159.21121909 324.39420449 162.72676594 324.38639184 166.2424469 324.37397957 C167.92329824 324.36947585 169.60416614 324.3691188 171.28501892 324.37304497 C173.63762015 324.37596816 175.98931096 324.35939847 178.34179688 324.33764648 C179.37531029 324.34439896 179.37531029 324.34439896 180.42970276 324.35128784 C184.9961624 324.28143237 188.12116909 323.33812368 191.99609375 320.93359375 C196.06958076 315.86925855 197.11641736 311.57484342 197.12980652 305.20339966 C197.1340715 304.28108551 197.13833649 303.35877136 197.14273071 302.4085083 C197.14227753 301.40890076 197.14182434 300.40929321 197.14135742 299.37939453 C197.14471603 298.31701569 197.14807465 297.25463684 197.15153503 296.1600647 C197.16103047 292.64966664 197.16298742 289.13931635 197.1640625 285.62890625 C197.16727594 283.18659445 197.17064008 280.74428283 197.17414856 278.30197144 C197.18013622 273.1825923 197.18198882 268.06323004 197.18139648 262.94384766 C197.18129486 256.38789035 197.19494936 249.83204133 197.21216869 243.2761097 C197.22329331 238.23175562 197.22531555 233.18742768 197.22478676 228.14306259 C197.22596609 225.72618105 197.23038521 223.30929881 197.23811913 220.89242935 C197.24792857 217.5104033 197.24503709 214.12861195 197.23901367 210.74658203 C197.24463318 209.75102295 197.25025269 208.75546387 197.25604248 207.72973633 C197.22593139 201.06820934 197.07134961 195.45755358 192.68359375 190.12109375 C187.81604846 186.15913829 183.84558135 185.68087943 177.63891602 185.65893555 C176.91630585 185.65382462 176.19369568 185.64871368 175.44918823 185.64344788 C173.07020695 185.6295943 170.69151673 185.63050537 168.3125 185.6328125 C166.65250034 185.62892333 164.99250166 185.6245882 163.33250427 185.61982727 C159.85664643 185.61237424 156.38089019 185.61264974 152.9050293 185.61791992 C148.45858383 185.62371433 144.01255494 185.60677998 139.56617832 185.58357525 C136.138866 185.56881862 132.71165357 185.56796881 129.28431511 185.57108498 C127.64531568 185.57057277 126.00631051 185.56535387 124.367342 185.55527306 C122.07217729 185.54288778 119.77781855 185.54971211 117.48266602 185.5612793 C116.17870377 185.56064987 114.87474152 185.56002045 113.53126526 185.55937195 C108.41543054 186.10091764 105.16762097 187.66707783 101.68359375 191.43359375 Z M-209.41699219 219.26416016 C-211.88685358 224.97523965 -211.49365076 230.49211046 -211.39453125 236.64453125 C-211.38706208 237.98116201 -211.38137234 239.31780379 -211.37738037 240.65444946 C-211.36217678 244.15637957 -211.32294247 247.65763607 -211.27856445 251.15930176 C-211.23749652 254.738921 -211.21934493 258.3186501 -211.19921875 261.8984375 C-211.1564414 268.91045927 -211.08613602 275.92192473 -211.00390625 282.93359375 C-206.38390625 282.93359375 -201.76390625 282.93359375 -197.00390625 282.93359375 C-196.98932373 281.5360083 -196.97474121 280.13842285 -196.9597168 278.69848633 C-196.90169794 273.50796053 -196.82446462 268.3178669 -196.74145508 263.12768555 C-196.70822274 260.88231425 -196.68018556 258.63685975 -196.6574707 256.39135742 C-196.62389423 253.16158632 -196.57157552 249.93257648 -196.515625 246.703125 C-196.50604012 245.1997332 -196.50604012 245.1997332 -196.4962616 243.66596985 C-196.30446191 234.55184996 -196.30446191 234.55184996 -193.00390625 230.93359375 C-188.93461797 228.86547602 -185.44729521 228.6630082 -180.91870117 228.61474609 C-179.87885071 228.59967766 -179.87885071 228.59967766 -178.81799316 228.58430481 C-176.54012842 228.55356012 -174.26238074 228.5364623 -171.984375 228.51953125 C-170.39967345 228.50081255 -168.81498179 228.48123861 -167.2303009 228.46084595 C-163.06948691 228.40959275 -158.90864063 228.3699307 -154.74768066 228.33270264 C-150.49772193 228.29262017 -146.24789673 228.24154721 -141.99804688 228.19140625 C-133.6667513 228.09472758 -125.33540028 228.0113135 -117.00390625 227.93359375 C-117.00390625 223.31359375 -117.00390625 218.69359375 -117.00390625 213.93359375 C-127.70482524 213.86399624 -138.40569012 213.81073293 -149.10678959 213.77815723 C-154.07607599 213.76252029 -159.0452072 213.74131799 -164.0144043 213.70727539 C-168.81250465 213.67461169 -173.610456 213.65672591 -178.40865898 213.64896202 C-180.23664126 213.6434311 -182.06461564 213.63263053 -183.89253426 213.61640358 C-186.45856291 213.59453601 -189.02398062 213.5916307 -191.59008789 213.59301758 C-192.34103226 213.58223175 -193.09197662 213.57144592 -193.86567688 213.56033325 C-200.03577711 213.59627328 -204.84379177 214.84734802 -209.41699219 219.26416016 Z M-101.00390625 213.93359375 C-101.00390625 218.55359375 -101.00390625 223.17359375 -101.00390625 227.93359375 C-63.38390625 227.93359375 -25.76390625 227.93359375 12.99609375 227.93359375 C12.99609375 223.31359375 12.99609375 218.69359375 12.99609375 213.93359375 C-24.62390625 213.93359375 -62.24390625 213.93359375 -101.00390625 213.93359375 Z M28.99609375 213.93359375 C28.99609375 218.55359375 28.99609375 223.17359375 28.99609375 227.93359375 C46.81609375 227.93359375 64.63609375 227.93359375 82.99609375 227.93359375 C82.99609375 223.31359375 82.99609375 218.69359375 82.99609375 213.93359375 C65.17609375 213.93359375 47.35609375 213.93359375 28.99609375 213.93359375 Z M-181.00390625 243.93359375 C-181.00390625 256.80359375 -181.00390625 269.67359375 -181.00390625 282.93359375 C-176.71390625 283.26359375 -172.42390625 283.59359375 -168.00390625 283.93359375 C-166.35390625 284.59359375 -164.70390625 285.25359375 -163.00390625 285.93359375 C-161.33511795 289.84843201 -161.83288674 294.36728124 -161.81103516 298.57006836 C-161.80285767 299.44044235 -161.79468018 300.31081635 -161.78625488 301.20756531 C-161.76147005 304.08368244 -161.744906 306.95975058 -161.73046875 309.8359375 C-161.72514507 310.81895906 -161.7198214 311.80198063 -161.7143364 312.81479073 C-161.68763979 318.01413314 -161.66825041 323.21345179 -161.65380859 328.4128418 C-161.64044818 332.71676791 -161.61255188 337.02022229 -161.57177734 341.32397461 C-161.52253066 346.52224534 -161.49769804 351.72008695 -161.49058151 356.91858101 C-161.48386069 358.89895883 -161.46861711 360.87932677 -161.4446907 362.85957146 C-161.41312219 365.62946635 -161.41298926 368.39769755 -161.42041016 371.16772461 C-161.40400482 371.98503052 -161.38759949 372.80233643 -161.37069702 373.64440918 C-161.41697928 377.86379868 -161.64713751 379.47270807 -164.31845093 382.92359924 C-167.68923613 385.44654561 -170.15225563 385.8180035 -174.31640625 386.24609375 C-175.57066406 386.38660156 -176.82492188 386.52710938 -178.1171875 386.671875 C-179.06980469 386.75824219 -180.02242188 386.84460938 -181.00390625 386.93359375 C-181.00390625 389.57359375 -181.00390625 392.21359375 -181.00390625 394.93359375 C-90.58390625 394.93359375 -0.16390625 394.93359375 92.99609375 394.93359375 C97.61649979 357.11462208 97.61649979 357.11462208 86.99609375 324.93359375 C83.92378981 317.91773549 83.47635888 311.46845736 83.30859375 303.87109375 C83.27443359 302.81470703 83.24027344 301.75832031 83.20507812 300.66992188 C83.1234008 298.09125218 83.05399432 295.51288813 82.99609375 292.93359375 C79.69488279 291.53704086 76.5215151 290.50496524 73.01953125 289.75 C71.6428125 289.4415918 71.6428125 289.4415918 70.23828125 289.12695312 C68.32018346 288.70491935 66.40088966 288.28828652 64.48046875 287.87695312 C63.56523437 287.67005859 62.65 287.46316406 61.70703125 287.25 C60.87478027 287.06896729 60.0425293 286.88793457 59.18505859 286.70141602 C56.71418863 285.83471001 55.61010131 284.97673963 53.99609375 282.93359375 C52.77943273 279.28361069 52.24107602 275.71560918 52.99609375 271.93359375 C56.05374881 267.03025572 60.38388918 264.46962526 65.18359375 261.49609375 C65.9408374 261.01309814 66.69808105 260.53010254 67.47827148 260.0324707 C70.66268276 258.00279713 73.85921162 256.01421355 77.11328125 254.09765625 C77.92023438 253.61039062 78.7271875 253.123125 79.55859375 252.62109375 C80.24050781 252.23308594 80.92242187 251.84507812 81.625 251.4453125 C83.66790869 249.5330214 83.66790869 249.5330214 82.99609375 243.93359375 C65.17609375 243.93359375 47.35609375 243.93359375 28.99609375 243.93359375 C28.82565248 256.30409151 28.82565248 256.30409151 28.69824219 268.67504883 C28.6688772 270.22610453 28.63805225 271.77713357 28.60546875 273.328125 C28.60434082 274.13326538 28.60321289 274.93840576 28.60205078 275.76794434 C28.45630561 281.43867584 28.45630561 281.43867584 26.10546875 283.96679688 C23.51520422 285.15400145 22.04163364 285.07331344 19.24609375 284.62109375 C18.446875 284.50121094 17.64765625 284.38132812 16.82421875 284.2578125 C16.2209375 284.15082031 15.61765625 284.04382813 14.99609375 283.93359375 C11.75824568 270.98220147 13.36678381 257.27843587 12.99609375 243.93359375 C-24.62390625 243.93359375 -62.24390625 243.93359375 -101.00390625 243.93359375 C-101.00390625 257.13359375 -101.00390625 270.33359375 -101.00390625 283.93359375 C-96.69447452 280.23979512 -92.73711692 276.76653633 -88.81640625 272.74609375 C-81.28350818 265.02339038 -81.28350818 265.02339038 -76.44140625 264.68359375 C-73.00390625 264.93359375 -73.00390625 264.93359375 -70.00390625 265.93359375 C-69.18202444 269.66942016 -68.78983717 272.24857269 -69.94140625 275.93359375 C-72.15228088 279.1494114 -74.44429218 281.21139947 -77.4296875 283.68359375 C-80.78233258 286.61397853 -83.87797354 289.76496497 -87.00390625 292.93359375 C-101.9727237 307.9954098 -101.9727237 307.9954098 -108.00390625 308.93359375 C-112.99092357 307.59327845 -116.25797802 304.36641137 -120.00390625 300.99609375 C-121.33790975 299.81699301 -122.67255702 298.63862026 -124.0078125 297.4609375 C-124.67570801 296.86909668 -125.34360352 296.27725586 -126.03173828 295.66748047 C-128.96564969 293.08805006 -131.9521288 290.57336162 -134.94140625 288.05859375 C-135.4727417 287.60516602 -136.00407715 287.15173828 -136.55151367 286.68457031 C-138.8564578 284.71894003 -141.173909 282.80493608 -143.58984375 280.9765625 C-148.68269694 277.01843274 -148.68269694 277.01843274 -149.625 273.8359375 C-149.8192099 270.59322071 -149.43775038 268.46755576 -147.37890625 265.93359375 C-144.31977485 264.64553843 -142.3117136 264.60850212 -139.00390625 264.93359375 C-136.36328125 266.62109375 -136.36328125 266.62109375 -133.75390625 268.93359375 C-132.81289062 269.74699219 -131.871875 270.56039063 -130.90234375 271.3984375 C-129.94585937 272.23503906 -128.989375 273.07164062 -128.00390625 273.93359375 C-126.1377423 275.46525662 -124.26332123 276.98694193 -122.37890625 278.49609375 C-121.56164062 279.15738281 -120.744375 279.81867188 -119.90234375 280.5 C-118.26738855 282.03403108 -118.26738855 282.03403108 -117.00390625 281.93359375 C-117.00390625 269.39359375 -117.00390625 256.85359375 -117.00390625 243.93359375 C-138.12390625 243.93359375 -159.24390625 243.93359375 -181.00390625 243.93359375 Z M-285.00390625 298.93359375 C-285.00390625 322.69359375 -285.00390625 346.45359375 -285.00390625 370.93359375 C-249.03390625 370.93359375 -213.06390625 370.93359375 -176.00390625 370.93359375 C-176.00390625 347.17359375 -176.00390625 323.41359375 -176.00390625 298.93359375 C-211.97390625 298.93359375 -247.94390625 298.93359375 -285.00390625 298.93359375 Z M108.99609375 339.93359375 C108.98151123 341.84615967 108.96692871 343.75872559 108.9519043 345.72924805 C108.90021151 352.05573468 108.83491445 358.38196708 108.76037884 364.7082243 C108.71569391 368.54301022 108.67643391 372.37769038 108.6496582 376.21264648 C108.62360608 379.9151707 108.58319087 383.61728747 108.53290749 387.3195591 C108.51625154 388.73045589 108.50472931 390.14142314 108.49847984 391.5524044 C108.48882586 393.53203923 108.45905424 395.51154475 108.4284668 397.4909668 C108.41736374 398.61681686 108.40626068 399.74266693 108.39482117 400.90263367 C107.94860427 404.29458905 107.01955315 406.1986727 104.99609375 408.93359375 C102.53386298 410.16470913 100.92410724 410.0622805 98.16966438 410.06781483 C96.63121398 410.07450159 96.63121398 410.07450159 95.06168377 410.08132344 C93.92629914 410.08113908 92.7909145 410.08095472 91.62112427 410.08076477 C90.42167329 410.08444146 89.22222231 410.08811815 87.98642433 410.09190625 C84.64658901 410.10104508 81.30680288 410.10564539 77.96695971 410.10829556 C74.36905828 410.11219418 70.77117114 410.12177273 67.17327881 410.13050842 C58.47991824 410.15028397 49.78655649 410.16033981 41.09317905 410.16923621 C37.00231304 410.17361678 32.91144833 410.17898414 28.82058334 410.18422508 C15.22724488 410.20123743 1.63390724 410.21573299 -11.95944023 410.22297382 C-15.48809688 410.2248838 -19.01675353 410.22680413 -22.54541016 410.22875977 C-23.8610009 410.22948538 -23.8610009 410.22948538 -25.20316924 410.23022565 C-39.42027174 410.23853115 -53.63729024 410.2638768 -67.85435604 410.29634044 C-82.44064044 410.32937653 -97.0268821 410.3474194 -111.61320412 410.35061806 C-119.80702746 410.35278623 -128.00072827 410.36157956 -136.19451523 410.38707924 C-143.17066623 410.40873908 -150.14666494 410.41685999 -157.12284575 410.40711246 C-160.68389283 410.40255413 -164.24462538 410.40454209 -167.80562973 410.4238739 C-171.66220852 410.44463008 -175.5183492 410.43456417 -179.37496948 410.42134094 C-180.50589268 410.43231019 -181.63681587 410.44327943 -182.80200946 410.45458108 C-184.34828311 410.44170974 -184.34828311 410.44170974 -185.9257946 410.42857838 C-186.81629379 410.42955519 -187.70679298 410.43053199 -188.624277 410.4315384 C-191.77864626 409.77147705 -192.97079823 408.3732323 -195.00390625 405.93359375 C-196.65370695 402.63399234 -196.38648986 398.94231491 -196.56640625 395.30859375 C-196.60958984 394.50679688 -196.65277344 393.705 -196.69726562 392.87890625 C-196.80342082 390.89734265 -196.9041748 388.91549104 -197.00390625 386.93359375 C-201.62390625 386.93359375 -206.24390625 386.93359375 -211.00390625 386.93359375 C-211.07305032 390.95419321 -211.13269762 394.97326384 -211.16870117 398.99414062 C-211.18372053 400.35977191 -211.20414233 401.72535551 -211.23022461 403.09082031 C-211.26690762 405.0616328 -211.28209176 407.03280783 -211.296875 409.00390625 C-211.31258545 410.18742676 -211.3282959 411.37094727 -211.34448242 412.59033203 C-210.95430016 416.42055131 -210.10282498 418.71138649 -208.00390625 421.93359375 C-204.39322115 424.56256235 -201.87286007 425.30886956 -197.43630981 425.31111717 C-196.32171827 425.31894041 -195.20712673 425.32676366 -194.05875969 425.33482397 C-192.83941294 425.3281318 -191.62006618 425.32143964 -190.36376953 425.31454468 C-189.06445559 425.31922465 -187.76514164 425.32390462 -186.42645454 425.32872641 C-182.82162486 425.34125782 -179.21703322 425.33505641 -175.61220264 425.32576776 C-171.72393487 425.31898633 -167.83570834 425.32945398 -163.94744873 425.33770752 C-156.33100867 425.35105675 -148.71465723 425.34816183 -141.09821367 425.3394696 C-134.9089132 425.33269814 -128.71963759 425.331774 -122.53033447 425.33504105 C-121.64989066 425.33550075 -120.76944685 425.33596044 -119.86232293 425.33643407 C-118.07379325 425.33739324 -116.28526357 425.33836588 -114.4967339 425.33935185 C-97.72039914 425.34790923 -80.94411354 425.33806615 -64.16778684 425.32195075 C-49.76873431 425.30854725 -35.36975434 425.31087525 -20.97070312 425.32470703 C-4.25494886 425.3407567 12.46076231 425.34708522 29.17652321 425.33787024 C30.95852279 425.33691458 32.74052238 425.33597147 34.52252197 425.33504105 C35.39933054 425.33457822 36.2761391 425.33411539 37.17951763 425.33363854 C43.36234437 425.33104681 49.5451438 425.33542359 55.72796631 425.34247971 C63.26139454 425.3508881 70.79472899 425.34862852 78.32814646 425.33263747 C82.17280903 425.32474582 86.01731516 425.3216783 89.86197662 425.33158493 C94.02677336 425.34215426 98.19117403 425.32954572 102.35595703 425.31454468 C103.57530378 425.32123684 104.79465054 425.32792901 106.05094719 425.33482397 C107.16553873 425.32700072 108.28013027 425.31917748 109.42849731 425.31111717 C110.87059665 425.31038659 110.87059665 425.31038659 112.3418293 425.30964124 C115.53530312 424.85720033 117.39929278 423.82123861 119.99609375 421.93359375 C122.9566695 417.45624908 123.41862951 413.51210967 123.33666992 408.27587891 C123.33732704 407.16265762 123.33732704 407.16265762 123.33799744 406.02694702 C123.33591971 403.59190889 123.31263764 401.157573 123.2890625 398.72265625 C123.28346291 397.02729671 123.27919453 395.3319323 123.27619934 393.63656616 C123.2647791 389.1878708 123.23533642 384.73947218 123.2020874 380.29089355 C123.17132552 375.74605319 123.15768096 371.2011646 123.14257812 366.65625 C123.11046376 357.74854698 123.05771909 348.84114154 122.99609375 339.93359375 C118.37609375 339.93359375 113.75609375 339.93359375 108.99609375 339.93359375 Z M-81.00390625 441.93359375 C-81.00390625 445.56359375 -81.00390625 449.19359375 -81.00390625 452.93359375 C-78.11393949 454.37857713 -75.61169413 454.06090496 -72.3828125 454.06298828 C-71.70298309 454.0647406 -71.02315369 454.06649292 -70.32272339 454.06829834 C-68.07059188 454.0727075 -65.81853859 454.06978216 -63.56640625 454.06640625 C-62.00463852 454.06707956 -60.44287089 454.06804981 -58.88110352 454.06930542 C-55.60594689 454.07078112 -52.33081752 454.06863192 -49.05566406 454.06396484 C-44.85213553 454.05826763 -40.64867084 454.06154731 -36.44514465 454.06753731 C-33.21959958 454.07114635 -29.9940697 454.07000275 -26.76852417 454.06740952 C-25.21833285 454.0667412 -23.66814016 454.06756536 -22.11795044 454.06988907 C-19.9535963 454.0724212 -17.78934636 454.06856707 -15.625 454.06298828 C-14.39193115 454.06219269 -13.1588623 454.06139709 -11.88842773 454.06057739 C-9.06200439 454.1324112 -9.06200439 454.1324112 -7.00390625 452.93359375 C-7.00390625 449.30359375 -7.00390625 445.67359375 -7.00390625 441.93359375 C-31.42390625 441.93359375 -55.84390625 441.93359375 -81.00390625 441.93359375 Z " fill="#000000" transform="translate(300.00390625,13.06640625)"/>
<path d="M0 0 C0.86500122 -0.00426498 1.73000244 -0.00852997 2.62121582 -0.01292419 C4.04029991 -0.01224442 4.04029991 -0.01224442 5.48805237 -0.0115509 C6.48668304 -0.01490952 7.48531372 -0.01826813 8.51420593 -0.02172852 C11.82263932 -0.03124476 15.13102215 -0.03318191 18.43946838 -0.03425598 C20.73488384 -0.03746788 23.03029909 -0.0408319 25.32571411 -0.04434204 C30.1400856 -0.05033485 34.95443913 -0.05218176 39.76881409 -0.05158997 C45.94398625 -0.05148829 52.11904357 -0.06514582 58.2941885 -0.08236217 C63.03560924 -0.09346887 67.7770021 -0.09550959 72.51843452 -0.09498024 C74.79545043 -0.09616216 77.07246701 -0.10059576 79.34947014 -0.10831261 C82.53116326 -0.1180864 85.71260539 -0.1152448 88.89430237 -0.10920715 C90.31035011 -0.11763641 90.31035011 -0.11763641 91.75500488 -0.12623596 C93.05673645 -0.11994423 93.05673645 -0.11994423 94.38476562 -0.11352539 C95.13673942 -0.11407016 95.88871321 -0.11461493 96.66347408 -0.1151762 C99.08409779 0.17275459 100.67718281 0.87659116 102.75587463 2.13371277 C104.64473717 4.65219615 104.76303302 5.96191145 104.63087463 9.13371277 C103.56289051 12.79537261 102.8631826 13.9050219 99.75587463 16.13371277 C96.41767632 16.73948408 93.11143183 16.67980523 89.72657776 16.65129089 C88.70829391 16.65830017 87.69001007 16.66530945 86.64086914 16.67253113 C83.27267745 16.69014582 79.90532497 16.67847553 76.53712463 16.66496277 C74.19829649 16.66765667 71.85946944 16.67153824 69.52064514 16.67655945 C64.61798951 16.68245923 59.71562531 16.67387575 54.81300354 16.65519714 C48.52445021 16.63240774 42.23657972 16.64552819 35.94805145 16.669487 C31.11822858 16.68393176 26.28856796 16.67934497 21.45874023 16.66897583 C19.13986124 16.66630491 16.82096758 16.66959108 14.50210571 16.67889404 C11.26272994 16.68903748 8.02446445 16.67358831 4.78517151 16.65129089 C3.34342812 16.66343628 3.34342812 16.66343628 1.87255859 16.67582703 C-4.6180908 16.59293571 -4.6180908 16.59293571 -7.81236267 14.24980164 C-9.53814398 11.69916485 -10.17046605 10.22740387 -10.24412537 7.13371277 C-8.99412537 3.88371277 -8.99412537 3.88371277 -7.24412537 1.13371277 C-4.48268237 0.21323177 -2.84636411 0.00634657 0 0 Z " fill="#000000" transform="translate(251.24412536621094,372.8662872314453)"/>
<path d="M0 0 C0.88182953 -0.00708481 1.76365906 -0.01416962 2.67221069 -0.02146912 C3.63696823 -0.0189917 4.60172577 -0.01651428 5.59571838 -0.01396179 C6.6138562 -0.01907272 7.63199402 -0.02418365 8.6809845 -0.02944946 C12.05439596 -0.04337614 15.42760382 -0.04238638 18.80104065 -0.04008484 C21.14129716 -0.04397004 23.48155297 -0.04830434 25.82180786 -0.05307007 C30.73035466 -0.06053888 35.63882954 -0.06023617 40.54737854 -0.05497742 C46.84368589 -0.04918158 53.13969919 -0.06611357 59.43595791 -0.08932209 C64.2700371 -0.10403976 69.10404515 -0.10493381 73.93814278 -0.10181236 C76.25981796 -0.10232655 78.58149703 -0.1075825 80.90315056 -0.11762428 C84.14722282 -0.12993322 87.39071815 -0.12323006 90.63478088 -0.11161804 C92.07888084 -0.12308365 92.07888084 -0.12308365 93.55215454 -0.13478088 C94.43680389 -0.12776657 95.32145325 -0.12075226 96.23291016 -0.11352539 C96.99963264 -0.11369313 97.76635511 -0.11386087 98.55631161 -0.1140337 C101.28906446 0.36817941 102.66339421 1.38084962 104.6799469 3.26069641 C105.68912344 6.5765622 105.83369513 8.64570348 104.9924469 12.01069641 C103.44113968 14.67008021 102.49608084 15.13559135 99.6799469 16.26069641 C97.59033966 16.51237869 97.59033966 16.51237869 95.31556702 16.5146637 C94.44919113 16.52030334 93.58281525 16.52594299 92.69018555 16.53175354 C91.74772476 16.52770508 90.80526398 16.52365662 89.83424377 16.51948547 C88.83546707 16.52299011 87.83669037 16.52649475 86.80764771 16.53010559 C83.5045935 16.5389115 80.2017533 16.53307769 76.8986969 16.52632141 C74.60471048 16.52766839 72.31072433 16.52960919 70.01673889 16.53211975 C65.20832095 16.53506947 60.3999773 16.53077819 55.59156799 16.5214386 C49.4242588 16.51004422 43.25712367 16.51660449 37.08982086 16.52858353 C32.35268336 16.53580618 27.61558722 16.53351231 22.87844849 16.52832794 C20.60422749 16.52699257 18.33000276 16.52863523 16.05578613 16.53328705 C12.87897273 16.53835885 9.70244232 16.53063262 6.52565002 16.51948547 C5.58318924 16.52353394 4.64072845 16.5275824 3.66970825 16.53175354 C2.80333237 16.52611389 1.93695648 16.52047424 1.04432678 16.5146637 C-0.08168568 16.51353262 -0.08168568 16.51353262 -1.23044586 16.51237869 C-3.69095387 16.21602335 -5.24893823 15.62131574 -7.3200531 14.26069641 C-8.83148298 10.61952444 -9.57803297 8.31606859 -8.6325531 4.44819641 C-6.39530163 0.71944396 -4.10455308 0.01099519 0 0 Z " fill="#000000" transform="translate(250.32005310058594,346.7393035888672)"/>
<path d="M0 0 C1.8170343 -0.01418472 1.8170343 -0.01418472 3.67077637 -0.02865601 C4.98018188 -0.02258331 6.2895874 -0.01651062 7.63867188 -0.01025391 C8.99483395 -0.01227492 10.35099497 -0.01518658 11.70715332 -0.01895142 C14.54852654 -0.02337356 17.38961672 -0.01694764 20.23095703 -0.00292969 C23.87294291 0.01416263 27.51426557 0.00432079 31.15622711 -0.01364708 C33.95637 -0.02448816 36.75635567 -0.0210372 39.5565033 -0.0132637 C41.55236237 -0.01028939 43.54822756 -0.0193998 45.54406738 -0.02865601 C46.75542358 -0.01919952 47.96677979 -0.00974304 49.21484375 0 C50.28279175 0.00238678 51.35073975 0.00477356 52.4510498 0.00723267 C55.10742188 0.38818359 55.10742188 0.38818359 56.92102051 1.73275757 C58.73855765 4.26882872 58.98365773 6.29407994 59.10742188 9.38818359 C57.8892331 12.20925233 56.94282248 13.85922323 54.33311462 15.51164246 C51.65226504 16.56743731 49.56425366 16.64891763 46.68383789 16.6628418 C45.05678673 16.67713982 45.05678673 16.67713982 43.39686584 16.69172668 C42.2301384 16.69081528 41.06341095 16.68990387 39.86132812 16.68896484 C38.65806381 16.69324997 37.4547995 16.6975351 36.21507263 16.70195007 C33.67065053 16.70769257 31.126212 16.70819424 28.58178711 16.70385742 C24.68835449 16.70069855 20.79568236 16.72415517 16.90234375 16.74951172 C14.4303395 16.7517848 11.95833321 16.75248817 9.48632812 16.75146484 C8.32162491 16.76067459 7.15692169 16.76988434 5.95692444 16.77937317 C4.8690715 16.77314438 3.78121857 16.76691559 2.66040039 16.76049805 C1.70649918 16.76112747 0.75259796 16.7617569 -0.23020935 16.7624054 C-3.43726722 16.31162225 -5.28876293 15.29049466 -7.89257812 13.38818359 C-9.89257812 10.38818359 -9.89257812 10.38818359 -9.70507812 6.88818359 C-8.29078283 0.79583463 -6.05002331 0.01352133 0 0 Z " fill="#000000" transform="translate(40.892578125,351.61181640625)"/>
<path d="M0 0 C1.50312744 -0.00717545 1.50312744 -0.00717545 3.03662109 -0.01449585 C5.15138319 -0.01789228 7.26619798 -0.00870791 9.38085938 0.01220703 C12.61447421 0.03897537 15.8446179 0.01244957 19.078125 -0.01953125 C21.13542431 -0.01622711 23.19272147 -0.00982078 25.25 0 C26.21470215 -0.01012115 27.1794043 -0.02024231 28.17333984 -0.03067017 C32.77720423 0.04955707 34.95336447 0.16318355 38.734375 2.98291016 C40.625 5.6640625 40.625 5.6640625 41.25 9.2265625 C40.625 12.6640625 40.625 12.6640625 38.734375 14.84350586 C34.25941812 17.46361841 30.35091824 17.25669435 25.25 17.23046875 C23.74687256 17.23976662 23.74687256 17.23976662 22.21337891 17.24925232 C20.09864268 17.25634357 17.98385055 17.25318866 15.86914062 17.24047852 C12.63567343 17.22660828 9.4050981 17.26070049 6.171875 17.29882812 C4.11458263 17.29977931 2.05728663 17.29792051 0 17.29296875 C-0.96470215 17.30622696 -1.9294043 17.31948517 -2.92333984 17.33314514 C-7.55488666 17.26896422 -9.69609631 17.17755804 -13.484375 14.31225586 C-15.375 11.6640625 -15.375 11.6640625 -16 8.6640625 C-14.18123911 -0.06598976 -7.43136459 -0.07796602 0 0 Z " fill="#000000" transform="translate(434.375,282.3359375)"/>
<path d="M0 0 C1.50312744 -0.00717545 1.50312744 -0.00717545 3.03662109 -0.01449585 C5.15138319 -0.01789228 7.26619798 -0.00870791 9.38085938 0.01220703 C12.61447421 0.03897537 15.8446179 0.01244957 19.078125 -0.01953125 C21.13542431 -0.01622711 23.19272147 -0.00982078 25.25 0 C26.21470215 -0.01012115 27.1794043 -0.02024231 28.17333984 -0.03067017 C32.77720423 0.04955707 34.95336447 0.16318355 38.734375 2.98291016 C40.625 5.6640625 40.625 5.6640625 41.25 9.2265625 C40.625 12.6640625 40.625 12.6640625 38.734375 14.84350586 C34.25941812 17.46361841 30.35091824 17.25669435 25.25 17.23046875 C23.74687256 17.23976662 23.74687256 17.23976662 22.21337891 17.24925232 C20.09864268 17.25634357 17.98385055 17.25318866 15.86914062 17.24047852 C12.63567343 17.22660828 9.4050981 17.26070049 6.171875 17.29882812 C4.11458263 17.29977931 2.05728663 17.29792051 0 17.29296875 C-0.96470215 17.30622696 -1.9294043 17.31948517 -2.92333984 17.33314514 C-7.55488666 17.26896422 -9.69609631 17.17755804 -13.484375 14.31225586 C-15.375 11.6640625 -15.375 11.6640625 -16 8.6640625 C-14.18123911 -0.06598976 -7.43136459 -0.07796602 0 0 Z " fill="#000000" transform="translate(434.375,258.3359375)"/>
<path d="M0 0 C1.11140099 -0.00786278 1.11140099 -0.00786278 2.24525452 -0.0158844 C3.81119535 -0.02230308 5.37718441 -0.02096953 6.94311523 -0.01245117 C9.33600017 -0.00394767 11.72649202 -0.03268903 14.11914062 -0.06445312 C15.64192637 -0.06606547 17.16471633 -0.06548696 18.6875 -0.0625 C19.40115219 -0.07373398 20.11480438 -0.08496796 20.8500824 -0.09654236 C24.23863666 -0.04914875 26.10809226 0.21064247 28.86547852 2.24584961 C31.11023867 5.42512822 30.8849901 7.63492297 30.41015625 11.43359375 C29.11305126 13.89809323 28.35246942 15.10968619 25.69702148 16.02246094 C20.37540463 16.97918164 14.86261775 16.66187098 9.47265625 16.68359375 C8.19712891 16.70421875 6.92160156 16.72484375 5.60742188 16.74609375 C3.76374023 16.75382812 3.76374023 16.75382812 1.8828125 16.76171875 C0.76140869 16.77106445 -0.35999512 16.78041016 -1.51538086 16.79003906 C-4.9854974 16.38772268 -6.8116125 15.5193291 -9.58984375 13.43359375 C-11.58984375 10.43359375 -11.58984375 10.43359375 -11.40234375 6.93359375 C-9.81296418 0.08703562 -6.47361838 -0.02655418 0 0 Z " fill="#000000" transform="translate(42.58984375,327.56640625)"/>
<path d="M0 0 C2.25713016 -0.01188474 4.51151475 -0.06103774 6.76806641 -0.11157227 C8.20425098 -0.12103811 9.64045235 -0.12827238 11.07666016 -0.13305664 C12.3836084 -0.14651123 13.69055664 -0.15996582 15.03710938 -0.17382812 C18.39697266 0.42553711 18.39697266 0.42553711 20.85839844 2.73388672 C22.39697266 5.42553711 22.39697266 5.42553711 22.33447266 9.05053711 C21.07951234 13.56839425 21.07951234 13.56839425 18.39697266 15.42553711 C13.27268404 17.13363332 7.88624338 16.65234026 2.52197266 16.67553711 C1.33732422 16.69616211 0.15267578 16.71678711 -1.06787109 16.73803711 C-2.21126953 16.74319336 -3.35466797 16.74834961 -4.53271484 16.75366211 C-6.09868408 16.76768066 -6.09868408 16.76768066 -7.69628906 16.78198242 C-11.05847268 16.3696871 -12.90648986 15.44957827 -15.60302734 13.42553711 C-17.28861229 10.05436722 -17.85187145 8.33796548 -16.85302734 4.67553711 C-13.30261082 -1.71521263 -6.49594484 0.01622928 0 0 Z " fill="#000000" transform="translate(258.60302734375,320.574462890625)"/>
<path d="M0 0 C1.7634375 -0.02900391 1.7634375 -0.02900391 3.5625 -0.05859375 C13.13253183 -0.00421857 13.13253183 -0.00421857 16.2734375 2.9765625 C18.41920598 6.26803542 18.80258254 7.77260379 18 11.625 C16.33968362 14.17182014 15.58911245 15.19464652 13 16.625 C8.65810023 17.38044612 4.39665362 17.32231338 0 17.25 C-1.7634375 17.27900391 -1.7634375 17.27900391 -3.5625 17.30859375 C-13.13253183 17.25421857 -13.13253183 17.25421857 -16.2734375 14.2734375 C-18.41920598 10.98196458 -18.80258254 9.47739621 -18 5.625 C-13.61260007 -1.10499355 -7.43171919 -0.12223222 0 0 Z " fill="#000000" transform="translate(437,234.375)"/>
<path d="M0 0 C0.70318359 -0.01611328 1.40636719 -0.03222656 2.13085938 -0.04882812 C6.6343565 -0.05304883 9.5061551 0.51588992 13.0625 3.3125 C15.0625 6.3125 15.0625 6.3125 14.875 9.8125 C13.84496938 14.24955499 13.84496938 14.24955499 11.0625 16.3125 C8.75 16.70068359 8.75 16.70068359 6.0625 16.7109375 C5.093125 16.71480469 4.12375 16.71867187 3.125 16.72265625 C2.114375 16.71105469 1.10375 16.69945312 0.0625 16.6875 C-0.948125 16.69910156 -1.95875 16.71070313 -3 16.72265625 C-3.969375 16.71878906 -4.93875 16.71492188 -5.9375 16.7109375 C-6.824375 16.70755371 -7.71125 16.70416992 -8.625 16.70068359 C-11.40383726 16.23421915 -12.26359041 15.5424055 -13.9375 13.3125 C-15.02194457 9.74932497 -15.23850515 8.00956457 -13.75 4.5625 C-9.96973037 -0.13024851 -5.72404951 -0.02608956 0 0 Z " fill="#000000" transform="translate(106.9375,466.6875)"/>
<path d="M0 0 C0.70769531 -0.01224609 1.41539062 -0.02449219 2.14453125 -0.03710938 C6.24807606 -0.04857179 9.47224272 0.26499617 13.125 2.1875 C15.29219206 4.8472357 15.12034863 6.27587596 14.9375 9.75 C14.11576377 13.22657636 13.866774 14.12666442 11.125 16.1875 C7.67656007 16.81945306 4.18737369 16.65089012 0.6875 16.625 C-0.26705078 16.64498047 -1.22160156 16.66496094 -2.20507812 16.68554688 C-9.14281641 16.68069191 -9.14281641 16.68069191 -12.5078125 14.4140625 C-14.77836059 10.71631276 -14.35205573 8.48100153 -13.875 4.1875 C-10.61806247 -0.62036016 -5.26109121 0.00473972 0 0 Z " fill="#000000" transform="translate(146.875,466.8125)"/>
</svg>
