<?xml version="1.0" encoding="UTF-8"?>
<svg version="1.1" xmlns="http://www.w3.org/2000/svg" width="512" height="512">
<path d="M0 0 C0.99641006 -0.0071553 1.99282013 -0.01431061 3.01942444 -0.02168274 C4.10670837 -0.02437164 5.19399231 -0.02706055 6.31422424 -0.02983093 C7.46435501 -0.03640213 8.61448578 -0.04297333 9.79946899 -0.04974365 C13.61111009 -0.06947452 17.42271171 -0.08114133 21.23439026 -0.09111023 C22.53840349 -0.09518576 23.84241673 -0.09926128 25.18594551 -0.10346031 C31.38121384 -0.12250901 37.57647034 -0.13673583 43.77176231 -0.14507228 C50.89466698 -0.15481767 58.01725866 -0.18106724 65.14005321 -0.22157317 C70.66216221 -0.25188438 76.18418232 -0.2665556 81.7063728 -0.26985329 C84.99609394 -0.27218847 88.2854073 -0.28296491 91.57505608 -0.30631447 C95.2578919 -0.33082158 98.93992456 -0.3297188 102.62281799 -0.32279968 C103.69188385 -0.33560974 104.76094971 -0.3484198 105.8624115 -0.36161804 C122.51330188 -0.24846279 138.17762849 7.08111966 149.94923401 18.73701477 C155.7569108 24.87522494 160.4991955 31.95686178 165.39308167 38.82295227 C173.78930702 50.59497957 180.66656606 60.23340432 195.7462101 62.76505089 C202.4228207 63.5370892 209.12379263 63.41203716 215.83473206 63.38667297 C217.50495489 63.38778795 219.17517731 63.38984903 220.84539795 63.39277649 C224.42311486 63.39747412 228.00076599 63.3964043 231.57848167 63.39100075 C237.25043777 63.38334228 242.92226935 63.39410171 248.59420776 63.40820312 C264.71670537 63.44580251 280.8391456 63.46415754 296.96168518 63.45259094 C305.88090289 63.44635011 314.79991799 63.45807701 323.71908599 63.48903626 C329.34222828 63.50756025 334.96479074 63.50449777 340.58792245 63.48486865 C344.10582039 63.47792427 347.62341276 63.49206565 351.14125252 63.51181793 C352.75515783 63.51681047 354.36911686 63.51352462 355.98297882 63.50068474 C375.64724805 63.35553183 391.22732312 69.13123792 405.76954651 82.77607727 C417.53401333 95.0038707 423.37040242 110.28017778 423.31822205 127.04418945 C423.32275316 128.11991032 423.32728427 129.19563119 423.33195269 130.30394965 C423.34458092 133.8971606 423.34297731 137.49021967 423.34132385 141.08345032 C423.34731011 143.66449172 423.35411589 146.24553134 423.36167908 148.8265686 C423.37825495 155.10372115 423.3837871 161.38083611 423.38490383 167.65800872 C423.38585603 172.76402388 423.38997491 177.87002672 423.39630508 182.97603798 C423.41390904 197.47203293 423.42314541 211.96799834 423.42164414 226.46400406 C423.42156422 227.24463226 423.42148431 228.02526047 423.42140198 228.82954407 C423.42132022 229.61113232 423.42123845 230.39272057 423.42115422 231.19799332 C423.4203418 243.85667888 423.4394704 256.51524533 423.46767871 269.17389645 C423.49645507 282.19083381 423.51021636 295.20771316 423.50849116 308.22468311 C423.50782884 315.52499952 423.51325125 322.82519109 423.53484726 330.12547874 C423.55503899 336.99478282 423.55433691 343.86381985 423.539814 350.73313713 C423.53772782 353.24811438 423.54241529 355.76310819 423.55453491 358.2780571 C423.66409726 382.59699257 423.66409726 382.59699257 419.05079651 393.14717102 C418.54419495 394.36533508 418.03759338 395.58349915 417.51564026 396.83857727 C408.96974555 412.9031108 396.30129985 423.93977966 379.05079651 430.14717102 C370.97998918 432.41601682 363.18853265 432.43108223 354.85076904 432.40786743 C353.30887664 432.41089111 351.76698574 432.41478167 350.22509748 432.41946 C346.00438436 432.42972097 341.78375636 432.42756303 337.56303632 432.4232794 C333.00463092 432.42080871 328.44624583 432.42983063 323.8878479 432.43731689 C314.96351642 432.45005658 306.03921504 432.45185848 297.11487599 432.44951663 C289.85927827 432.44773242 282.60368967 432.44948533 275.34809303 432.45374107 C273.7981415 432.45463386 273.7981415 432.45463386 272.21687782 432.45554468 C270.1176024 432.45675645 268.01832698 432.45797058 265.91905157 432.45918705 C246.23822231 432.47005988 226.5574102 432.46790138 206.87657998 432.46180221 C188.88242766 432.45663386 170.8883295 432.46788679 152.89418789 432.48690043 C134.40683702 432.50628508 115.91951176 432.51453369 97.43215066 432.51077718 C87.05733064 432.50886601 76.6825567 432.51134441 66.30774498 432.52549171 C57.4750363 432.5374145 48.64240207 432.53880035 39.80969235 432.52670155 C35.30592716 432.52081906 30.80229808 432.51969599 26.29854202 432.53170395 C22.16989268 432.54258357 18.04149273 432.5394348 13.91285495 432.52544226 C12.42503347 432.52280104 10.93719232 432.5251437 9.4493902 432.53317813 C-9.24917682 432.62708758 -25.18778346 427.48865926 -38.86741638 414.4901886 C-49.19492651 404.1096171 -57.05638563 389.50229665 -57.08342457 374.5687952 C-57.08788241 373.42629435 -57.09234026 372.28379349 -57.09693319 371.10667139 C-57.09674882 369.85095927 -57.09656446 368.59524716 -57.09637451 367.30148315 C-57.09967446 365.95436034 -57.10340031 364.60723852 -57.10751599 363.26011795 C-57.11752959 359.55453561 -57.12125177 355.84896947 -57.1239053 352.14337552 C-57.12781037 348.1479245 -57.13738871 344.15248629 -57.14611816 340.15704346 C-57.16587898 330.50487651 -57.17594923 320.85270851 -57.18484595 311.20052639 C-57.18923031 306.65307176 -57.19459682 302.1056183 -57.19983482 297.5581646 C-57.21684828 282.43695728 -57.23134116 267.31575068 -57.23858356 252.19453526 C-57.24049341 248.27062542 -57.24241375 244.3467156 -57.24436951 240.42280579 C-57.24485325 239.44755618 -57.24533699 238.47230658 -57.24583539 237.46750396 C-57.2541308 221.67878014 -57.27945893 205.89013221 -57.31195018 190.10144151 C-57.34505014 173.88444262 -57.36303506 157.66748225 -57.36622781 141.45044941 C-57.3683904 132.34813955 -57.37710217 123.24594029 -57.40268898 114.14366341 C-57.42443628 106.38938701 -57.4324267 98.63524806 -57.4227222 90.88094462 C-57.41818886 86.92790367 -57.42000688 82.97514608 -57.43948364 79.02214432 C-57.45719839 75.39525069 -57.45605121 71.76884536 -57.44058635 68.14194595 C-57.4371126 66.22506215 -57.4531745 64.30817272 -57.47019082 62.3913613 C-57.33902339 44.56834703 -50.09144984 29.60578102 -37.82029724 16.95185852 C-28.03010431 7.73961974 -13.72014717 0.06783459 0 0 Z M-17.32420349 43.39717102 C-24.98401095 53.20519643 -25.09882701 64.58963458 -25.08291626 76.45594788 C-25.08518182 77.69556754 -25.08744737 78.93518721 -25.08978158 80.21237111 C-25.09500725 83.64141475 -25.0957681 87.07040585 -25.09458721 90.49944973 C-25.09438275 94.20237031 -25.09990629 97.90528313 -25.10464478 101.60820007 C-25.11294222 108.85871599 -25.11569921 116.10922377 -25.11625715 123.35974404 C-25.11673277 129.25526989 -25.11878977 135.15079306 -25.12195778 141.04631805 C-25.13076206 157.77184872 -25.13537754 174.49737297 -25.1346273 191.22290596 C-25.13458735 192.12410484 -25.13454739 193.02530371 -25.13450623 193.95381165 C-25.13446534 194.85611461 -25.13442446 195.75841758 -25.13438234 196.68806306 C-25.13397599 211.30748073 -25.14354345 225.92687264 -25.15764459 240.54628286 C-25.17201893 255.56781426 -25.17891419 270.5893331 -25.17805082 285.61087155 C-25.1777192 294.04010434 -25.18045071 302.46931011 -25.19122887 310.89853668 C-25.2003478 318.07599137 -25.2024977 325.2534068 -25.19571944 332.43086478 C-25.1924612 336.08993512 -25.19237229 339.7489302 -25.20107269 343.40799332 C-25.21042485 347.3821833 -25.20414345 351.35626421 -25.19644165 355.33045959 C-25.20158521 356.47649178 -25.20672878 357.62252397 -25.21202821 358.80328441 C-25.15930382 371.14559063 -23.72287548 381.4460525 -15.35154724 390.96357727 C-5.15354908 400.5829656 8.0546319 400.2969058 21.18183899 400.28088379 C22.63197109 400.28275325 24.08210268 400.28505449 25.53223348 400.28774911 C29.50854104 400.29385689 33.48482754 400.29373472 37.46113873 400.29255474 C41.75302135 400.29235047 46.04489725 400.29787197 50.33677673 400.3026123 C58.74233894 400.31091389 67.14789413 400.31366693 75.55346009 400.31422468 C82.38720103 400.31470009 89.22093966 400.31675608 96.05467987 400.31992531 C115.43641171 400.32873066 134.81813801 400.33334489 154.19987187 400.33259483 C155.76673386 400.3325349 155.76673386 400.3325349 157.36524963 400.33247375 C158.93402835 400.33241243 158.93402835 400.33241243 160.53449956 400.33234987 C177.48186523 400.33194347 194.42920868 400.34151185 211.37656793 400.35561212 C228.78468527 400.36998127 246.19279177 400.376882 263.60091519 400.37601835 C273.37153897 400.37568655 283.14213945 400.37842579 292.91275787 400.3891964 C301.23206234 400.39830849 309.55133295 400.40047082 317.87064025 400.39368697 C322.11298356 400.39042531 326.35526193 400.39035229 330.59759903 400.39904022 C334.48629037 400.40692182 338.37486545 400.4054569 342.26355401 400.39675609 C343.66528139 400.39522475 345.06701753 400.39702339 346.46873459 400.40261617 C359.92213016 400.45271051 371.40795721 399.74915225 381.86720276 390.54951477 C390.32586774 381.58205791 391.20457419 370.00608361 391.18450928 358.26808167 C391.18677483 357.28980935 391.18904039 356.31153703 391.1913746 355.3036201 C391.19769116 352.03433591 391.19688674 348.76509344 391.19606018 345.49580383 C391.19905314 343.14811652 391.20245599 340.8004297 391.20623779 338.45274353 C391.21506832 332.08071922 391.21741552 325.70870834 391.21805358 319.3366785 C391.21888403 314.68502633 391.2217844 310.03337713 391.22489006 305.38172601 C391.23319097 292.86644585 391.23693283 280.35117278 391.23622032 267.83588997 C391.23618037 267.12585881 391.23614041 266.41582765 391.23609924 265.6842804 C391.23605836 264.97337678 391.23601748 264.26247316 391.23597536 263.530027 C391.2355691 252.01453904 391.24513476 240.4990838 391.25923761 228.9836053 C391.27362213 217.14418832 391.28050664 205.30478729 391.27964383 193.46536136 C391.27931256 186.82465061 391.28222497 180.18397002 391.29282188 173.5432663 C391.30251983 167.29537038 391.30257035 161.04754679 391.29530525 154.79964828 C391.2942615 152.51120523 391.2966098 150.22275764 391.30266571 147.93432236 C391.31041837 144.80086227 391.30571915 141.66764995 391.29803467 138.53419495 C391.30575001 137.1886777 391.30575001 137.1886777 391.31362122 135.81597829 C391.25063446 124.12477141 389.33569024 114.2925881 381.45314026 105.33076477 C373.24904648 97.59215149 362.65501382 96.02686437 351.76670837 96.01586914 C351.06752875 96.01375343 350.36834913 96.01163771 349.64798224 96.00945789 C347.32309042 96.00350331 344.99825358 96.00445478 342.6733551 96.00532532 C340.99885466 96.00229073 339.32435505 95.99876844 337.64985657 95.99479675 C334.05134872 95.98692927 330.45285069 95.98177091 326.85433578 95.97850609 C321.15413667 95.9725735 315.45399925 95.95601113 309.75382996 95.93716431 C307.79842953 95.93082742 305.84302906 95.92450179 303.88762856 95.91818714 C302.90853311 95.91502133 301.92943766 95.91185552 300.92067266 95.90859377 C287.65823136 95.86660392 274.3958194 95.83355729 261.13331604 95.82124329 C252.17644147 95.81284177 243.21972057 95.79027503 234.26292288 95.75188762 C229.53022971 95.73219955 224.79776586 95.71969824 220.06502914 95.72472191 C215.60790934 95.72939565 211.15122341 95.71541542 206.69419098 95.68770981 C205.06775207 95.68084399 203.44126785 95.68062121 201.81483078 95.68791008 C183.09579935 95.76326098 166.69518701 90.47900533 152.92970276 77.33467102 C147.22046237 71.27147773 142.56135282 64.24790948 137.72901917 57.48750305 C125.67735003 40.52999073 125.67735003 40.52999073 106.96064758 32.61328125 C102.48353682 32.07954554 98.12149447 31.99952102 93.61817932 32.00190735 C92.69848358 31.99854874 91.77878784 31.99519012 90.83122253 31.99172974 C87.8054416 31.98226895 84.7797163 31.98027899 81.75392151 31.97920227 C79.63793414 31.975986 77.52194699 31.97262166 75.40596008 31.96911621 C70.97441594 31.9631369 66.54289127 31.96127505 62.11134338 31.96186829 C56.45487491 31.96196977 50.79853234 31.94832638 45.14209366 31.93109608 C40.77183976 31.91993346 36.40161587 31.9179504 32.03134918 31.91847801 C29.94712135 31.91730398 27.86289258 31.91291487 25.77867889 31.90514565 C2.17400161 31.39630547 2.17400161 31.39630547 -17.32420349 43.39717102 Z " fill="#000000" transform="translate(72.94920349121094,39.85282897949219)"/>
<path d="M0 0 C4.8846525 2.26787438 7.73212562 5.1153475 10 10 C11.3922978 19.50615864 8.77836018 25.76699231 3.875 33.75 C3.24263428 34.82709229 2.61026855 35.90418457 1.95874023 37.01391602 C0.6404131 39.25479446 -0.68887797 41.48925721 -2.02880859 43.71728516 C-4.47167632 47.78550406 -6.85081039 51.88881668 -9.22973633 55.99462891 C-10.95722064 58.97148321 -12.69598845 61.94148937 -14.4375 64.91015625 C-18.1321331 71.21570419 -21.78852681 77.54294436 -25.4375 83.875 C-26.06003662 84.95515381 -26.68257324 86.03530762 -27.32397461 87.14819336 C-28.58576826 89.33796334 -29.84740534 91.52782355 -31.10888672 93.71777344 C-32.98948106 96.98174327 -34.87140546 100.24494189 -36.75390625 103.5078125 C-37.37297852 104.58087646 -37.99205078 105.65394043 -38.62988281 106.75952148 C-39.86964587 108.90774277 -41.10987497 111.05569518 -42.35058594 113.20336914 C-45.27523575 118.26765952 -48.19444762 123.33485133 -51.09432983 128.4133606 C-52.46063872 130.80537117 -53.83005286 133.19559708 -55.19970703 135.58569336 C-56.16221014 137.26828963 -57.12022931 138.95344836 -58.078125 140.63867188 C-58.66464844 141.66154297 -59.25117188 142.68441406 -59.85546875 143.73828125 C-60.36746826 144.63587158 -60.87946777 145.53346191 -61.40698242 146.45825195 C-64.58415837 151.52761269 -67.24603753 154.97545765 -73 157 C-77.88462065 157.66204776 -82.39797338 157.6711993 -86.875 155.4375 C-91.26676407 152.01192402 -93.61322445 149.02829381 -94.31518555 143.53222656 C-94.50480221 136.36432853 -93.08557594 131.87638731 -89.375 125.8125 C-88.88281982 124.96429688 -88.39063965 124.11609375 -87.88354492 123.2421875 C-86.82357232 121.42178901 -85.75284949 119.60761454 -84.67236328 117.79931641 C-82.9981187 114.99685095 -81.3526822 112.17934489 -79.71484375 109.35546875 C-77.39939528 105.36640849 -75.07259795 101.38429632 -72.73828125 97.40625 C-68.77385976 90.63347806 -64.88379674 83.81914172 -61 77 C-55.49434759 67.3362982 -49.93416788 57.70668989 -44.30664062 48.11328125 C-41.09012255 42.61916029 -37.91480572 37.10419895 -34.78125 31.5625 C-34.24564453 30.61721436 -34.24564453 30.61721436 -33.69921875 29.65283203 C-31.96084549 26.5846977 -30.22756031 23.51392767 -28.50390625 20.4375 C-15.85332622 -1.91444509 -15.85332622 -1.91444509 0 0 Z " fill="#000000" transform="translate(294,208)"/>
<path d="M0 0 C4.09749721 1.76754781 7.44410052 4.32649039 11 7 C12.38562073 7.99423888 13.77383792 8.9848651 15.1640625 9.97265625 C19.0373689 12.73333271 22.88346558 15.5293599 26.72216797 18.33789062 C28.91399736 19.93724481 31.11375646 21.52496838 33.31640625 23.109375 C34.64857179 24.07273099 35.98060963 25.0362636 37.3125 26 C37.91610352 26.4321582 38.51970703 26.86431641 39.14160156 27.30957031 C47.11952701 33.11540035 54.25255848 39.99192585 56 50 C56.73394053 60.86494111 56.45954304 69.27776863 49.25 77.75 C42.96271898 84.33423729 35.97869174 90.16970057 29 96 C28.46487793 96.44827148 27.92975586 96.89654297 27.37841797 97.35839844 C9.37986861 112.38925696 9.37986861 112.38925696 -1.015625 112.27734375 C-6.37049732 111.77970509 -8.81340277 109.24904972 -12.375 105.5 C-14.72325726 100.44221514 -14.97097307 95.48314207 -14 90 C-11.23096348 84.80890697 -7.37729976 81.4018972 -2.9375 77.6875 C-2.27572754 77.12426025 -1.61395508 76.56102051 -0.93212891 75.98071289 C5.53952911 70.49129034 12.03538123 64.99831196 18.8046875 59.87890625 C19.52914062 59.25886719 20.25359375 58.63882813 21 58 C21 57.34 21 56.68 21 56 C19.45472535 54.6799926 19.45472535 54.6799926 17.40625 53.3828125 C16.63047607 52.86396484 15.85470215 52.34511719 15.05541992 51.81054688 C14.21213135 51.25431641 13.36884277 50.69808594 12.5 50.125 C5.94805394 45.72700852 -0.50985736 41.24953437 -6.8125 36.5 C-7.76962891 35.78094482 -7.76962891 35.78094482 -8.74609375 35.04736328 C-10.50853536 33.71193877 -12.25705577 32.36074182 -14 31 C-14.84570557 30.3503125 -14.84570557 30.3503125 -15.70849609 29.6875 C-19.78348864 26.45607648 -21.71653438 24.36660829 -22.3359375 19.1953125 C-22.46940663 8.70463856 -22.46940663 8.70463856 -18 4 C-12.73575429 -1.00103342 -6.88408249 -1.22345396 0 0 Z " fill="#000000" transform="translate(326,232)"/>
<path d="M0 0 C4.8846525 2.26787438 7.73212562 5.1153475 10 10 C10.73084344 15.42912272 11.03410176 20.06137681 8.41015625 24.98046875 C5.55635983 28.55580852 2.43582843 31.38567848 -1.0625 34.3125 C-1.72499756 34.87646484 -2.38749512 35.44042969 -3.07006836 36.02148438 C-8.65156342 40.75656379 -14.31181839 45.39391354 -20 50 C-22.00652229 51.65908945 -24.00428526 53.32791468 -26 55 C-24.44107877 59.15389569 -21.40281248 61.46914362 -18.0625 64.1875 C-17.48346924 64.66799805 -16.90443848 65.14849609 -16.30786133 65.64355469 C-14.5447659 67.1034334 -12.77382991 68.55319181 -11 70 C-10.00226563 70.81597656 -9.00453125 71.63195312 -7.9765625 72.47265625 C-7.05617187 73.22417969 -6.13578125 73.97570312 -5.1875 74.75 C1.4056338 80.13824824 1.4056338 80.13824824 4.5625 82.8125 C5.18253906 83.33457031 5.80257812 83.85664063 6.44140625 84.39453125 C9.84761792 87.90318538 10.31384603 91.06829825 10.375 95.875 C10.27363418 101.08266907 9.69948398 104.10580633 6 108 C1.35351746 112.41415841 -2.88793066 112.46758261 -9 112.53125 C-15.14747595 111.44263447 -19.58794539 106.79343806 -24.1875 102.8125 C-25.3353113 101.82999714 -26.48375863 100.84823687 -27.6328125 99.8671875 C-28.20032227 99.38217773 -28.76783203 98.89716797 -29.35253906 98.39746094 C-31.73092701 96.37999019 -34.14436464 94.40705373 -36.5625 92.4375 C-37.44292969 91.715625 -38.32335937 90.99375 -39.23046875 90.25 C-41.20081672 88.64926597 -43.18045593 87.06874685 -45.17578125 85.5 C-53.04031492 79.24582891 -58.26801175 73.7974751 -61 64 C-61.98172279 53.08689549 -61.44458348 43.37407024 -54.4375 34.4375 C-50.9752643 30.72425221 -47.01395655 27.60796063 -43.05078125 24.44921875 C-39.85240556 21.88150869 -36.73828784 19.23170164 -33.625 16.5625 C-29.11035797 12.71357406 -24.5139843 8.99349904 -19.8125 5.375 C-19.25965332 4.94904541 -18.70680664 4.52309082 -18.13720703 4.08422852 C-12.11498252 -0.5075995 -7.51604834 -0.69848093 0 0 Z " fill="#000000" transform="translate(190,232)"/>
</svg>
